<svg width="37" height="40" viewBox="0 0 37 40" fill="none" xmlns="http://www.w3.org/2000/svg">
<g filter="url(#filter0_di_1021_146739)">
<path fill-rule="evenodd" clip-rule="evenodd" d="M21.3836 0.146447C21.1884 -0.0488155 20.8718 -0.0488155 20.6765 0.146447C20.4813 0.341709 20.4813 0.658291 20.6765 0.853553L21.2081 1.38511C21.4033 1.58037 21.7199 1.58037 21.9152 1.38511C22.1105 1.18985 22.1105 0.873263 21.9152 0.678001L21.3836 0.146447ZM22.9783 1.74111C22.783 1.54585 22.4665 1.54585 22.2712 1.74111C22.0759 1.93637 22.0759 2.25295 22.2712 2.44822L23.3343 3.51132C23.5296 3.70659 23.8461 3.70659 24.0414 3.51132C24.2367 3.31606 24.2367 2.99948 24.0414 2.80422L22.9783 1.74111ZM25.1045 3.86733C24.9093 3.67206 24.5927 3.67206 24.3974 3.86733C24.2022 4.06259 24.2022 4.37917 24.3974 4.57443L24.5754 4.75243L24.3974 4.93043C24.2022 5.1257 24.2022 5.44228 24.3974 5.63754C24.5927 5.8328 24.9093 5.8328 25.1045 5.63754L25.6361 5.10599L25.9896 4.75243L25.6361 4.39888L25.1045 3.86733ZM24.0414 6.70065C24.2367 6.50539 24.2367 6.18881 24.0414 5.99354C23.8461 5.79828 23.5296 5.79828 23.3343 5.99354L22.2712 7.05665C22.0759 7.25191 22.0759 7.5685 22.2712 7.76376C22.4665 7.95902 22.783 7.95902 22.9783 7.76376L24.0414 6.70065ZM21.9152 8.82687C22.1105 8.63161 22.1105 8.31502 21.9152 8.11976C21.7199 7.9245 21.4033 7.9245 21.2081 8.11976L20.6765 8.65131C20.4813 8.84658 20.4813 9.16316 20.6765 9.35842C20.8718 9.55368 21.1884 9.55368 21.3836 9.35842L21.9152 8.82687ZM36.9135 21.7622C36.9135 22.1008 36.9042 22.4374 36.8857 22.7717C36.8599 23.2381 36.5184 23.6121 36.08 23.6979C36.4888 23.8782 36.7395 24.3185 36.6618 24.7792C36.5487 25.4491 36.3987 26.1066 36.2138 26.7494C36.0847 27.1981 35.6687 27.4866 35.2225 27.4728C35.58 27.7402 35.7254 28.225 35.5465 28.6563C35.2873 29.2815 34.9939 29.8888 34.6687 30.476C34.4424 30.8845 33.9723 31.0725 33.5404 30.959C33.8294 31.2994 33.8631 31.8046 33.5925 32.1852C33.2018 32.7349 32.781 33.2617 32.3326 33.7632C32.0213 34.1112 31.5215 34.1902 31.1256 33.984C31.3319 34.3798 31.2528 34.8797 30.9048 35.1909C30.4033 35.6394 29.8766 36.0602 29.3269 36.4509C28.9462 36.7215 28.441 36.6878 28.1007 36.3988C28.2142 36.8307 28.0261 37.3008 27.6176 37.5271C27.0304 37.8523 26.4231 38.1457 25.798 38.4049C25.3666 38.5838 24.8818 38.4384 24.6144 38.0809C24.6282 38.5271 24.3398 38.9431 23.891 39.0722C23.2482 39.2571 22.5907 39.4071 21.9208 39.5201C21.4601 39.5979 21.0198 39.3472 20.8395 38.9384C20.7537 39.3768 20.3797 39.7183 19.9133 39.7441C19.579 39.7625 19.2424 39.7719 18.9038 39.7719C18.5651 39.7719 18.2285 39.7625 17.8943 39.7441C17.4279 39.7183 17.0538 39.3768 16.968 38.9384C16.7877 39.3472 16.3475 39.5979 15.8868 39.5201C15.2168 39.4071 14.5594 39.2571 13.9166 39.0722C13.4678 38.9431 13.1794 38.5271 13.1932 38.0809C12.9258 38.4384 12.4409 38.5838 12.0096 38.4049C11.3845 38.1457 10.7771 37.8523 10.19 37.5271C9.78142 37.3008 9.5934 36.8307 9.7069 36.3988C9.36651 36.6878 8.86135 36.7215 8.48071 36.4509C7.931 36.0602 7.40422 35.6394 6.90276 35.1909C6.55474 34.8797 6.47571 34.3798 6.68198 33.984C6.28611 34.1902 5.78622 34.1112 5.475 33.7632C5.02656 33.2617 4.60577 32.7349 4.21504 32.1852C3.94447 31.8046 3.97815 31.2994 4.26717 30.959C3.83526 31.0725 3.36513 30.8845 3.13885 30.476C2.81366 29.8888 2.52027 29.2815 2.26102 28.6563C2.08216 28.225 2.22755 27.7402 2.58506 27.4728C2.13881 27.4866 1.72284 27.1981 1.59377 26.7494C1.40889 26.1066 1.25884 25.4491 1.14581 24.7792C1.06806 24.3185 1.31876 23.8782 1.72757 23.6979C1.28918 23.6121 0.947681 23.2381 0.921886 22.7717C0.9034 22.4374 0.894043 22.1008 0.894043 21.7622C0.894043 21.4235 0.9034 21.0869 0.921886 20.7527C0.947681 20.2862 1.28918 19.9122 1.72758 19.8264C1.31876 19.6461 1.06806 19.2059 1.14581 18.7451C1.25884 18.0752 1.40889 17.4177 1.59377 16.7749C1.72284 16.3262 2.13881 16.0378 2.58506 16.0516C2.22755 15.7842 2.08216 15.2993 2.26102 14.868C2.52027 14.2428 2.81366 13.6355 3.13885 13.0484C3.36514 12.6398 3.83526 12.4518 4.26717 12.5653C3.97815 12.2249 3.94447 11.7197 4.21504 11.3391C4.60577 10.7894 5.02656 10.2626 5.475 9.76115C5.78622 9.41313 6.28611 9.3341 6.68198 9.54038C6.47571 9.1445 6.55475 8.64461 6.90276 8.33339C7.40422 7.88495 7.931 7.46416 8.48071 7.07343C8.86135 6.80286 9.36651 6.83654 9.70691 7.12556C9.5934 6.69365 9.78142 6.22353 10.19 5.99724C10.7771 5.67205 11.3845 5.37865 12.0096 5.11941C12.4409 4.94055 12.9258 5.08594 13.1932 5.44345C13.1794 4.9972 13.4678 4.58123 13.9166 4.45216C14.5594 4.26728 15.2168 4.11723 15.8868 4.0042C16.3475 3.92645 16.7877 4.17715 16.968 4.58596C17.0538 4.14757 17.4279 3.80607 17.8943 3.78028C18.2285 3.76179 18.5651 3.75243 18.9038 3.75243C19.4561 3.75243 19.9038 4.20015 19.9038 4.75243C19.9038 5.30472 19.4561 5.75243 18.9038 5.75243C18.602 5.75243 18.3022 5.76077 18.0047 5.77723C17.5775 5.80085 17.198 5.55264 17.0346 5.18315C16.9567 5.57947 16.6414 5.90514 16.2195 5.97632C15.6242 6.07676 15.0402 6.21004 14.4694 6.37423C14.0588 6.49232 13.6343 6.33566 13.3925 6.01298C13.4046 6.41607 13.1703 6.80322 12.7757 6.96687C12.2204 7.19714 11.6808 7.45781 11.159 7.74683C10.7849 7.954 10.3357 7.89602 10.0277 7.63506C10.1299 8.02561 9.98798 8.45582 9.63943 8.70357C9.15059 9.05104 8.68205 9.4253 8.23596 9.82422C7.91715 10.1093 7.46612 10.1525 7.10786 9.96626C7.29409 10.3245 7.25093 10.7755 6.96584 11.0943C6.56691 11.5404 6.19265 12.009 5.84518 12.4978C5.59743 12.8464 5.16722 12.9883 4.77667 12.8861C5.03763 13.1941 5.09561 13.6433 4.88844 14.0174C4.59942 14.5392 4.33875 15.0788 4.10848 15.6341C3.94483 16.0287 3.55768 16.2629 3.15459 16.2509C3.47727 16.4927 3.63393 16.9172 3.51584 17.3278C3.35165 17.8986 3.21837 18.4826 3.11793 19.0779C3.04674 19.4998 2.72107 19.8151 2.32475 19.893C2.69425 20.0564 2.94246 20.4358 2.91883 20.8631C2.90238 21.1606 2.89404 21.4604 2.89404 21.7622C2.89404 22.064 2.90238 22.3637 2.91883 22.6612C2.94246 23.0885 2.69425 23.4679 2.32476 23.6313C2.72108 23.7093 3.04674 24.0246 3.11793 24.4464C3.21837 25.0417 3.35165 25.6257 3.51584 26.1966C3.63393 26.6071 3.47727 27.0316 3.15459 27.2735C3.55768 27.2614 3.94483 27.4956 4.10848 27.8902C4.33875 28.4455 4.59942 28.9851 4.88844 29.507C5.09561 29.881 5.03763 30.3303 4.77667 30.6382C5.16722 30.536 5.59743 30.678 5.84518 31.0265C6.19265 31.5154 6.56691 31.9839 6.96584 32.43C7.25093 32.7488 7.29408 33.1998 7.10786 33.5581C7.46612 33.3719 7.91715 33.415 8.23596 33.7001C8.68205 34.099 9.15059 34.4733 9.63943 34.8208C9.98798 35.0685 10.1299 35.4987 10.0277 35.8893C10.3357 35.6283 10.7849 35.5703 11.159 35.7775C11.6808 36.0665 12.2204 36.3272 12.7757 36.5575C13.1703 36.7211 13.4046 37.1083 13.3925 37.5114C13.6343 37.1887 14.0588 37.032 14.4694 37.1501C15.0402 37.3143 15.6242 37.4476 16.2195 37.548C16.6414 37.6192 16.9567 37.9449 17.0346 38.3412C17.198 37.9717 17.5775 37.7235 18.0047 37.7471C18.3022 37.7636 18.602 37.7719 18.9038 37.7719C19.2056 37.7719 19.5053 37.7636 19.8028 37.7471C20.2301 37.7235 20.6095 37.9717 20.7729 38.3412C20.8509 37.9449 21.1662 37.6192 21.588 37.548C22.1833 37.4476 22.7673 37.3143 23.3382 37.1501C23.7487 37.032 24.1732 37.1887 24.4151 37.5114C24.403 37.1083 24.6372 36.7211 25.0318 36.5575C25.5871 36.3272 26.1267 36.0665 26.6486 35.7775C27.0226 35.5703 27.4719 35.6283 27.7799 35.8893C27.6776 35.4987 27.8196 35.0685 28.1681 34.8208C28.657 34.4733 29.1255 34.099 29.5716 33.7001C29.8904 33.415 30.3414 33.3719 30.6997 33.5581C30.5135 33.1998 30.5566 32.7488 30.8417 32.43C31.2406 31.9839 31.6149 31.5154 31.9624 31.0265C32.2101 30.678 32.6403 30.536 33.0309 30.6383C32.7699 30.3303 32.712 29.881 32.9191 29.507C33.2081 28.9851 33.4688 28.4455 33.6991 27.8902C33.8627 27.4956 34.2499 27.2614 34.653 27.2735C34.3303 27.0316 34.1736 26.6071 34.2917 26.1966C34.4559 25.6257 34.5892 25.0417 34.6896 24.4464C34.7608 24.0246 35.0865 23.7093 35.4828 23.6313C35.1133 23.4679 34.8651 23.0885 34.8887 22.6612C34.9052 22.3637 34.9135 22.064 34.9135 21.7622C34.9135 21.2099 35.3612 20.7622 35.9135 20.7622C36.4658 20.7622 36.9135 21.2099 36.9135 21.7622Z" fill="url(#paint0_linear_1021_146739)"/>
</g>
<g filter="url(#filter1_i_1021_146739)">
<path fill-rule="evenodd" clip-rule="evenodd" d="M18.9035 10.9213C13.0322 10.9213 8.27246 15.681 8.27246 21.5523C8.27246 27.4237 13.0322 32.1834 18.9035 32.1834C24.7749 32.1834 29.5346 27.4237 29.5346 21.5523C29.5346 15.681 24.7749 10.9213 18.9035 10.9213ZM15.5455 19.279H15.731L17.0591 22.8337H16.2779L16.0314 22.0841H14.7538L14.5079 22.8337H13.7291L15.0499 19.279H15.2305H15.5455ZM14.942 21.5104H15.8426L15.3918 20.1396L14.942 21.5104ZM20.1622 22.3844V20.9757H18.7608V21.4982H19.4297V22.1281C19.4037 22.1541 19.3663 22.1818 19.3174 22.2111C19.2702 22.2388 19.2076 22.2624 19.1294 22.2819C19.0529 22.3014 18.9569 22.3112 18.8414 22.3112C18.703 22.3112 18.5818 22.2868 18.4776 22.238C18.3734 22.1891 18.2855 22.1167 18.2139 22.0207C18.1439 21.923 18.091 21.8034 18.0552 21.6618C18.0194 21.5186 18.0015 21.3542 18.0015 21.1686V20.9416C18.0015 20.7544 18.0186 20.59 18.0528 20.4484C18.087 20.3068 18.1366 20.188 18.2017 20.092C18.2668 19.9959 18.3466 19.9235 18.441 19.8747C18.537 19.8242 18.646 19.799 18.7681 19.799C18.9162 19.799 19.0367 19.8242 19.1294 19.8747C19.2238 19.9251 19.2963 19.9951 19.3467 20.0846C19.3972 20.1741 19.4314 20.2791 19.4493 20.3996H20.1597C20.1353 20.1717 20.0702 19.9699 19.9644 19.7941C19.8602 19.6167 19.7089 19.4783 19.5103 19.3791C19.3117 19.2782 19.0578 19.2277 18.7486 19.2277C18.5256 19.2277 18.323 19.2659 18.1407 19.3424C17.9584 19.4189 17.8013 19.5304 17.6695 19.6769C17.5376 19.8234 17.4359 20.0033 17.3643 20.2165C17.2943 20.4297 17.2593 20.673 17.2593 20.9464V21.1686C17.2593 21.4421 17.2959 21.6854 17.3692 21.8986C17.4424 22.1102 17.5466 22.2892 17.6817 22.4357C17.8184 22.5822 17.9812 22.6937 18.17 22.7702C18.3588 22.845 18.5679 22.8825 18.7974 22.8825C19.0562 22.8825 19.2767 22.8548 19.459 22.7995C19.6413 22.7441 19.7903 22.6782 19.9058 22.6017C20.0214 22.5236 20.1068 22.4512 20.1622 22.3844ZM23.1382 22.8337V22.2624H21.4854V21.2834H22.8917V20.7267H21.4854V19.8527H23.1358V19.279H21.4854H21.2461H20.753V22.8337H21.2461H21.4854H23.1382Z" fill="#C79C48"/>
</g>
<defs>
<filter id="filter0_di_1021_146739" x="-1.10596" y="-2" width="38.0195" height="41.8719" filterUnits="userSpaceOnUse" color-interpolation-filters="sRGB">
<feFlood flood-opacity="0" result="BackgroundImageFix"/>
<feColorMatrix in="SourceAlpha" type="matrix" values="0 0 0 0 0 0 0 0 0 0 0 0 0 0 0 0 0 0 127 0" result="hardAlpha"/>
<feOffset dy="0.1"/>
<feComposite in2="hardAlpha" operator="out"/>
<feColorMatrix type="matrix" values="0 0 0 0 0.780392 0 0 0 0 0.611765 0 0 0 0 0.282353 0 0 0 1 0"/>
<feBlend mode="normal" in2="BackgroundImageFix" result="effect1_dropShadow_1021_146739"/>
<feBlend mode="normal" in="SourceGraphic" in2="effect1_dropShadow_1021_146739" result="shape"/>
<feColorMatrix in="SourceAlpha" type="matrix" values="0 0 0 0 0 0 0 0 0 0 0 0 0 0 0 0 0 0 127 0" result="hardAlpha"/>
<feOffset dx="-9" dy="-9"/>
<feGaussianBlur stdDeviation="1"/>
<feComposite in2="hardAlpha" operator="arithmetic" k2="-1" k3="1"/>
<feColorMatrix type="matrix" values="0 0 0 0 0.870833 0 0 0 0 0.701295 0 0 0 0 0.370104 0 0 0 1 0"/>
<feBlend mode="normal" in2="shape" result="effect2_innerShadow_1021_146739"/>
</filter>
<filter id="filter1_i_1021_146739" x="7.12246" y="10.9213" width="22.4122" height="22.4122" filterUnits="userSpaceOnUse" color-interpolation-filters="sRGB">
<feFlood flood-opacity="0" result="BackgroundImageFix"/>
<feBlend mode="normal" in="SourceGraphic" in2="BackgroundImageFix" result="shape"/>
<feColorMatrix in="SourceAlpha" type="matrix" values="0 0 0 0 0 0 0 0 0 0 0 0 0 0 0 0 0 0 127 0" result="hardAlpha"/>
<feOffset dx="-1.15" dy="1.15"/>
<feGaussianBlur stdDeviation="0.575"/>
<feComposite in2="hardAlpha" operator="arithmetic" k2="-1" k3="1"/>
<feColorMatrix type="matrix" values="0 0 0 0 1 0 0 0 0 0.843137 0 0 0 0 0.470588 0 0 0 1 0"/>
<feBlend mode="normal" in2="shape" result="effect1_innerShadow_1021_146739"/>
</filter>
<linearGradient id="paint0_linear_1021_146739" x1="18.9038" y1="0" x2="18.9038" y2="39.7719" gradientUnits="userSpaceOnUse">
<stop stop-color="#C79C48"/>
<stop offset="1" stop-color="#FFD778"/>
</linearGradient>
</defs>
</svg>
