<svg width="40" height="40" viewBox="0 0 40 40" fill="none" xmlns="http://www.w3.org/2000/svg">
<path d="M37.475 15.5036C36.8018 14.8 36.1054 14.075 35.8429 13.4375C35.6 12.8536 35.5857 11.8857 35.5714 10.9482C35.5446 9.20536 35.5161 7.23036 34.1429 5.85714C32.7696 4.48393 30.7946 4.45536 29.0518 4.42857C28.1143 4.41429 27.1464 4.4 26.5625 4.15714C25.9268 3.89464 25.2 3.19821 24.4964 2.525C23.2643 1.34107 21.8643 0 20 0C18.1357 0 16.7375 1.34107 15.5036 2.525C14.8 3.19821 14.075 3.89464 13.4375 4.15714C12.8571 4.4 11.8857 4.41429 10.9482 4.42857C9.20536 4.45536 7.23036 4.48393 5.85714 5.85714C4.48393 7.23036 4.46429 9.20536 4.42857 10.9482C4.41429 11.8857 4.4 12.8536 4.15714 13.4375C3.89464 14.0732 3.19821 14.8 2.525 15.5036C1.34107 16.7357 0 18.1357 0 20C0 21.8643 1.34107 23.2625 2.525 24.4964C3.19821 25.2 3.89464 25.925 4.15714 26.5625C4.4 27.1464 4.41429 28.1143 4.42857 29.0518C4.45536 30.7946 4.48393 32.7696 5.85714 34.1429C7.23036 35.5161 9.20536 35.5446 10.9482 35.5714C11.8857 35.5857 12.8536 35.6 13.4375 35.8429C14.0732 36.1054 14.8 36.8018 15.5036 37.475C16.7357 38.6589 18.1357 40 20 40C21.8643 40 23.2625 38.6589 24.4964 37.475C25.2 36.8018 25.925 36.1054 26.5625 35.8429C27.1464 35.6 28.1143 35.5857 29.0518 35.5714C30.7946 35.5446 32.7696 35.5161 34.1429 34.1429C35.5161 32.7696 35.5446 30.7946 35.5714 29.0518C35.5857 28.1143 35.6 27.1464 35.8429 26.5625C36.1054 25.9268 36.8018 25.2 37.475 24.4964C38.6589 23.2643 40 21.8643 40 20C40 18.1357 38.6589 16.7375 37.475 15.5036ZM28.1536 16.725L18.1536 26.725C18.0209 26.8578 17.8633 26.9632 17.6899 27.0351C17.5165 27.107 17.3306 27.144 17.1429 27.144C16.9551 27.144 16.7692 27.107 16.5958 27.0351C16.4224 26.9632 16.2648 26.8578 16.1321 26.725L11.8464 22.4393C11.7137 22.3066 11.6084 22.149 11.5366 21.9756C11.4647 21.8021 11.4278 21.6163 11.4278 21.4286C11.4278 21.2409 11.4647 21.055 11.5366 20.8816C11.6084 20.7082 11.7137 20.5506 11.8464 20.4179C12.1145 20.1498 12.4781 19.9992 12.8571 19.9992C13.0449 19.9992 13.2307 20.0362 13.4041 20.108C13.5776 20.1798 13.7351 20.2851 13.8679 20.4179L17.1429 23.6946L26.1321 14.7036C26.2649 14.5708 26.4224 14.4656 26.5959 14.3937C26.7693 14.3219 26.9552 14.2849 27.1429 14.2849C27.3306 14.2849 27.5164 14.3219 27.6899 14.3937C27.8633 14.4656 28.0208 14.5708 28.1536 14.7036C28.2863 14.8363 28.3916 14.9939 28.4634 15.1673C28.5353 15.3407 28.5722 15.5266 28.5722 15.7143C28.5722 15.902 28.5353 16.0879 28.4634 16.2613C28.3916 16.4347 28.2863 16.5923 28.1536 16.725Z" fill="white" fill-opacity="0.52"/>
</svg>
