<svg width="237" height="80" viewBox="0 0 237 80" fill="none" xmlns="http://www.w3.org/2000/svg">
<path fill-rule="evenodd" clip-rule="evenodd" d="M9.60001 0C4.29807 0 0 4.29807 0 9.6V70.4C0 75.7019 4.29807 80 9.6 80H227.4C232.702 80 237 75.7019 237 70.4V9.6C237 4.29807 232.702 0 227.4 0H9.60001Z" fill="white"/>
<path fill-rule="evenodd" clip-rule="evenodd" d="M51.8834 38.1686C51.8318 32.4462 56.5824 29.6622 56.7997 29.5325C54.1092 25.6211 49.939 25.0867 48.4735 25.0441C44.971 24.6765 41.5736 27.1338 39.7895 27.1338C37.9697 27.1338 35.2222 25.0796 32.261 25.1399C28.4505 25.1985 24.8857 27.3984 22.9306 30.8145C18.8957 37.7798 21.9049 48.0156 25.7707 53.6457C27.7044 56.4048 29.964 59.4818 32.9216 59.3735C35.8151 59.2563 36.896 57.5341 40.3877 57.5341C43.8475 57.5341 44.8624 59.3735 47.8788 59.3025C50.9842 59.2563 52.9393 56.5345 54.8054 53.7505C57.0401 50.5936 57.9375 47.4776 57.9731 47.3178C57.9019 47.2947 51.9439 45.0274 51.8834 38.1686Z" fill="#1F2430"/>
<path fill-rule="evenodd" clip-rule="evenodd" d="M46.1854 21.3404C47.7417 19.3997 48.8065 16.7596 48.5109 14.0803C46.2584 14.1798 43.4415 15.6339 41.8194 17.5319C40.3842 19.2044 39.1021 21.9458 39.4333 24.5239C41.9636 24.7121 44.5615 23.2508 46.1854 21.3404Z" fill="#1F2430"/>
<path fill-rule="evenodd" clip-rule="evenodd" d="M93.7937 58.9778H89.75L87.5349 52.0374H79.8355L77.7255 58.9778H73.7885L81.4185 35.3494H86.13L93.7937 58.9778ZM86.8671 49.1255L84.8639 42.9574C84.6521 42.3253 84.2532 40.841 83.6692 38.5044H83.5979C83.3629 39.5094 82.9872 40.9937 82.4726 42.9574L80.5032 49.1255H86.8671Z" fill="#1F2430"/>
<path fill-rule="evenodd" clip-rule="evenodd" d="M113.377 50.2493C113.377 53.1469 112.588 55.4373 111.009 57.1187C109.595 58.6155 107.837 59.363 105.742 59.363C103.479 59.363 101.851 58.5587 100.863 56.9447V65.8844H97.0665V47.5399C97.0665 45.72 97.0184 43.8539 96.9258 41.9399H100.264L100.476 44.6423H100.548C101.814 42.6057 103.735 41.5884 106.313 41.5884C108.329 41.5884 110.012 42.382 111.358 43.9711C112.702 45.5637 113.377 47.6553 113.377 50.2493ZM109.509 50.3878C109.509 48.7295 109.136 47.3623 108.384 46.2864C107.563 45.166 106.461 44.6032 105.079 44.6032C104.143 44.6032 103.292 44.9157 102.531 45.5336C101.769 46.1532 101.271 46.9646 101.037 47.9713C100.92 48.4383 100.861 48.82 100.861 49.1219V51.9662C100.861 53.202 101.242 54.2477 102.004 55.1035C102.766 55.9558 103.756 56.3837 104.974 56.3837C106.404 56.3837 107.517 55.8315 108.313 54.736C109.111 53.637 109.509 52.1882 109.509 50.3878Z" fill="#1F2430"/>
<path fill-rule="evenodd" clip-rule="evenodd" d="M133.03 50.2493C133.03 53.1469 132.241 55.4373 130.661 57.1187C129.246 58.6155 127.49 59.363 125.393 59.363C123.131 59.363 121.504 58.5587 120.514 56.9447V65.8844H116.717V47.5399C116.717 45.72 116.669 43.8539 116.577 41.9399H119.915L120.127 44.6423H120.198C121.463 42.6057 123.384 41.5884 125.964 41.5884C127.978 41.5884 129.662 42.382 131.01 43.9711C132.353 45.5637 133.03 47.6553 133.03 50.2493ZM129.16 50.3878C129.16 48.7295 128.785 47.3623 128.033 46.2864C127.214 45.166 126.114 44.6032 124.732 44.6032C123.795 44.6032 122.944 44.9157 122.18 45.5336C121.42 46.1532 120.921 46.9646 120.688 47.9713C120.572 48.4383 120.51 48.82 120.51 49.1219V51.9662C120.51 53.202 120.893 54.2477 121.651 55.1035C122.414 55.954 123.404 56.3837 124.625 56.3837C126.057 56.3837 127.17 55.8315 127.964 54.736C128.761 53.637 129.16 52.1882 129.16 50.3878Z" fill="#1F2430"/>
<path fill-rule="evenodd" clip-rule="evenodd" d="M155.002 52.3515C155.002 54.3614 154.299 55.9967 152.896 57.259C151.354 58.6368 149.201 59.3275 146.441 59.3275C143.891 59.3275 141.847 58.8375 140.305 57.8556L141.183 54.7005C142.848 55.6824 144.677 56.1742 146.667 56.1742C148.099 56.1742 149.212 55.8511 150.006 55.2101C150.804 54.5656 151.204 53.708 151.204 52.6356C151.204 51.6751 150.873 50.869 150.218 50.2138C149.561 49.5622 148.475 48.9514 146.95 48.3939C142.802 46.851 140.725 44.5926 140.725 41.6257C140.725 39.6869 141.459 38.0995 142.921 36.8585C144.385 35.6192 146.325 34.9995 148.74 34.9995C150.896 34.9995 152.693 35.3741 154.119 36.1216L153.167 39.2075C151.824 38.4831 150.309 38.1209 148.614 38.1209C147.275 38.1209 146.222 38.4493 145.473 39.1027C144.84 39.6869 144.518 40.3988 144.518 41.244C144.518 42.1761 144.883 42.9502 145.611 43.5557C146.242 44.1167 147.392 44.7257 149.055 45.3791C151.096 46.1994 152.593 47.1546 153.555 48.2519C154.522 49.3492 155.002 50.7181 155.002 52.3515Z" fill="#1F2430"/>
<path fill-rule="evenodd" clip-rule="evenodd" d="M167.586 44.7808H163.402V53.0528C163.402 55.1568 164.139 56.2062 165.617 56.2062C166.295 56.2062 166.858 56.1493 167.303 56.0304L167.408 58.9049C166.66 59.1837 165.675 59.3239 164.457 59.3239C162.956 59.3239 161.787 58.8659 160.939 57.955C160.095 57.0424 159.673 55.5137 159.673 53.3618V44.7737H157.182V41.9328H159.673V38.8133L163.402 37.6912V41.9328H167.586V44.7808Z" fill="#1F2430"/>
<path fill-rule="evenodd" clip-rule="evenodd" d="M186.429 50.3186C186.429 52.9375 185.679 55.0876 184.178 56.769C182.609 58.4984 180.522 59.363 177.921 59.363C175.41 59.363 173.414 58.5339 171.925 56.8755C170.437 55.2172 169.693 53.1257 169.693 50.6027C169.693 47.9625 170.464 45.7999 171.995 44.1185C173.53 42.4371 175.599 41.5938 178.2 41.5938C180.709 41.5938 182.721 42.4265 184.247 44.083C185.704 45.6934 186.429 47.769 186.429 50.3186ZM182.493 50.4056C182.493 48.8449 182.155 47.5062 181.477 46.3858C180.681 45.0329 179.539 44.3582 178.065 44.3582C176.546 44.3582 175.376 45.0329 174.584 46.3858C173.902 47.5062 173.565 48.868 173.565 50.4766C173.565 52.0391 173.902 53.3813 174.584 54.4964C175.405 55.8511 176.55 56.5275 178.035 56.5275C179.484 56.5275 180.622 55.8351 181.446 54.4644C182.143 53.3174 182.493 51.9698 182.493 50.4056Z" fill="#1F2430"/>
<path fill-rule="evenodd" clip-rule="evenodd" d="M198.774 45.269C198.398 45.1998 197.995 45.166 197.577 45.166C196.241 45.166 195.209 45.6649 194.482 46.6734C193.85 47.5612 193.535 48.6833 193.535 50.038V58.9777H189.739V47.3055C189.739 45.3436 189.701 43.5521 189.628 41.9417H192.935L193.074 45.2015H193.179C193.581 44.0812 194.212 43.1775 195.077 42.5028C195.925 41.892 196.836 41.5884 197.821 41.5884C198.172 41.5884 198.489 41.615 198.77 41.6576L198.774 45.269Z" fill="#1F2430"/>
<path fill-rule="evenodd" clip-rule="evenodd" d="M215.752 49.6528C215.752 50.331 215.707 50.9027 215.613 51.3697H204.226C204.267 53.0528 204.82 54.3419 205.876 55.2296C206.836 56.0215 208.079 56.4192 209.601 56.4192C211.288 56.4192 212.826 56.1529 214.21 55.6131L214.804 58.2409C213.188 58.9422 211.277 59.2938 209.076 59.2938C206.427 59.2938 204.347 58.5161 202.833 56.9643C201.325 55.4107 200.567 53.321 200.567 50.7074C200.567 48.14 201.268 46.0005 202.678 44.2943C204.153 42.4726 206.145 41.5618 208.652 41.5618C211.115 41.5618 212.979 42.4726 214.244 44.2943C215.248 45.7378 215.752 47.5275 215.752 49.6528ZM212.132 48.6709C212.158 47.547 211.909 46.5811 211.395 45.7608C210.737 44.7062 209.726 44.1806 208.371 44.1806C207.128 44.1806 206.119 44.6938 205.349 45.7236C204.717 46.5421 204.341 47.5275 204.226 48.6673L212.132 48.6709Z" fill="#1F2430"/>
<path fill-rule="evenodd" clip-rule="evenodd" d="M85.0367 26.8924H83.0477L81.9598 23.4817H78.176L77.1379 26.8924H75.2023L78.9523 15.2788H81.2671L85.0367 26.8924ZM81.6321 22.0506L80.6475 19.018C80.5442 18.7073 80.3537 17.9847 80.0599 16.8306H80.0242C79.9032 17.3295 79.7304 18.0539 79.4705 19.018L78.5036 22.0506H81.6321Z" fill="#1F2430"/>
<path fill-rule="evenodd" clip-rule="evenodd" d="M94.4134 18.5193L91.2332 26.8926H89.4188L86.3419 18.5193H88.3468L89.782 22.9474C90.0242 23.6878 90.2307 24.3944 90.3856 25.0656H90.4373C90.5762 24.4637 90.7827 23.757 91.0409 22.9474L92.4583 18.5193H94.4134Z" fill="#1F2430"/>
<path fill-rule="evenodd" clip-rule="evenodd" d="M101.183 26.8924L101.044 25.9283H100.993C100.423 26.7042 99.5932 27.0824 98.5391 27.0824C97.0363 27.0824 95.9643 26.0313 95.9643 24.618C95.9643 22.5513 97.761 21.4825 100.872 21.4825V21.328C100.872 20.2254 100.284 19.6732 99.1267 19.6732C98.2969 19.6732 97.5704 19.881 96.933 20.2947L96.5537 19.0713C97.3318 18.5884 98.2987 18.3469 99.4401 18.3469C101.634 18.3469 102.741 19.501 102.741 21.8109V24.895C102.741 25.7401 102.777 26.3953 102.862 26.8942L101.183 26.8924ZM100.923 22.7218C98.8489 22.7218 97.8126 23.2225 97.8126 24.4103C97.8126 25.2892 98.3486 25.7188 99.0911 25.7188C100.042 25.7188 100.923 24.9962 100.923 24.0143V22.7218Z" fill="#1F2430"/>
<path fill-rule="evenodd" clip-rule="evenodd" d="M106.897 17.1397C106.276 17.1397 105.792 16.6567 105.792 16.0193C105.792 15.3819 106.292 14.9167 106.933 14.9167C107.572 14.9167 108.09 15.3819 108.073 16.0193C108.073 16.6923 107.59 17.1397 106.897 17.1397ZM106 18.5193H107.866V26.8925H106V18.5193Z" fill="#1F2430"/>
<path fill-rule="evenodd" clip-rule="evenodd" d="M111.181 14.677H113.048V26.8925H111.181L111.181 14.677Z" fill="#1F2430"/>
<path fill-rule="evenodd" clip-rule="evenodd" d="M120.978 26.8925L120.838 25.9284H120.788C120.218 26.7043 119.388 27.0825 118.334 27.0825C116.831 27.0825 115.759 26.0314 115.759 24.6181C115.759 22.5514 117.556 21.4825 120.667 21.4825V21.3281C120.667 20.2255 120.079 19.6733 118.922 19.6733C118.092 19.6733 117.366 19.881 116.728 20.2947L116.347 19.0696C117.125 18.5867 118.092 18.3452 119.233 18.3452C121.427 18.3452 122.536 19.4993 122.536 21.8092V24.8933C122.536 25.7384 122.572 26.3936 122.654 26.8925H120.978ZM120.718 22.7218C118.644 22.7218 117.608 23.2225 117.608 24.4103C117.608 25.2892 118.144 25.7189 118.886 25.7189C119.837 25.7189 120.718 24.9963 120.718 24.0144V22.7218Z" fill="#1F2430"/>
<path fill-rule="evenodd" clip-rule="evenodd" d="M130.095 27.0825C128.904 27.0825 128.024 26.5818 127.453 25.5999H127.417L127.31 26.8925H125.722C125.772 26.2213 125.79 25.4614 125.79 24.6358V14.677H127.659V19.7443H127.693C128.247 18.8139 129.144 18.3488 130.371 18.3488C132.394 18.3488 133.811 20.0728 133.811 22.5869C133.811 25.1862 132.237 27.0825 130.095 27.0825ZM129.716 19.81C128.642 19.81 127.659 20.7404 127.659 22.0329V23.4977C127.659 24.6518 128.542 25.5999 129.682 25.5999C131.08 25.5999 131.913 24.4636 131.913 22.6544C131.911 20.9658 131.046 19.81 129.716 19.81Z" fill="#1F2430"/>
<path fill-rule="evenodd" clip-rule="evenodd" d="M136.573 14.677H138.437V26.8925H136.573V14.677Z" fill="#1F2430"/>
<path fill-rule="evenodd" clip-rule="evenodd" d="M148.594 23.1532H142.992C143.03 24.7387 144.08 25.6335 145.635 25.6335C146.466 25.6335 147.226 25.495 147.9 25.2376L148.19 26.5302C147.396 26.8746 146.463 27.0468 145.375 27.0468C142.746 27.0468 141.192 25.3921 141.192 22.8265C141.192 20.2591 142.784 18.3291 145.166 18.3291C147.307 18.3291 148.658 19.9146 148.658 22.3098C148.663 22.6365 148.647 22.9294 148.594 23.1532ZM146.885 21.8269C146.885 20.5343 146.226 19.6217 145.033 19.6217C143.961 19.6217 143.117 20.552 142.992 21.8269H146.885Z" fill="#1F2430"/>
<path fill-rule="evenodd" clip-rule="evenodd" d="M159.904 27.0824C157.451 27.0824 155.861 25.2554 155.861 22.775C155.861 20.1899 157.485 18.3469 160.045 18.3469C162.461 18.3469 164.089 20.0869 164.089 22.6383C164.089 25.2554 162.412 27.0824 159.904 27.0824ZM159.976 19.707C158.628 19.707 157.764 20.964 157.764 22.7218C157.764 24.4458 158.646 25.7029 159.958 25.7029C161.27 25.7029 162.152 24.3588 162.152 22.6863C162.152 20.9818 161.288 19.707 159.976 19.707Z" fill="#1F2430"/>
<path fill-rule="evenodd" clip-rule="evenodd" d="M174.121 26.8925H172.258V22.0844C172.258 20.6037 171.687 19.8615 170.563 19.8615C169.457 19.8615 168.695 20.8096 168.695 21.9122V26.8925H166.833V20.9126C166.833 20.1722 166.811 19.3786 166.762 18.5174H168.403L168.491 19.81H168.544C169.041 18.9152 170.063 18.3452 171.204 18.3452C172.963 18.3452 174.121 19.6893 174.121 21.8767V26.8925Z" fill="#1F2430"/>
<path fill-rule="evenodd" clip-rule="evenodd" d="M186.331 19.9146H184.278V23.9805C184.278 25.0157 184.639 25.5323 185.364 25.5323C185.691 25.5323 185.971 25.4968 186.193 25.4453L186.245 26.8586C185.882 26.9971 185.396 27.0664 184.796 27.0664C183.323 27.0664 182.447 26.2567 182.447 24.1368V19.9146H181.224V18.5191H182.447V16.985L184.278 16.4329V18.5173H186.331V19.9146Z" fill="#1F2430"/>
<path fill-rule="evenodd" clip-rule="evenodd" d="M196.213 26.8925H194.345V22.1199C194.345 20.6214 193.774 19.8633 192.652 19.8633C191.685 19.8633 190.787 20.5184 190.787 21.8447V26.8925H188.92V14.677H190.787V19.707H190.823C191.409 18.7944 192.258 18.3452 193.346 18.3452C195.125 18.3452 196.213 19.723 196.213 21.9122V26.8925Z" fill="#1F2430"/>
<path fill-rule="evenodd" clip-rule="evenodd" d="M205.748 23.1532H200.148C200.184 24.7387 201.234 25.6335 202.791 25.6335C203.624 25.6335 204.382 25.495 205.052 25.2376L205.344 26.5302C204.552 26.8746 203.617 27.0468 202.527 27.0468C199.901 27.0468 198.346 25.3921 198.346 22.8265C198.346 20.2591 199.936 18.3291 202.319 18.3291C204.461 18.3291 205.811 19.9146 205.811 22.3098C205.818 22.6365 205.8 22.9294 205.748 23.1532ZM204.037 21.8269C204.037 20.5343 203.382 19.6217 202.189 19.6217C201.117 19.6217 200.271 20.552 200.148 21.8269H204.037Z" fill="#1F2430"/>
</svg>
