<svg width="17" height="19" viewBox="0 0 17 19" fill="none" xmlns="http://www.w3.org/2000/svg">
<path fill-rule="evenodd" clip-rule="evenodd" d="M7.5 1C7.5 0.447715 7.94772 0 8.5 0C9.05229 0 9.5 0.447715 9.5 1V1.52054C12.5798 1.77461 15 4.35467 15 7.5H14C14 4.73858 11.7614 2.5 9 2.5H8.5C5.46243 2.5 3 4.96243 3 8V9V10.4844C3 11.8923 2.6326 13.2757 1.93412 14.4981L1.36159 15.5H6.5H8.5H10.5H15.6384L15.0659 14.4981L14.0659 12.7481L14.9341 12.2519L15.9341 14.0019L16.9341 15.7519C17.0226 15.9067 17.0219 16.0968 16.9325 16.251C16.843 16.4051 16.6782 16.5 16.5 16.5H10.95C10.7184 17.6411 9.70948 18.5 8.5 18.5C7.29052 18.5 6.28164 17.6411 6.05001 16.5H0.5C0.321765 16.5 0.157006 16.4051 0.067545 16.251C-0.021916 16.0968 -0.022551 15.9067 0.0658784 15.7519L1.06588 14.0019C1.67802 12.9307 2 11.7182 2 10.4844V9V8C2 4.75021 4.38491 2.05745 7.5 1.57645V1ZM9.91465 16.5H8.5H7.08535C7.29127 17.0826 7.84689 17.5 8.5 17.5C9.15311 17.5 9.70873 17.0826 9.91465 16.5ZM15 8.5C15 8.22386 14.7761 8 14.5 8C14.2239 8 14 8.22386 14 8.5V9.5H13C12.7239 9.5 12.5 9.72386 12.5 10C12.5 10.2761 12.7239 10.5 13 10.5H14V11.5C14 11.7761 14.2239 12 14.5 12C14.7761 12 15 11.7761 15 11.5V10.5H16C16.2761 10.5 16.5 10.2761 16.5 10C16.5 9.72386 16.2761 9.5 16 9.5H15V8.5Z" fill="#3A3A3A"/>
</svg>
