<svg width="71" height="70" viewBox="0 0 71 70" fill="none" xmlns="http://www.w3.org/2000/svg">
<g clip-path="url(#clip0_1233_189973)">
<path d="M23.7798 44.4825C27.2814 44.4825 30.6395 43.0915 33.1155 40.6155C35.5915 38.1395 36.9825 34.7814 36.9825 31.2798C36.9825 27.7782 35.5915 24.4201 33.1155 21.9441C30.6395 19.4681 27.2814 18.0771 23.7798 18.0771C20.2782 18.0771 16.9201 19.4681 14.4441 21.9441C11.9681 24.4201 10.5771 27.7782 10.5771 31.2798C10.5771 34.7814 11.9681 38.1395 14.4441 40.6155C16.9201 43.0915 20.2782 44.4825 23.7798 44.4825ZM23.7798 44.4825V58.4618M17.5668 52.2487H29.9928" stroke="#FFD778" stroke-width="3.5" stroke-linecap="round" stroke-linejoin="round"/>
</g>
<path d="M63.5355 5.88965H51.1677C51.0057 5.88965 50.8732 6.02216 50.8732 6.18412V8.93252C50.8732 9.09448 51.0057 9.22699 51.1677 9.22699H59.0399L49.2585 19.0083C46.8046 17.1188 43.8108 16.098 40.6649 16.098C36.8908 16.098 33.3375 17.5703 30.6725 20.2402C28.0075 22.9101 26.5303 26.4585 26.5303 30.2326C26.5303 34.0067 28.0026 37.56 30.6725 40.225C33.3375 42.8949 36.8908 44.3672 40.6649 44.3672C44.439 44.3672 47.9923 42.8949 50.6573 40.225C53.3272 37.56 54.7995 34.0067 54.7995 30.2326C54.7995 27.0867 53.7787 24.1027 51.8941 21.6488L61.6705 11.8723V19.7298C61.6705 19.8918 61.803 20.0243 61.965 20.0243H64.7134C64.8753 20.0243 65.0078 19.8918 65.0078 19.7298V7.362C65.0078 6.55221 64.3453 5.88965 63.5355 5.88965ZM40.6649 40.6372C34.9276 40.6372 30.2602 35.9699 30.2602 30.2326C30.2602 24.4953 34.9276 19.828 40.6649 19.828C46.4022 19.828 51.0695 24.4953 51.0695 30.2326C51.0695 35.9699 46.4022 40.6372 40.6649 40.6372Z" fill="#FFD778"/>
<defs>
<clipPath id="clip0_1233_189973">
<rect width="53.8462" height="53.8462" fill="white" transform="translate(0 16.1538)"/>
</clipPath>
</defs>
</svg>
