<svg width="37" height="33" viewBox="0 0 37 33" fill="none" xmlns="http://www.w3.org/2000/svg">
<path d="M11.2083 20.6875C11.2083 26.7281 16.7581 31.625 23.6042 31.625C25.7243 31.625 27.72 31.1554 29.4651 30.3277L36 31.625L34.0787 26.5391C35.2954 24.8469 36 22.8399 36 20.6875C36 14.6469 30.4502 9.75 23.6042 9.75C16.7581 9.75 11.2083 14.6469 11.2083 20.6875Z" stroke="#C7BBBB" stroke-width="1.24138" stroke-linecap="round" stroke-linejoin="round"/>
<path d="M30.1667 14.125C30.1667 21.3738 23.6375 27.25 15.5833 27.25C13.0891 27.25 10.7412 26.6864 8.68812 25.6932L1 27.25L3.2604 21.1469C1.82892 19.1163 1 16.7078 1 14.125C1 6.87626 7.52918 1 15.5833 1C23.6375 1 30.1667 6.87626 30.1667 14.125Z" fill="#C7BBBB" stroke="#C7BBBB" stroke-width="1.24138" stroke-linecap="round" stroke-linejoin="round"/>
<circle cx="9.74972" cy="15.1805" r="1.50862" fill="black"/>
<circle cx="15.7845" cy="15.1805" r="1.50862" fill="black"/>
<circle cx="21.8193" cy="15.1805" r="1.50862" fill="black"/>
</svg>
