<svg width="8" height="8" viewBox="0 0 8 8" fill="none" xmlns="http://www.w3.org/2000/svg">
<path d="M0.505628 6.56409L2.88255 4.18717L0.505628 1.81025C0.249008 1.55363 0.249008 1.14049 0.505628 0.883871C0.762248 0.627251 1.17539 0.627251 1.43201 0.883871L3.80893 3.26079L6.18584 0.883871C6.44246 0.627251 6.8556 0.627251 7.11222 0.883871C7.36884 1.14049 7.36884 1.55363 7.11222 1.81025L4.7353 4.18717L7.11222 6.56409C7.36884 6.82071 7.36884 7.23385 7.11222 7.49047C6.8556 7.74709 6.44246 7.74709 6.18584 7.49047L3.80893 5.11355L1.43201 7.49047C1.17539 7.74709 0.762248 7.74709 0.505628 7.49047C0.250828 7.23385 0.250828 6.81889 0.505628 6.56409Z" fill="white"/>
</svg>
