<svg width="28" height="28" viewBox="0 0 28 28" fill="none" xmlns="http://www.w3.org/2000/svg">
<path d="M14 0C6.26806 0 0 6.26806 0 14C0 21.7324 6.26806 28 14 28C21.7324 28 28 21.7324 28 14C28 6.26806 21.7324 0 14 0ZM14 26.2776C7.24544 26.2776 1.75 20.7546 1.75 13.9999C1.75 7.24538 7.24544 1.74995 14 1.74995C20.7546 1.74995 26.25 7.24541 26.25 13.9999C26.25 20.7545 20.7546 26.2776 14 26.2776ZM18.9494 9.05056C18.6077 8.70887 18.0539 8.70887 17.7122 9.05056L14 12.7628L10.2878 9.05056C9.94613 8.70887 9.39225 8.70887 9.05013 9.05056C8.70844 9.39225 8.70844 9.94613 9.05013 10.2878L12.7623 14L9.05013 17.7122C8.70844 18.0534 8.70844 18.6082 9.05013 18.9495C9.39181 19.2912 9.94569 19.2912 10.2878 18.9495L14 15.2373L17.7122 18.9495C18.0539 19.2912 18.6077 19.2912 18.9494 18.9495C19.2911 18.6082 19.2911 18.0534 18.9494 17.7122L15.2372 14L18.9494 10.2878C19.2916 9.94569 19.2916 9.39181 18.9494 9.05056Z" fill="#4D4552"/>
</svg>
