<svg width="94" height="94" viewBox="0 0 94 94" fill="none" xmlns="http://www.w3.org/2000/svg">
<path d="M50.9473 17V26.175H45.921V17H50.9473ZM50.3151 68.4871V77H45.2887V68.4871H50.3151ZM52.4331 57.9564C52.4331 56.8003 52.254 55.8439 51.8957 55.0872C51.5374 54.3305 50.9579 53.6684 50.157 53.1009C49.3562 52.5334 48.2919 51.9658 46.9642 51.3983C44.1612 50.2633 41.6849 49.0967 39.5353 47.8986C37.4067 46.7005 35.7313 45.2081 34.509 43.4214C33.3077 41.6348 32.7071 39.3121 32.7071 36.4535C32.7071 33.8471 33.3498 31.577 34.6354 29.6432C35.942 27.7094 37.7334 26.217 40.0095 25.1661C42.3066 24.0941 44.9515 23.5581 47.9442 23.5581C50.2202 23.5581 52.2961 23.8944 54.1718 24.567C56.0474 25.2396 57.6702 26.217 59.04 27.4992C60.4099 28.7604 61.4636 30.3158 62.2013 32.1655C62.9389 33.9942 63.3077 36.0751 63.3077 38.4083H52.6544C52.6544 37.2102 52.5279 36.1802 52.275 35.3184C52.0432 34.4566 51.706 33.7525 51.2634 33.206C50.8209 32.6595 50.3045 32.2601 49.7144 32.0079C49.1243 31.7346 48.4816 31.598 47.7861 31.598C46.7324 31.598 45.8788 31.8292 45.2255 32.2916C44.5722 32.7331 44.098 33.3216 43.803 34.0573C43.5079 34.793 43.3604 35.6127 43.3604 36.5166C43.3604 37.4624 43.5184 38.2927 43.8346 39.0074C44.1718 39.701 44.7408 40.3526 45.5416 40.9622C46.3425 41.5507 47.4384 42.1603 48.8293 42.7909C51.569 43.9469 54.0137 45.145 56.1633 46.3852C58.313 47.6253 59.9989 49.1492 61.2213 50.9569C62.4647 52.7436 63.0864 55.0557 63.0864 57.8933C63.0864 60.6259 62.4436 62.959 61.1581 64.8928C59.8725 66.8056 58.0811 68.2664 55.784 69.2754C53.4868 70.2843 50.8314 70.7888 47.8177 70.7888C45.7945 70.7888 43.7819 70.526 41.7798 70.0005C39.7987 69.475 37.9863 68.6238 36.3425 67.4467C34.7197 66.2486 33.4236 64.6616 32.4542 62.6858C31.4847 60.7099 31 58.2822 31 55.4025H41.6533C41.6533 56.8108 41.8219 57.9879 42.1591 58.9338C42.4963 59.8797 42.9494 60.6364 43.5184 61.2039C44.1085 61.7504 44.7724 62.1498 45.51 62.402C46.2476 62.6332 47.0169 62.7488 47.8177 62.7488C48.8925 62.7488 49.7671 62.5386 50.4415 62.1182C51.1159 61.6768 51.6112 61.0988 51.9273 60.3841C52.2645 59.6485 52.4331 58.8392 52.4331 57.9564Z" fill="#FFD778"/>
</svg>
