<svg width="97" height="83" viewBox="0 0 97 83" fill="none" xmlns="http://www.w3.org/2000/svg">
<g filter="url(#filter0_d_51_5091)">
<rect width="51.0229" height="51.0229" rx="20" transform="matrix(0.867904 -0.496732 0.867904 0.496732 4.84598 52.55)" fill="#54A874"/>
<mask id="mask0_51_5091" style="mask-type:alpha" maskUnits="userSpaceOnUse" x="15" y="33" width="69" height="40">
<rect width="51.0229" height="51.0229" rx="20" transform="matrix(0.867904 -0.496732 0.867904 0.496732 4.84598 52.55)" fill="#54A874"/>
</mask>
<g mask="url(#mask0_51_5091)">
<path d="M24.0069 63.5165L25.6122 62.5977C28.4882 60.9517 33.1511 60.9517 36.0271 62.5977L38.484 64.0039C42.2466 66.1573 42.2466 69.6488 38.484 71.8023V71.8023L24.0069 63.5165Z" fill="#C9EADB"/>
<path d="M45.5206 73.3868L46.8321 69.4951C47.1155 68.6541 48.5365 68.1038 50.006 68.266V68.266C52.4551 68.5364 54.0576 69.8918 53.5852 71.2936L52.6159 74.17L45.5206 73.3868Z" fill="#96AEB8"/>
</g>
<mask id="mask1_51_5091" style="mask-type:alpha" maskUnits="userSpaceOnUse" x="15" y="33" width="69" height="40">
<rect width="51.0229" height="51.0229" rx="20" transform="matrix(0.867904 -0.496732 0.867904 0.496732 4.84598 52.55)" fill="#54A874"/>
</mask>
<g mask="url(#mask1_51_5091)">
<path fill-rule="evenodd" clip-rule="evenodd" d="M26.1861 50.2326C23.1692 49.0157 19.9994 47.237 17.7431 45.3099L13.6645 46.8741C16.1236 48.9744 19.4549 50.8839 22.7217 52.2666C23.5518 53.7479 23.2029 55.3068 22.2508 56.7605C21.2164 58.3398 19.5521 59.6586 18.3952 60.3554L21.9542 62.291C23.1502 61.5706 24.6393 60.4359 25.8515 59.0505C28.1785 59.6414 31.132 60.2542 34.4294 60.7304C37.6976 61.2023 41.3146 61.5416 45.0035 61.5904C49.2496 61.6465 53.6086 61.3177 57.641 60.3541C57.9948 61.1991 58.4058 62.0458 58.8792 62.8912C57.1104 63.3962 55.3315 64.2287 54.4144 65.4525C53.1187 67.1813 53.639 69.5517 57.7984 72.6265L58.7689 72.1965C54.7529 69.2276 54.4926 67.1302 55.5424 65.7294C56.2906 64.7311 57.7524 64.0173 59.27 63.5652C60.3857 65.4243 61.8103 67.2737 63.5987 69.0824L67.8716 67.6985C66.3512 66.1609 65.115 64.5868 64.1248 62.9981C66.9977 61.9586 70.2545 60.0196 71.2243 57.1151L78.2056 55.8319L79.6088 60.1687L80.8157 60.0407L79.2855 55.3114L77.9613 51.219C80.4889 50.6024 83.0937 49.7758 85.7012 48.6904L82.8135 46.4179C78.7113 48.1254 74.6989 49.0779 71.1492 49.5603C70.2147 49.0287 69.376 48.3348 68.6576 47.5918C67.7099 46.6117 67.0093 45.5859 66.5947 44.8321C69.7497 44.5081 73.1701 43.7825 75.553 42.3096L74.6524 41.8323C73.3543 42.6347 71.6866 43.2012 69.8994 43.5914C69.7592 42.4335 68.3987 41.4734 66.8508 40.7658C65.7991 40.2851 64.6083 39.8953 63.516 39.6115C64.2682 38.0979 65.0857 36.81 65.8526 35.8138L61.3597 34.6809C60.7603 35.4595 60.1419 36.3842 59.545 37.4319C56.3489 37.8361 52.9375 37.2579 49.7904 36.2507C46.0945 35.0678 42.8925 33.3319 41.0832 32.0972L40.1428 32.5487C42.0238 33.8323 45.3365 35.63 49.1914 36.8638C52.2485 37.8422 55.7291 38.4908 59.1279 38.1914C57.956 40.4055 56.9095 43.0922 56.3163 46.0654C54.8186 45.8883 53.1223 45.879 51.3311 45.9859C48.5667 46.1508 45.498 46.5975 42.4285 47.1865C42.2372 46.5435 41.697 45.8607 40.974 45.1822C40.0552 44.32 38.7959 43.4233 37.4201 42.562C34.6673 40.8387 31.3938 39.2236 29.2859 38.2626L28.5212 38.812C30.6003 39.76 33.8203 41.3495 36.5142 43.036C37.8616 43.8795 39.064 44.739 39.9261 45.548C40.674 46.2498 41.1334 46.884 41.2482 47.4198C36.3427 48.4173 31.4789 49.7452 27.8592 50.8658C27.2934 50.6651 26.7352 50.4541 26.1861 50.2326ZM63.1866 40.2982C62.6169 41.5301 62.0973 42.8935 61.683 44.3571C62.8685 44.3674 64.2603 44.3278 65.718 44.2028C66.6986 44.1187 67.6998 43.9968 68.6827 43.8279C68.7096 42.8808 67.6354 42.0235 66.0848 41.3147C65.1732 40.898 64.1419 40.5546 63.1866 40.2982ZM61.4949 45.0577C61.1207 46.5311 60.8572 48.0971 60.7574 49.7257C62.778 49.9996 65.9444 50.1315 69.7446 49.73C68.9139 49.1902 68.1924 48.5616 67.5837 47.932C66.5485 46.8614 65.7969 45.7429 65.368 44.9398C63.9682 45.0424 62.6395 45.0722 61.4949 45.0577ZM51.4583 46.6846C53.2422 46.5781 54.8396 46.5982 56.1857 46.7677C55.966 48.0414 55.8318 49.3635 55.8076 50.7202C55.7862 51.9141 55.8501 53.1367 56.0168 54.3783C53.3046 54.5143 49.9578 54.5239 46.3329 54.3006L46.3146 54.2788C45.7097 53.5543 45.1674 52.6368 44.7032 51.6728C44.0372 50.29 43.5433 48.836 43.2557 47.7697C46.1273 47.2317 48.9436 46.8346 51.4583 46.6846ZM43.6533 52.131C44.0211 52.8644 44.4399 53.5777 44.907 54.2016C42.4565 54.012 39.9038 53.7137 37.3532 53.2755C39.111 52.7243 41.3305 52.226 43.6533 52.131ZM43.3245 51.4415C40.4222 51.5918 37.7258 52.2974 35.7818 52.9874C33.509 52.5436 31.2549 51.9833 29.0937 51.2842C32.6968 50.1895 37.3892 48.9319 42.0757 47.9979C42.3429 48.9638 42.766 50.211 43.3245 51.4415ZM76.8004 51.4889C74.736 51.9452 72.7321 52.2638 70.8305 52.4719C71.4784 53.8924 71.6314 55.1817 71.4225 56.3408L77.9803 55.1355L76.8004 51.4889ZM69.6161 52.5913C66.1981 52.8893 63.1579 52.8325 60.7577 52.592C60.8168 53.5348 60.9362 54.4905 61.1246 55.4539C61.5682 57.7218 62.3938 60.03 63.7142 62.3142C66.3593 61.314 69.295 59.4875 70.0797 56.7876C70.4312 55.5785 70.356 54.1825 69.6161 52.5913ZM57.3625 59.6588C57.0441 58.8261 56.7799 57.9958 56.5652 57.1708C53.6934 57.3184 50.1693 57.3403 46.3337 57.1248L45.693 60.8936C49.6704 60.9069 53.6789 60.5611 57.3625 59.6588ZM45.1134 57.0488C42.1159 56.8438 38.9553 56.4914 35.7867 55.9408C35.383 56.4867 35.1475 57.1041 35.0328 57.7262C34.8657 58.6319 34.9617 59.5081 35.1182 60.1044C38.0414 60.5133 41.2235 60.8085 44.4625 60.8782L45.1134 57.0488ZM34.6123 55.7276C32.418 55.3118 30.2291 54.798 28.097 54.1692C28.0587 55.4507 27.5536 56.6694 26.848 57.7468C26.6992 57.974 26.5403 58.1968 26.3734 58.4145C28.4205 58.9335 30.9775 59.4729 33.8366 59.9156C33.7109 59.2923 33.6586 58.485 33.8122 57.6524C33.9298 57.015 34.1712 56.3454 34.6123 55.7276Z" fill="white"/>
</g>
</g>
<g filter="url(#filter1_i_51_5091)">
<path fill-rule="evenodd" clip-rule="evenodd" d="M48.8279 51.7626C48.8279 51.7626 69.0006 34.1163 69.0006 19.9992C69.0006 8.95395 59.969 0 48.8279 0C37.6868 0 28.6552 8.95395 28.6552 19.9992C28.6552 34.7045 48.8279 51.7626 48.8279 51.7626ZM48.8279 12.9407C44.9296 12.9407 41.7081 16.1009 41.7081 19.9992C41.7081 23.8975 44.9296 27.0578 48.8279 27.0578C52.7262 27.0578 55.9477 23.8975 55.9477 19.9992C55.9477 16.1009 52.7262 12.9407 48.8279 12.9407Z" fill="#B58F46"/>
</g>
<defs>
<filter id="filter0_d_51_5091" x="4.84598" y="27.2053" width="88.566" height="54.6895" filterUnits="userSpaceOnUse" color-interpolation-filters="sRGB">
<feFlood flood-opacity="0" result="BackgroundImageFix"/>
<feColorMatrix in="SourceAlpha" type="matrix" values="0 0 0 0 0 0 0 0 0 0 0 0 0 0 0 0 0 0 127 0" result="hardAlpha"/>
<feOffset dy="4"/>
<feComposite in2="hardAlpha" operator="out"/>
<feColorMatrix type="matrix" values="0 0 0 0 0.308889 0 0 0 0 0.579167 0 0 0 0 0.411852 0 0 0 1 0"/>
<feBlend mode="normal" in2="BackgroundImageFix" result="effect1_dropShadow_51_5091"/>
<feBlend mode="normal" in="SourceGraphic" in2="effect1_dropShadow_51_5091" result="shape"/>
</filter>
<filter id="filter1_i_51_5091" x="28.6552" y="0" width="43.3454" height="54.7626" filterUnits="userSpaceOnUse" color-interpolation-filters="sRGB">
<feFlood flood-opacity="0" result="BackgroundImageFix"/>
<feBlend mode="normal" in="SourceGraphic" in2="BackgroundImageFix" result="shape"/>
<feColorMatrix in="SourceAlpha" type="matrix" values="0 0 0 0 0 0 0 0 0 0 0 0 0 0 0 0 0 0 127 0" result="hardAlpha"/>
<feOffset dx="3" dy="3"/>
<feGaussianBlur stdDeviation="2.79167"/>
<feComposite in2="hardAlpha" operator="arithmetic" k2="-1" k3="1"/>
<feColorMatrix type="matrix" values="0 0 0 0 0.645833 0 0 0 0 0.515018 0 0 0 0 0.263715 0 0 0 1 0"/>
<feBlend mode="normal" in2="shape" result="effect1_innerShadow_51_5091"/>
</filter>
</defs>
</svg>
