<svg width="70" height="70" viewBox="0 0 70 70" fill="none" xmlns="http://www.w3.org/2000/svg">
<path d="M0 21C0 17.15 3.15 14 7 14H17.5L24.5 7H45.5L52.5 14H63C64.8565 14 66.637 14.7375 67.9497 16.0503C69.2625 17.363 70 19.1435 70 21V56C70 57.8565 69.2625 59.637 67.9497 60.9497C66.637 62.2625 64.8565 63 63 63H7C5.14348 63 3.36301 62.2625 2.05025 60.9497C0.737498 59.637 0 57.8565 0 56V21ZM35 56C39.6413 56 44.0925 54.1563 47.3744 50.8744C50.6563 47.5925 52.5 43.1413 52.5 38.5C52.5 33.8587 50.6563 29.4075 47.3744 26.1256C44.0925 22.8437 39.6413 21 35 21C30.3587 21 25.9075 22.8437 22.6256 26.1256C19.3437 29.4075 17.5 33.8587 17.5 38.5C17.5 43.1413 19.3437 47.5925 22.6256 50.8744C25.9075 54.1563 30.3587 56 35 56ZM35 49C33.6211 49 32.2557 48.7284 30.9818 48.2007C29.7079 47.6731 28.5504 46.8996 27.5754 45.9246C26.6004 44.9496 25.8269 43.7921 25.2993 42.5182C24.7716 41.2443 24.5 39.8789 24.5 38.5C24.5 37.1211 24.7716 35.7557 25.2993 34.4818C25.8269 33.2079 26.6004 32.0504 27.5754 31.0754C28.5504 30.1004 29.7079 29.3269 30.9818 28.7993C32.2557 28.2716 33.6211 28 35 28C37.7848 28 40.4555 29.1062 42.4246 31.0754C44.3938 33.0445 45.5 35.7152 45.5 38.5C45.5 41.2848 44.3938 43.9555 42.4246 45.9246C40.4555 47.8938 37.7848 49 35 49Z" fill="#C69C48"/>
</svg>
