<svg width="70" height="70" viewBox="0 0 70 70" fill="none" xmlns="http://www.w3.org/2000/svg">
<path d="M52.5 23.3333C52.5 24.8804 51.8854 26.3642 50.7914 27.4581C49.6975 28.5521 48.2137 29.1667 46.6666 29.1667C45.1196 29.1667 43.6358 28.5521 42.5419 27.4581C41.4479 26.3642 40.8333 24.8804 40.8333 23.3333C40.8333 21.7862 41.4479 20.3025 42.5419 19.2085C43.6358 18.1146 45.1196 17.5 46.6666 17.5C48.2137 17.5 49.6975 18.1146 50.7914 19.2085C51.8854 20.3025 52.5 21.7862 52.5 23.3333Z" fill="#C69C48"/>
<path fill-rule="evenodd" clip-rule="evenodd" d="M34.8337 3.64584H35.1662C41.9008 3.64584 47.1771 3.64584 51.2954 4.20001C55.5071 4.76584 58.8321 5.95001 61.4425 8.55751C64.0529 11.1679 65.2341 14.4929 65.8 18.7075C66.3541 22.8229 66.3541 28.0992 66.3541 34.8338V35.0904C66.3541 40.6583 66.3541 45.2142 66.0508 48.9242C65.7475 52.6575 65.1262 55.7696 63.7321 58.3596C63.1196 59.5 62.3612 60.5238 61.4425 61.4425C58.8321 64.0529 55.5071 65.2342 51.2925 65.8C47.1771 66.3542 41.9008 66.3542 35.1662 66.3542H34.8337C28.0991 66.3542 22.8229 66.3542 18.7046 65.8C14.4929 65.2342 11.1679 64.05 8.55748 61.4425C6.24456 59.1296 5.04873 56.2508 4.41581 52.675C3.78873 49.1663 3.67498 44.8 3.65165 39.3808C3.64581 38.0013 3.64581 36.5429 3.64581 35.0029V34.8338C3.64581 28.0992 3.64581 22.8229 4.19998 18.7046C4.76581 14.4929 5.94998 11.1679 8.55748 8.55751C11.1679 5.94709 14.4929 4.76584 18.7075 4.20001C22.8229 3.64584 28.0991 3.64584 34.8337 3.64584ZM19.2879 8.53418C15.5604 9.03584 13.3116 9.99251 11.6521 11.6521C9.98956 13.3146 9.03581 15.5604 8.53415 19.2908C8.02665 23.0825 8.02081 28.0642 8.02081 35V37.4617L10.9404 34.9067C12.221 33.7857 13.8799 33.1933 15.5809 33.2496C17.2819 33.306 18.898 34.0067 20.1016 35.21L32.6141 47.7225C33.5851 48.6933 34.8674 49.2905 36.2353 49.4089C37.6032 49.5273 38.9691 49.1595 40.0925 48.37L40.9616 47.7575C42.5824 46.6186 44.5416 46.0634 46.5189 46.1826C48.4961 46.3018 50.3745 47.0884 51.8466 48.4138L60.1008 55.8425C60.935 54.0983 61.4279 51.8058 61.6904 48.5713C61.9762 45.0567 61.9791 40.6758 61.9791 35C61.9791 28.0642 61.9733 23.0825 61.4658 19.2908C60.9641 15.5604 60.0075 13.3117 58.3479 11.6492C56.6854 9.98959 54.4396 9.03584 50.7091 8.53418C46.9175 8.02668 41.9358 8.02084 35 8.02084C28.0641 8.02084 23.0796 8.02668 19.2879 8.53418Z" fill="#C69C48"/>
</svg>
