<svg width="35" height="50" viewBox="0 0 35 50" fill="none" xmlns="http://www.w3.org/2000/svg">
<path d="M34.2445 19.6233V41.549L18.7241 50L10.4724 45.9307L7.27525 44.3562L0.674316 41.1012V20.1695L7.27525 22.6076L10.8689 23.9336L18.7241 26.8318L34.2445 19.6233Z" fill="url(#paint0_linear_1020_201209)"/>
<path d="M34.2431 20.3557V41.5483L28.4289 44.7146L25.4738 46.3236L18.7227 49.9992V27.0796L25.4718 24.1568L28.7127 22.752L34.2431 20.3557Z" fill="url(#paint1_linear_1020_201209)"/>
<path d="M10.8681 23.9335V24.5338L10.4716 45.9306L7.27441 44.356V22.6074L10.8681 23.9335Z" fill="url(#paint2_linear_1020_201209)"/>
<path style="mix-blend-mode:overlay" opacity="0.4" d="M10.8681 23.9335V24.5338L10.4716 45.9306L7.27441 44.356V22.6074L10.8681 23.9335Z" fill="url(#paint3_linear_1020_201209)"/>
<path d="M28.7136 22.7534L28.4298 44.716L25.4747 46.325L25.698 24.5469L25.4727 24.1582L28.7136 22.7534Z" fill="url(#paint4_linear_1020_201209)"/>
<path style="mix-blend-mode:overlay" opacity="0.3" d="M28.7136 22.7534L28.4298 44.716L25.4747 46.325L25.698 24.5469L25.4727 24.1582L28.7136 22.7534Z" fill="url(#paint5_linear_1020_201209)"/>
<path d="M0 20.3192V13.9053L16.1528 8.6355L34.9601 13.9546V20.5185L18.7238 27.5769L0 20.3192Z" fill="url(#paint6_linear_1020_201209)"/>
<path d="M18.7238 20.42V27.5769L10.4701 24.3785L7.08509 23.0648L0 20.3191V13.9053L7.22492 16.4196L10.6266 17.603L18.7238 20.42Z" fill="url(#paint7_linear_1020_201209)"/>
<path d="M34.9589 13.9548V20.5188L18.7227 27.5772V20.4204L34.9589 13.9548Z" fill="url(#paint8_linear_1020_201209)"/>
<path d="M18.5112 13.984C18.5112 13.984 19.538 14.7344 20.2413 14.7516C20.9446 14.7688 23.0524 14.9164 24.3045 14.7516C24.3045 14.7516 28.3678 12.9039 28.4095 13.984C28.4095 13.984 27.8752 10.2936 27.3556 9.33166C27.3556 9.33166 25.5984 9.13238 23.1797 10.4412C23.1797 10.4412 20.2559 12.065 19.0747 12.5128L18.5133 13.984H18.5112Z" fill="url(#paint9_linear_1020_201209)"/>
<path style="mix-blend-mode:overlay" d="M18.5112 13.984C18.5112 13.984 19.538 14.7344 20.2413 14.7516C20.9446 14.7688 23.0524 14.9164 24.3045 14.7516C24.3045 14.7516 28.3678 12.9039 28.4095 13.984C28.4095 13.984 27.8752 10.2936 27.3556 9.33166C27.3556 9.33166 25.5984 9.13238 23.1797 10.4412C23.1797 10.4412 20.2559 12.065 19.0747 12.5128L18.5133 13.984H18.5112Z" fill="url(#paint10_linear_1020_201209)"/>
<path d="M28.3966 13.9055C28.3966 13.9055 28.6053 14.9585 23.8408 14.7961C23.8408 14.7961 28.1607 12.5622 28.3966 13.9055Z" fill="url(#paint11_linear_1020_201209)"/>
<path d="M26.1326 24.357C26.1534 22.3076 25.9155 17.8915 25.9155 17.8915C25.8842 17.7955 25.8341 17.7045 25.7694 17.6159C25.1851 16.8114 23.3945 16.2923 23.3945 16.2923L17.2485 14.8285L18.4297 13.4753C25.7653 14.3364 28.3927 15.9503 28.9457 16.3489C29.0271 16.408 29.0647 16.4399 29.0647 16.4399L29.3402 22.9596L26.1326 24.3546V24.357Z" fill="url(#paint12_linear_1020_201209)"/>
<path d="M19.0307 3.28174C19.0307 3.28174 18.1124 8.20469 19.0307 10.0105H19.1726L19.2769 3.28174H19.0286H19.0307Z" fill="url(#paint13_linear_1020_201209)"/>
<path d="M8.30811 8.47146C8.30811 8.47146 9.8399 8.0483 12.3421 9.07176V9.33255L8.30811 8.85772V8.469V8.47146Z" fill="url(#paint14_linear_1020_201209)"/>
<path d="M8.30709 8.47021C8.30709 8.47021 8.61595 8.78513 9.8681 8.90076C11.1203 9.01639 12.6103 9.08282 12.6103 9.08282L15.0416 9.34852L14.7473 13.9049C14.7473 13.9049 10.4462 14.1362 8.64726 13.8065C8.64726 13.8065 8.113 13.7228 7.70605 13.4252C7.70605 13.4252 7.90223 10.0103 8.31126 8.47021H8.30709Z" fill="url(#paint15_linear_1020_201209)"/>
<path style="mix-blend-mode:overlay" d="M15.0422 9.34852L14.9692 10.4778L14.7459 13.9074C14.7459 13.9074 14.2471 13.9344 13.5187 13.9566C12.1059 14.0008 9.83325 14.0255 8.64579 13.8065C8.64579 13.8065 8.11154 13.7228 7.70459 13.4252C7.70459 13.4252 7.90076 10.0128 8.30771 8.47021C8.30771 8.47021 8.61657 8.78513 9.86873 8.90076C10.2026 8.93274 10.5553 8.9598 10.8913 8.98195C11.8116 9.04837 12.6109 9.08282 12.6109 9.08282L13.9361 9.22551L15.0422 9.34606V9.34852Z" fill="url(#paint16_linear_1020_201209)"/>
<path d="M18.6676 11.089C18.6676 11.089 19.1455 10.6265 19.0057 9.74575C18.8659 8.86744 18.7761 4.55955 19.0307 3.28268C19.0307 3.28268 19.5671 3.2507 20.5646 3.43275C20.5646 3.43275 21.7166 3.66402 22.5034 3.61481C22.5034 3.61481 23.3757 3.58283 23.3882 3.68124C23.3882 3.68124 23.4154 4.34305 23.2484 5.27302C23.0794 6.20053 23.1086 7.54383 22.9667 8.55499C22.8268 9.56615 21.8836 11.5368 20.8025 12.1519L18.6655 11.3228V11.0915L18.6676 11.089Z" fill="url(#paint17_linear_1020_201209)"/>
<path style="mix-blend-mode:overlay" d="M18.6676 11.089C18.6676 11.089 19.1455 10.6265 19.0057 9.74575C18.8659 8.86744 18.7761 4.55955 19.0307 3.28268C19.0307 3.28268 19.5671 3.2507 20.5646 3.43275C20.5646 3.43275 21.7166 3.66402 22.5034 3.61481C22.5034 3.61481 23.3757 3.58283 23.3882 3.68124C23.3882 3.68124 23.4154 4.34305 23.2484 5.27302C23.0794 6.20053 23.1086 7.54383 22.9667 8.55499C22.8268 9.56615 21.8836 11.5368 20.8025 12.1519L18.6655 11.3228V11.0915L18.6676 11.089Z" fill="url(#paint18_linear_1020_201209)"/>
<path d="M17.2283 10.3258C17.2283 10.3258 14.6989 4.26133 12.9063 2.49487L9.55469 5.85065C9.55469 5.85065 11.9588 9.43031 13.1609 10.872C14.363 12.3137 15.3334 12.8599 16.3017 12.513C16.3017 12.513 16.7859 12.3137 17.4829 12.2399V10.6481L17.2304 10.3258H17.2283Z" fill="url(#paint19_linear_1020_201209)"/>
<path style="mix-blend-mode:overlay" d="M17.4829 10.6479V12.2396C16.7859 12.3159 16.3017 12.5152 16.3017 12.5152C15.6151 12.7612 14.9306 12.5619 14.1626 11.91C13.8433 11.6443 13.5115 11.2974 13.1588 10.8742C11.9567 9.43251 9.55469 5.85285 9.55469 5.85285L12.9063 2.49707C14.6989 4.26353 17.2304 10.328 17.2304 10.328L17.4829 10.6503V10.6479Z" fill="url(#paint20_linear_1020_201209)"/>
<path d="M10.627 17.603C10.3849 19.581 10.4704 24.3785 10.4704 24.3785L7.08545 23.0648V16.7887C7.11258 16.6534 7.16058 16.5303 7.22527 16.4196C7.74074 15.4921 9.30593 15.2781 9.30593 15.2781L10.6708 17.3102C10.6562 17.3988 10.6416 17.4972 10.629 17.603H10.627Z" fill="url(#paint21_linear_1020_201209)"/>
<path d="M19.2443 12.8875C19.2443 12.8875 18.9354 14.5039 17.6979 14.9172C16.4603 15.3305 10.1203 16.1941 7.91438 22.1085C7.91438 22.1085 7.55126 20.625 7.74534 18.6469C7.74534 18.6469 5.94641 19.0775 4.79443 19.7565C4.79443 19.7565 6.03198 17.3873 9.55261 15.1165C9.55261 15.1165 12.9752 12.5972 15.4356 12.1494H17.798L19.2464 12.8875H19.2443Z" fill="url(#paint22_linear_1020_201209)"/>
<path d="M18.7233 12.6162C18.7233 12.6162 20.1007 13.6421 21.6617 14.4048C23.2227 15.1674 26.0568 16.8404 27.0919 18.8947C27.0919 18.8947 28.8157 21.3648 29.3645 24.696C29.3645 24.696 29.857 22.6737 29.8696 21.3993C29.8696 21.3993 30.9673 22.6761 31.3888 24.199C31.3888 24.199 31.5996 21.1163 29.7443 17.6203C27.8891 14.1243 26.1173 13.278 24.6564 12.9631C24.6564 12.9631 19.7918 11.7379 18.7233 11.0908L18.5835 12.6186H18.7233V12.6162Z" fill="url(#paint23_linear_1020_201209)"/>
<path style="mix-blend-mode:overlay" d="M18.7233 12.6162C18.7233 12.6162 20.1007 13.6421 21.6617 14.4048C23.2227 15.1674 26.0568 16.8404 27.0919 18.8947C27.0919 18.8947 28.8157 21.3648 29.3645 24.696C29.3645 24.696 29.857 22.6737 29.8696 21.3993C29.8696 21.3993 30.9673 22.6761 31.3888 24.199C31.3888 24.199 31.5996 21.1163 29.7443 17.6203C27.8891 14.1243 26.1173 13.278 24.6564 12.9631C24.6564 12.9631 19.7918 11.7379 18.7233 11.0908L18.5835 12.6186H18.7233V12.6162Z" fill="url(#paint24_linear_1020_201209)"/>
<path style="mix-blend-mode:overlay" d="M19.2443 12.8875C19.2443 12.8875 18.9354 14.5039 17.6979 14.9172C16.4603 15.3305 10.1203 16.1941 7.91438 22.1085C7.91438 22.1085 7.55126 20.625 7.74534 18.6469C7.74534 18.6469 5.94641 19.0775 4.79443 19.7565C4.79443 19.7565 6.03198 17.3873 9.55261 15.1165C9.55261 15.1165 12.9752 12.5972 15.4356 12.1494H17.798L19.2464 12.8875H19.2443Z" fill="url(#paint25_linear_1020_201209)"/>
<defs>
<linearGradient id="paint0_linear_1020_201209" x1="17.4594" y1="19.242" x2="17.4594" y2="36.3136" gradientUnits="userSpaceOnUse">
<stop offset="0.09" stop-color="#C5136C"/>
<stop offset="1" stop-color="#E8299B"/>
</linearGradient>
<linearGradient id="paint1_linear_1020_201209" x1="26.4839" y1="46.4196" x2="26.4839" y2="22.7963" gradientUnits="userSpaceOnUse">
<stop offset="0.18" stop-color="#FA30A9"/>
<stop offset="0.81" stop-color="#BE0F63"/>
</linearGradient>
<linearGradient id="paint2_linear_1020_201209" x1="9.07125" y1="23.0872" x2="9.07125" y2="43.4236" gradientUnits="userSpaceOnUse">
<stop offset="0.09" stop-color="#BB7317"/>
<stop offset="1" stop-color="#DDA836"/>
</linearGradient>
<linearGradient id="paint3_linear_1020_201209" x1="9.34881" y1="54.7259" x2="8.879" y2="29.6708" gradientUnits="userSpaceOnUse">
<stop stop-color="#231F20" stop-opacity="0"/>
<stop offset="0.03" stop-color="#383435" stop-opacity="0.1"/>
<stop offset="0.11" stop-color="#737171" stop-opacity="0.37"/>
<stop offset="0.19" stop-color="#A5A3A4" stop-opacity="0.59"/>
<stop offset="0.27" stop-color="#CCCBCB" stop-opacity="0.77"/>
<stop offset="0.33" stop-color="#E7E7E7" stop-opacity="0.9"/>
<stop offset="0.39" stop-color="#F8F8F8" stop-opacity="0.97"/>
<stop offset="0.43" stop-color="white"/>
<stop offset="0.64" stop-color="white"/>
<stop offset="0.67" stop-color="#F5F5F5" stop-opacity="0.96"/>
<stop offset="0.72" stop-color="#DCDCDC" stop-opacity="0.84"/>
<stop offset="0.79" stop-color="#B4B3B3" stop-opacity="0.66"/>
<stop offset="0.88" stop-color="#7C7A7A" stop-opacity="0.41"/>
<stop offset="0.98" stop-color="#353233" stop-opacity="0.09"/>
<stop offset="1" stop-color="#231F20" stop-opacity="0"/>
</linearGradient>
<linearGradient id="paint4_linear_1020_201209" x1="27.0921" y1="25.1423" x2="27.0921" y2="43.3777" gradientUnits="userSpaceOnUse">
<stop offset="0.09" stop-color="#CE8423"/>
<stop offset="1" stop-color="#DDA836"/>
</linearGradient>
<linearGradient id="paint5_linear_1020_201209" x1="25.9005" y1="58.1564" x2="27.5403" y2="31.5377" gradientUnits="userSpaceOnUse">
<stop stop-color="#231F20" stop-opacity="0"/>
<stop offset="0.03" stop-color="#383435" stop-opacity="0.1"/>
<stop offset="0.11" stop-color="#737171" stop-opacity="0.37"/>
<stop offset="0.19" stop-color="#A5A3A4" stop-opacity="0.59"/>
<stop offset="0.27" stop-color="#CCCBCB" stop-opacity="0.77"/>
<stop offset="0.33" stop-color="#E7E7E7" stop-opacity="0.9"/>
<stop offset="0.39" stop-color="#F8F8F8" stop-opacity="0.97"/>
<stop offset="0.43" stop-color="white"/>
<stop offset="0.64" stop-color="white"/>
<stop offset="0.67" stop-color="#F5F5F5" stop-opacity="0.96"/>
<stop offset="0.72" stop-color="#DCDCDC" stop-opacity="0.84"/>
<stop offset="0.79" stop-color="#B4B3B3" stop-opacity="0.66"/>
<stop offset="0.88" stop-color="#7C7A7A" stop-opacity="0.41"/>
<stop offset="0.98" stop-color="#353233" stop-opacity="0.09"/>
<stop offset="1" stop-color="#231F20" stop-opacity="0"/>
</linearGradient>
<linearGradient id="paint6_linear_1020_201209" x1="17.48" y1="11.6862" x2="17.48" y2="18.5897" gradientUnits="userSpaceOnUse">
<stop offset="0.09" stop-color="#BE0F63"/>
<stop offset="1" stop-color="#D74E9A"/>
</linearGradient>
<linearGradient id="paint7_linear_1020_201209" x1="9.36192" y1="17.3865" x2="9.36192" y2="21.5812" gradientUnits="userSpaceOnUse">
<stop stop-color="#BE0F63"/>
<stop offset="0.921875" stop-color="#EB2E9F"/>
</linearGradient>
<linearGradient id="paint8_linear_1020_201209" x1="26.8408" y1="25.1416" x2="26.8408" y2="15.8861" gradientUnits="userSpaceOnUse">
<stop offset="0.18" stop-color="#FA30A9"/>
<stop offset="0.81" stop-color="#BE0F63"/>
</linearGradient>
<linearGradient id="paint9_linear_1020_201209" x1="22.3512" y1="13.7084" x2="26.2519" y2="12.4729" gradientUnits="userSpaceOnUse">
<stop offset="0.09" stop-color="#9E6112"/>
<stop offset="1" stop-color="#F6CF53"/>
</linearGradient>
<linearGradient id="paint10_linear_1020_201209" x1="27.5622" y1="11.5705" x2="24.5158" y2="12.226" gradientUnits="userSpaceOnUse">
<stop stop-color="#231F20" stop-opacity="0"/>
<stop offset="0.03" stop-color="#383435" stop-opacity="0.1"/>
<stop offset="0.11" stop-color="#737171" stop-opacity="0.37"/>
<stop offset="0.19" stop-color="#A5A3A4" stop-opacity="0.59"/>
<stop offset="0.27" stop-color="#CCCBCB" stop-opacity="0.77"/>
<stop offset="0.33" stop-color="#E7E7E7" stop-opacity="0.9"/>
<stop offset="0.39" stop-color="#F8F8F8" stop-opacity="0.97"/>
<stop offset="0.43" stop-color="white"/>
<stop offset="0.64" stop-color="white"/>
<stop offset="0.67" stop-color="#F5F5F5" stop-opacity="0.96"/>
<stop offset="0.72" stop-color="#DCDCDC" stop-opacity="0.84"/>
<stop offset="0.79" stop-color="#B4B3B3" stop-opacity="0.66"/>
<stop offset="0.88" stop-color="#7C7A7A" stop-opacity="0.41"/>
<stop offset="0.98" stop-color="#353233" stop-opacity="0.09"/>
<stop offset="1" stop-color="#231F20" stop-opacity="0"/>
</linearGradient>
<linearGradient id="paint11_linear_1020_201209" x1="28.334" y1="16.4346" x2="23.7055" y2="13.2071" gradientUnits="userSpaceOnUse">
<stop offset="0.09" stop-color="#9E6112"/>
<stop offset="1" stop-color="#DDA836"/>
</linearGradient>
<linearGradient id="paint12_linear_1020_201209" x1="23.2943" y1="14.489" x2="23.2943" y2="23.4787" gradientUnits="userSpaceOnUse">
<stop offset="0.09" stop-color="#9E6112"/>
<stop offset="1" stop-color="#DDA836"/>
</linearGradient>
<linearGradient id="paint13_linear_1020_201209" x1="18.6237" y1="6.64736" x2="19.279" y2="6.64736" gradientUnits="userSpaceOnUse">
<stop offset="0.09" stop-color="#9E6112"/>
<stop offset="1" stop-color="#DDA836"/>
</linearGradient>
<linearGradient id="paint14_linear_1020_201209" x1="8.30811" y1="8.85772" x2="12.3421" y2="8.85772" gradientUnits="userSpaceOnUse">
<stop offset="0.09" stop-color="#9E6112"/>
<stop offset="1" stop-color="#DDA836"/>
</linearGradient>
<linearGradient id="paint15_linear_1020_201209" x1="15.3776" y1="11.9121" x2="8.78333" y2="11.385" gradientUnits="userSpaceOnUse">
<stop offset="0.09" stop-color="#9E6112"/>
<stop offset="1" stop-color="#F6CF53"/>
</linearGradient>
<linearGradient id="paint16_linear_1020_201209" x1="7.80476" y1="10.9354" x2="9.37366" y2="11.1151" gradientUnits="userSpaceOnUse">
<stop stop-color="#231F20" stop-opacity="0"/>
<stop offset="0.03" stop-color="#383435" stop-opacity="0.1"/>
<stop offset="0.11" stop-color="#737171" stop-opacity="0.37"/>
<stop offset="0.19" stop-color="#A5A3A4" stop-opacity="0.59"/>
<stop offset="0.27" stop-color="#CCCBCB" stop-opacity="0.77"/>
<stop offset="0.33" stop-color="#E7E7E7" stop-opacity="0.9"/>
<stop offset="0.39" stop-color="#F8F8F8" stop-opacity="0.97"/>
<stop offset="0.43" stop-color="white"/>
<stop offset="0.64" stop-color="white"/>
<stop offset="0.67" stop-color="#F5F5F5" stop-opacity="0.96"/>
<stop offset="0.72" stop-color="#DCDCDC" stop-opacity="0.84"/>
<stop offset="0.79" stop-color="#B4B3B3" stop-opacity="0.66"/>
<stop offset="0.88" stop-color="#7C7A7A" stop-opacity="0.41"/>
<stop offset="0.98" stop-color="#353233" stop-opacity="0.09"/>
<stop offset="1" stop-color="#231F20" stop-opacity="0"/>
</linearGradient>
<linearGradient id="paint17_linear_1020_201209" x1="19.4648" y1="12.7497" x2="21.3678" y2="6.67657" gradientUnits="userSpaceOnUse">
<stop offset="0.09" stop-color="#9E6112"/>
<stop offset="1" stop-color="#F6CF53"/>
</linearGradient>
<linearGradient id="paint18_linear_1020_201209" x1="21.1552" y1="3.12276" x2="20.9813" y2="7.54683" gradientUnits="userSpaceOnUse">
<stop stop-color="#231F20" stop-opacity="0"/>
<stop offset="0.03" stop-color="#383435" stop-opacity="0.1"/>
<stop offset="0.11" stop-color="#737171" stop-opacity="0.37"/>
<stop offset="0.19" stop-color="#A5A3A4" stop-opacity="0.59"/>
<stop offset="0.27" stop-color="#CCCBCB" stop-opacity="0.77"/>
<stop offset="0.33" stop-color="#E7E7E7" stop-opacity="0.9"/>
<stop offset="0.39" stop-color="#F8F8F8" stop-opacity="0.97"/>
<stop offset="0.43" stop-color="white"/>
<stop offset="0.64" stop-color="white"/>
<stop offset="0.67" stop-color="#F5F5F5" stop-opacity="0.96"/>
<stop offset="0.72" stop-color="#DCDCDC" stop-opacity="0.84"/>
<stop offset="0.79" stop-color="#B4B3B3" stop-opacity="0.66"/>
<stop offset="0.88" stop-color="#7C7A7A" stop-opacity="0.41"/>
<stop offset="0.98" stop-color="#353233" stop-opacity="0.09"/>
<stop offset="1" stop-color="#231F20" stop-opacity="0"/>
</linearGradient>
<linearGradient id="paint19_linear_1020_201209" x1="18.4763" y1="14.4295" x2="12.2712" y2="8.07892" gradientUnits="userSpaceOnUse">
<stop offset="0.09" stop-color="#9E6112"/>
<stop offset="1" stop-color="#F6CF53"/>
</linearGradient>
<linearGradient id="paint20_linear_1020_201209" x1="11.1241" y1="4.03472" x2="13.4899" y2="6.38169" gradientUnits="userSpaceOnUse">
<stop stop-color="#231F20" stop-opacity="0"/>
<stop offset="0.03" stop-color="#383435" stop-opacity="0.1"/>
<stop offset="0.11" stop-color="#737171" stop-opacity="0.37"/>
<stop offset="0.19" stop-color="#A5A3A4" stop-opacity="0.59"/>
<stop offset="0.27" stop-color="#CCCBCB" stop-opacity="0.77"/>
<stop offset="0.33" stop-color="#E7E7E7" stop-opacity="0.9"/>
<stop offset="0.39" stop-color="#F8F8F8" stop-opacity="0.97"/>
<stop offset="0.43" stop-color="white"/>
<stop offset="0.64" stop-color="white"/>
<stop offset="0.67" stop-color="#F5F5F5" stop-opacity="0.96"/>
<stop offset="0.72" stop-color="#DCDCDC" stop-opacity="0.84"/>
<stop offset="0.79" stop-color="#B4B3B3" stop-opacity="0.66"/>
<stop offset="0.88" stop-color="#7C7A7A" stop-opacity="0.41"/>
<stop offset="0.98" stop-color="#353233" stop-opacity="0.09"/>
<stop offset="1" stop-color="#231F20" stop-opacity="0"/>
</linearGradient>
<linearGradient id="paint21_linear_1020_201209" x1="8.87811" y1="15.1329" x2="8.87811" y2="23.9677" gradientUnits="userSpaceOnUse">
<stop offset="0.09" stop-color="#9E6112"/>
<stop offset="1" stop-color="#DDA836"/>
</linearGradient>
<linearGradient id="paint22_linear_1020_201209" x1="20.1145" y1="7.97683" x2="7.71099" y2="17.3602" gradientUnits="userSpaceOnUse">
<stop offset="0.14" stop-color="#9E6112"/>
<stop offset="0.32" stop-color="#B17820"/>
<stop offset="1" stop-color="#F6CF53"/>
</linearGradient>
<linearGradient id="paint23_linear_1020_201209" x1="18.5835" y1="17.8909" x2="31.3972" y2="17.8909" gradientUnits="userSpaceOnUse">
<stop offset="0.09" stop-color="#9E6112"/>
<stop offset="1" stop-color="#F6CF53"/>
</linearGradient>
<linearGradient id="paint24_linear_1020_201209" x1="24.7587" y1="16.1343" x2="28.3066" y2="20.5611" gradientUnits="userSpaceOnUse">
<stop stop-color="#231F20" stop-opacity="0"/>
<stop offset="0.03" stop-color="#383435" stop-opacity="0.1"/>
<stop offset="0.11" stop-color="#737171" stop-opacity="0.37"/>
<stop offset="0.19" stop-color="#A5A3A4" stop-opacity="0.59"/>
<stop offset="0.27" stop-color="#CCCBCB" stop-opacity="0.77"/>
<stop offset="0.33" stop-color="#E7E7E7" stop-opacity="0.9"/>
<stop offset="0.39" stop-color="#F8F8F8" stop-opacity="0.97"/>
<stop offset="0.43" stop-color="white"/>
<stop offset="0.64" stop-color="white"/>
<stop offset="0.67" stop-color="#F5F5F5" stop-opacity="0.96"/>
<stop offset="0.72" stop-color="#DCDCDC" stop-opacity="0.84"/>
<stop offset="0.79" stop-color="#B4B3B3" stop-opacity="0.66"/>
<stop offset="0.88" stop-color="#7C7A7A" stop-opacity="0.41"/>
<stop offset="0.98" stop-color="#353233" stop-opacity="0.09"/>
<stop offset="1" stop-color="#231F20" stop-opacity="0"/>
</linearGradient>
<linearGradient id="paint25_linear_1020_201209" x1="11.4851" y1="17.001" x2="8.61819" y2="19.0697" gradientUnits="userSpaceOnUse">
<stop stop-color="#231F20" stop-opacity="0"/>
<stop offset="0.03" stop-color="#383435" stop-opacity="0.1"/>
<stop offset="0.11" stop-color="#737171" stop-opacity="0.37"/>
<stop offset="0.19" stop-color="#A5A3A4" stop-opacity="0.59"/>
<stop offset="0.27" stop-color="#CCCBCB" stop-opacity="0.77"/>
<stop offset="0.33" stop-color="#E7E7E7" stop-opacity="0.9"/>
<stop offset="0.39" stop-color="#F8F8F8" stop-opacity="0.97"/>
<stop offset="0.43" stop-color="white"/>
<stop offset="0.64" stop-color="white"/>
<stop offset="0.67" stop-color="#F5F5F5" stop-opacity="0.96"/>
<stop offset="0.72" stop-color="#DCDCDC" stop-opacity="0.84"/>
<stop offset="0.79" stop-color="#B4B3B3" stop-opacity="0.66"/>
<stop offset="0.88" stop-color="#7C7A7A" stop-opacity="0.41"/>
<stop offset="0.98" stop-color="#353233" stop-opacity="0.09"/>
<stop offset="1" stop-color="#231F20" stop-opacity="0"/>
</linearGradient>
</defs>
</svg>
