<svg width="20" height="20" viewBox="0 0 20 20" fill="none" xmlns="http://www.w3.org/2000/svg">
<path d="M2.42188 8.10522V16.6315C2.42188 17.678 3.27018 18.5263 4.31661 18.5263H15.685C16.7315 18.5263 17.5798 17.678 17.5798 16.6315V8.10522" stroke="#EECD76" stroke-width="2"/>
<path d="M13.7884 18.5262V9.05252C13.7884 8.5293 14.2126 8.10515 14.7358 8.10515H17.5779C18.1011 8.10515 18.5253 7.681 18.5253 7.15778V5.26304C18.5253 4.73983 18.1011 4.31567 17.5779 4.31567H2.42002C1.89681 4.31567 1.47266 4.73982 1.47266 5.26304V7.15778C1.47266 7.681 1.89681 8.10515 2.42002 8.10515H5.26213C5.78535 8.10515 6.2095 8.5293 6.2095 9.05252V18.5262" stroke="#EECD76" stroke-width="2"/>
<path d="M4.96686 2.06745C5.14883 1.70352 5.5208 1.47363 5.92769 1.47363H6.85875C7.65727 1.47363 8.42309 1.79085 8.98773 2.35549L10.0006 3.36837L11.0135 2.35549C11.5781 1.79085 12.344 1.47363 13.1425 1.47363H14.0735C14.4804 1.47363 14.8524 1.70352 15.0344 2.06745V2.06745C15.3576 2.7139 14.9631 3.48866 14.2501 3.60748L10.6236 4.2119C10.2111 4.28065 9.7901 4.28065 9.3776 4.2119L5.75108 3.60748C5.03817 3.48866 4.64364 2.7139 4.96686 2.06745V2.06745Z" stroke="#EECD76" stroke-width="2"/>
</svg>
