<svg width="40" height="40" viewBox="0 0 40 40" fill="none" xmlns="http://www.w3.org/2000/svg">
<circle cx="20" cy="20" r="20" fill="url(#paint0_linear_1020_201207)" fill-opacity="0.6"/>
<path d="M17.1774 28.1073C17.1258 28.1075 17.0747 28.0974 17.027 28.0776C16.9793 28.0578 16.9361 28.0287 16.8998 27.992L12.0065 23.0988C11.9329 23.0251 11.8916 22.9252 11.8916 22.8211C11.8916 22.717 11.9329 22.6171 12.0065 22.5434L24.0563 10.4937C24.0928 10.4571 24.1361 10.4281 24.1838 10.4084C24.2315 10.3886 24.2826 10.3784 24.3343 10.3784C24.3859 10.3784 24.4371 10.3886 24.4848 10.4084C24.5325 10.4281 24.5758 10.4571 24.6123 10.4937L29.5055 15.3869C29.5421 15.4234 29.5711 15.4667 29.5908 15.5144C29.6106 15.5621 29.6208 15.6133 29.6208 15.6649C29.6208 15.7165 29.6106 15.7677 29.5908 15.8154C29.5711 15.8631 29.5421 15.9064 29.5055 15.9429L17.4558 27.9927C17.4192 28.0291 17.3758 28.058 17.328 28.0777C17.2803 28.0974 17.2291 28.1074 17.1774 28.1073ZM12.8395 22.8211L17.1774 27.159L28.6712 15.6646L24.334 11.3306L12.8395 22.8211Z" fill="black"/>
<path d="M29.2277 16.0579C29.1761 16.058 29.1249 16.0479 29.0772 16.0283C29.0294 16.0086 28.986 15.9797 28.9494 15.9433L24.0562 11.05C24.0196 11.0135 23.9906 10.9702 23.9709 10.9225C23.9511 10.8748 23.9409 10.8236 23.9409 10.772C23.9409 10.7204 23.9511 10.6692 23.9709 10.6215C23.9906 10.5738 24.0196 10.5305 24.0562 10.494L25.0188 9.53134C25.5853 8.96612 26.3529 8.64868 27.1531 8.64868C27.9533 8.64868 28.7209 8.96612 29.2873 9.53134L30.4661 10.7101C31.0321 11.2762 31.3501 12.0439 31.3501 12.8444C31.3501 13.6449 31.0321 14.4126 30.4661 14.9786L29.5034 15.9413C29.4305 16.015 29.3314 16.0569 29.2277 16.0579ZM24.8898 10.7717L29.2277 15.1096L29.9127 14.4246C30.1204 14.2173 30.2852 13.9711 30.3976 13.7C30.51 13.429 30.5679 13.1385 30.5679 12.845C30.5679 12.5516 30.51 12.2611 30.3976 11.99C30.2852 11.719 30.1204 11.4728 29.9127 11.2655L28.734 10.0867C28.3149 9.66866 27.7472 9.4339 27.1554 9.4339C26.5635 9.4339 25.9958 9.66866 25.5768 10.0867L24.8898 10.7717Z" fill="black"/>
<path d="M11.0773 30.2701C10.899 30.2735 10.7219 30.2414 10.5563 30.1755C10.3906 30.1096 10.2398 30.0113 10.1126 29.8863C9.71971 29.4934 9.62279 28.8988 9.85069 28.2897L11.9188 22.6853C11.9417 22.6235 11.9797 22.5684 12.0294 22.5252C12.0791 22.4819 12.1389 22.4519 12.2033 22.4378C12.2677 22.4237 12.3345 22.426 12.3978 22.4446C12.461 22.4631 12.5186 22.4972 12.5652 22.5438L17.4584 27.4371C17.505 27.4837 17.5391 27.5412 17.5577 27.6045C17.5762 27.6677 17.5785 27.7346 17.5644 27.7989C17.5504 27.8633 17.5203 27.9231 17.4771 27.9728C17.4338 28.0225 17.3788 28.0606 17.317 28.0834L11.7066 30.1515C11.5054 30.2277 11.2924 30.2679 11.0773 30.2701ZM11.4368 29.4148L11.573 29.7829L11.4368 29.4148L16.4656 27.5589L12.4401 23.5333L10.5842 28.5622C10.4689 28.8752 10.5003 29.1627 10.668 29.331C10.8356 29.4993 11.1238 29.5301 11.4368 29.4148Z" fill="black"/>
<defs>
<linearGradient id="paint0_linear_1020_201207" x1="1.62162" y1="25.4054" x2="40" y2="15.6757" gradientUnits="userSpaceOnUse">
<stop stop-color="#F2D27A"/>
<stop offset="1" stop-color="#8C6D20"/>
</linearGradient>
</defs>
</svg>
