<svg width="40" height="40" viewBox="0 0 40 40" fill="none" xmlns="http://www.w3.org/2000/svg">
<g filter="url(#filter0_di_1021_138753)">
<path fill-rule="evenodd" clip-rule="evenodd" d="M4.99951 3.16589C4.99951 2.77291 5.31808 2.45435 5.71105 2.45435H35.5957C35.9887 2.45435 36.3073 2.77291 36.3073 3.16589C36.3073 3.55886 35.9887 3.87743 35.5957 3.87743H5.71105C5.31808 3.87743 4.99951 3.55886 4.99951 3.16589ZM4.99951 38.7428C4.99951 38.3498 5.31808 38.0312 5.71105 38.0312H35.5957C35.9887 38.0312 36.3073 38.3498 36.3073 38.7428C36.3073 39.1357 35.9887 39.4543 35.5957 39.4543H5.71105C5.31808 39.4543 4.99951 39.1357 4.99951 38.7428ZM8.84626 6.72344C8.84626 6.17115 8.39855 5.72344 7.84626 5.72344C7.29398 5.72344 6.84626 6.17115 6.84626 6.72344V7.73992C6.84626 8.29221 7.29398 8.73992 7.84626 8.73992C8.39855 8.73992 8.84626 8.29221 8.84626 7.73992V6.72344ZM8.84626 9.77289C8.84626 9.22061 8.39855 8.77289 7.84626 8.77289C7.29398 8.77289 6.84626 9.22061 6.84626 9.77289V11.8059C6.84626 12.3581 7.29398 12.8059 7.84626 12.8059C8.39855 12.8059 8.84626 12.3581 8.84626 11.8059V9.77289ZM8.84626 13.8388C8.84626 13.2866 8.39855 12.8388 7.84626 12.8388C7.29398 12.8388 6.84626 13.2866 6.84626 13.8388V15.8718C6.84626 16.4241 7.29398 16.8718 7.84626 16.8718C8.39855 16.8718 8.84626 16.4241 8.84626 15.8718V13.8388ZM8.84626 17.9048C8.84626 17.3525 8.39855 16.9048 7.84626 16.9048C7.29398 16.9048 6.84626 17.3525 6.84626 17.9048V19.9377C6.84626 20.49 7.29398 20.9377 7.84626 20.9377C8.39855 20.9377 8.84626 20.49 8.84626 19.9377V17.9048ZM8.84626 21.9707C8.84626 21.4184 8.39855 20.9707 7.84626 20.9707C7.29398 20.9707 6.84626 21.4184 6.84626 21.9707V24.0037C6.84626 24.556 7.29398 25.0037 7.84626 25.0037C8.39855 25.0037 8.84626 24.556 8.84626 24.0037V21.9707ZM8.84626 26.0367C8.84626 25.4844 8.39855 25.0367 7.84626 25.0367C7.29398 25.0367 6.84626 25.4844 6.84626 26.0367V28.0696C6.84626 28.6219 7.29398 29.0696 7.84626 29.0696C8.39855 29.0696 8.84626 28.6219 8.84626 28.0696V26.0367ZM8.84626 30.1026C8.84626 29.5503 8.39855 29.1026 7.84626 29.1026C7.29398 29.1026 6.84626 29.5503 6.84626 30.1026V32.1356C6.84626 32.6879 7.29398 33.1356 7.84626 33.1356C8.39855 33.1356 8.84626 32.6879 8.84626 32.1356V30.1026ZM8.84626 34.1685C8.84626 33.6163 8.39855 33.1685 7.84626 33.1685C7.29398 33.1685 6.84626 33.6163 6.84626 34.1685V35.185C6.84626 35.7373 7.29398 36.185 7.84626 36.185C8.39855 36.185 8.84626 35.7373 8.84626 35.185V34.1685ZM33.4608 5.72344C34.0131 5.72344 34.4608 6.17115 34.4608 6.72344V7.73992C34.4608 8.29221 34.0131 8.73992 33.4608 8.73992C32.9085 8.73992 32.4608 8.29221 32.4608 7.73992V6.72344C32.4608 6.17115 32.9085 5.72344 33.4608 5.72344ZM33.4608 8.77289C34.0131 8.77289 34.4608 9.22061 34.4608 9.77289V11.8059C34.4608 12.3581 34.0131 12.8059 33.4608 12.8059C32.9085 12.8059 32.4608 12.3581 32.4608 11.8059V9.77289C32.4608 9.22061 32.9085 8.77289 33.4608 8.77289ZM33.4608 12.8388C34.0131 12.8388 34.4608 13.2866 34.4608 13.8388V15.8718C34.4608 16.4241 34.0131 16.8718 33.4608 16.8718C32.9085 16.8718 32.4608 16.4241 32.4608 15.8718V13.8388C32.4608 13.2866 32.9085 12.8388 33.4608 12.8388ZM33.4608 16.9048C34.0131 16.9048 34.4608 17.3525 34.4608 17.9048V19.9377C34.4608 20.49 34.0131 20.9377 33.4608 20.9377C32.9085 20.9377 32.4608 20.49 32.4608 19.9377V17.9048C32.4608 17.3525 32.9085 16.9048 33.4608 16.9048ZM33.4608 20.9707C34.0131 20.9707 34.4608 21.4184 34.4608 21.9707V24.0037C34.4608 24.556 34.0131 25.0037 33.4608 25.0037C32.9085 25.0037 32.4608 24.556 32.4608 24.0037V21.9707C32.4608 21.4184 32.9085 20.9707 33.4608 20.9707ZM33.4608 25.0367C34.0131 25.0367 34.4608 25.4844 34.4608 26.0367V28.0696C34.4608 28.6219 34.0131 29.0696 33.4608 29.0696C32.9085 29.0696 32.4608 28.6219 32.4608 28.0696V26.0367C32.4608 25.4844 32.9085 25.0367 33.4608 25.0367ZM33.4608 29.1026C34.0131 29.1026 34.4608 29.5503 34.4608 30.1026V32.1356C34.4608 32.6879 34.0131 33.1356 33.4608 33.1356C32.9085 33.1356 32.4608 32.6879 32.4608 32.1356V30.1026C32.4608 29.5503 32.9085 29.1026 33.4608 29.1026ZM33.4608 33.1685C34.0131 33.1685 34.4608 33.6163 34.4608 34.1685V35.185C34.4608 35.7373 34.0131 36.185 33.4608 36.185C32.9085 36.185 32.4608 35.7373 32.4608 35.185V34.1685C32.4608 33.6163 32.9085 33.1685 33.4608 33.1685ZM20.6535 6.1224L21.3606 6.8295L21.9197 7.38857C22.1471 7.61596 22.2421 7.92562 22.2046 8.22174C22.5008 8.18433 22.8104 8.27931 23.0378 8.5067L24.1559 9.62484C24.3833 9.85223 24.4783 10.1619 24.4409 10.458C24.737 10.4206 25.0467 10.5156 25.2741 10.743L25.8331 11.302C26.2237 11.6926 26.2237 12.3257 25.8331 12.7163C25.4426 13.1068 24.8095 13.1068 24.4189 12.7163L23.8599 12.1572C23.6325 11.9298 23.5375 11.6201 23.5749 11.324C23.2788 11.3614 22.9691 11.2664 22.7417 11.0391L21.6532 9.9505V33.6582C21.9956 33.6177 22.3498 33.7556 22.5716 34.0514C22.903 34.4932 22.8135 35.12 22.3716 35.4514L21.2535 36.29L20.6535 36.74L20.0535 36.29L18.9354 35.4514C18.4935 35.12 18.404 34.4932 18.7354 34.0514C18.957 33.7558 19.3109 33.6179 19.6532 33.6582V9.95115L18.5653 11.0391C18.3379 11.2664 18.0282 11.3614 17.7321 11.324C17.7695 11.6201 17.6745 11.9298 17.4471 12.1572L16.8881 12.7163C16.4976 13.1068 15.8644 13.1068 15.4739 12.7163C15.0833 12.3257 15.0833 11.6926 15.4739 11.302L16.0329 10.743C16.2603 10.5156 16.57 10.4206 16.8661 10.458C16.8287 10.1619 16.9237 9.85223 17.1511 9.62484L18.2692 8.5067C18.4966 8.27931 18.8062 8.18433 19.1024 8.22174C19.065 7.92562 19.1599 7.61596 19.3873 7.38857L19.931 6.8449C19.9409 6.83453 19.9511 6.82437 19.9615 6.81443L20.6535 6.1224ZM15.381 31.5356C15.7123 31.0937 16.3391 31.0042 16.781 31.3356L17.8991 32.1742C18.3409 32.5055 18.4305 33.1323 18.0991 33.5742C17.7677 34.016 17.1409 34.1055 16.6991 33.7742L15.581 32.9356C15.1391 32.6042 15.0496 31.9774 15.381 31.5356ZM25.926 31.5356C26.2574 31.9774 26.1679 32.6042 25.726 32.9356L24.6079 33.7742C24.1661 34.1055 23.5393 34.016 23.2079 33.5742C22.8765 33.1323 22.9661 32.5055 23.4079 32.1742L24.526 31.3356C24.9679 31.0042 25.5947 31.0937 25.926 31.5356Z" fill="#C79C48"/>
</g>
<defs>
<filter id="filter0_di_1021_138753" x="4.99951" y="0.454346" width="33.3076" height="39.1" filterUnits="userSpaceOnUse" color-interpolation-filters="sRGB">
<feFlood flood-opacity="0" result="BackgroundImageFix"/>
<feColorMatrix in="SourceAlpha" type="matrix" values="0 0 0 0 0 0 0 0 0 0 0 0 0 0 0 0 0 0 127 0" result="hardAlpha"/>
<feOffset dy="0.1"/>
<feComposite in2="hardAlpha" operator="out"/>
<feColorMatrix type="matrix" values="0 0 0 0 0.780392 0 0 0 0 0.611765 0 0 0 0 0.282353 0 0 0 1 0"/>
<feBlend mode="normal" in2="BackgroundImageFix" result="effect1_dropShadow_1021_138753"/>
<feBlend mode="normal" in="SourceGraphic" in2="effect1_dropShadow_1021_138753" result="shape"/>
<feColorMatrix in="SourceAlpha" type="matrix" values="0 0 0 0 0 0 0 0 0 0 0 0 0 0 0 0 0 0 127 0" result="hardAlpha"/>
<feOffset dx="2" dy="-2"/>
<feGaussianBlur stdDeviation="1"/>
<feComposite in2="hardAlpha" operator="arithmetic" k2="-1" k3="1"/>
<feColorMatrix type="matrix" values="0 0 0 0 1 0 0 0 0 0.843137 0 0 0 0 0.470588 0 0 0 1 0"/>
<feBlend mode="normal" in2="shape" result="effect2_innerShadow_1021_138753"/>
</filter>
</defs>
</svg>
