<svg width="30" height="33" viewBox="0 0 30 33" fill="none" xmlns="http://www.w3.org/2000/svg">
<path d="M14.9593 0.000598214C14.6928 0.00960012 14.4361 0.102666 14.2269 0.266197L2.38281 9.49454C0.879564 10.6662 0 12.4566 0 14.3494V30.0825C0 31.2063 0.947005 32.1429 2.08333 32.1429H10.4167C11.553 32.1429 12.5 31.2063 12.5 30.0825V21.8409C12.5 21.5977 12.6708 21.4288 12.9167 21.4288H17.0833C17.3292 21.4288 17.5 21.5977 17.5 21.8409V30.0825C17.5 31.2063 18.447 32.1429 19.5833 32.1429H27.9167C29.053 32.1429 30 31.2063 30 30.0825V14.3494C30 12.4566 29.1204 10.6662 27.6172 9.49454L15.7731 0.266197C15.542 0.0856029 15.2537 -0.00846035 14.9593 0.000598214ZM15 2.81111L26.071 11.4374C26.9744 12.1416 27.5 13.2126 27.5 14.3494V29.6704H20V21.8409C20 20.2626 18.6791 18.9563 17.0833 18.9563H12.9167C11.3209 18.9563 10 20.2626 10 21.8409V29.6704H2.5V14.3494C2.5 13.2126 3.02562 12.1416 3.92904 11.4374L15 2.81111Z" fill="#C7BBBB"/>
</svg>
