<svg width="59" height="80" viewBox="0 0 59 80" fill="none" xmlns="http://www.w3.org/2000/svg">
<g filter="url(#filter0_d_1_41923)">
<path d="M29.0909 16.0264L19.4731 32.8653C20.0334 32.8238 20.5729 32.8342 21.0917 32.8964C21.6312 32.9379 22.1603 33.0105 22.6791 33.1143C24.4428 33.4463 26.0925 34.0584 27.628 34.9507C29.1635 35.8222 30.4916 36.9116 31.6121 38.2189C32.7534 39.5054 33.6456 40.9683 34.2889 42.6076C34.9529 44.2468 35.2849 45.9899 35.2849 47.8367C35.2849 50.0984 34.8491 52.1942 33.9776 54.124C33.1269 56.0538 31.9545 57.7242 30.4604 59.1352C28.9664 60.5462 27.2234 61.6564 25.2314 62.4656C23.2601 63.2542 21.1539 63.6484 18.9129 63.6484C16.7133 63.6484 14.6279 63.2542 12.6567 62.4656C10.7061 61.6564 8.99422 60.567 7.52095 59.1975C6.04768 57.8072 4.87528 56.1679 4.00377 54.2796C3.153 52.3914 2.72762 50.3578 2.72762 48.179C2.72762 47.1415 2.83137 46.1559 3.03888 45.2221C3.24638 44.2676 3.52651 43.3442 3.87927 42.4519C4.23202 41.5389 4.63665 40.6467 5.09316 39.7752C5.54967 38.9036 6.02693 38.0217 6.52493 37.1295L18.197 16.0264H29.0909ZM18.7884 41.6738C17.5226 41.6738 16.371 41.9124 15.3334 42.3897C14.3167 42.8462 13.4763 43.5102 12.8123 44.3817C12.5425 44.9005 12.3143 45.4607 12.1275 46.0625C11.9615 46.6643 11.8785 47.3283 11.8785 48.0545C11.8785 48.7808 12.0134 49.5278 12.2832 50.2956C12.5737 51.0426 13.0094 51.7377 13.5904 52.381C14.1714 53.0035 14.9081 53.5222 15.8003 53.9373C16.6926 54.3315 17.7509 54.5286 18.9751 54.5286C19.8051 54.5286 20.6455 54.3834 21.4963 54.0929C22.3471 53.8024 23.1044 53.3874 23.7685 52.8479C24.4325 52.3084 24.972 51.6443 25.387 50.8558C25.8227 50.0466 26.0406 49.1336 26.0406 48.1168C26.0406 47.1415 25.8435 46.2596 25.4492 45.4711C25.0757 44.6826 24.557 44.0082 23.893 43.448C23.229 42.8877 22.4612 42.4519 21.5897 42.1407C20.7182 41.8294 19.7844 41.6738 18.7884 41.6738Z" fill="#FFD778"/>
<path d="M30.5824 63.9736L40.2002 47.1347C39.6399 47.1762 39.1004 47.1658 38.5817 47.1036C38.0422 47.0621 37.513 46.9895 36.9943 46.8857C35.2305 46.5537 33.5808 45.9416 32.0453 45.0493C30.5098 44.1778 29.1818 43.0884 28.0613 41.7811C26.92 40.4946 26.0277 39.0317 25.3845 37.3924C24.7205 35.7532 24.3884 34.0101 24.3884 32.1633C24.3884 29.9016 24.8242 27.8058 25.6957 25.876C26.5465 23.9462 27.7189 22.2758 29.2129 20.8648C30.7069 19.4538 32.4499 18.3436 34.442 17.5344C36.4133 16.7458 38.5194 16.3516 40.7605 16.3516C42.96 16.3516 45.0454 16.7458 47.0167 17.5344C48.9672 18.3436 50.6791 19.433 52.1524 20.8025C53.6257 22.1928 54.7981 23.8321 55.6696 25.7204C56.5203 27.6086 56.9457 29.6422 56.9457 31.821C56.9457 32.8585 56.842 33.8441 56.6345 34.7779C56.427 35.7324 56.1468 36.6558 55.7941 37.5481C55.4413 38.4611 55.0367 39.3533 54.5802 40.2248C54.1237 41.0964 53.6464 41.9783 53.1484 42.8705L41.4763 63.9736H30.5824ZM40.885 38.3262C42.1507 38.3262 43.3024 38.0876 44.3399 37.6103C45.3567 37.1538 46.197 36.4898 46.8611 35.6183C47.1308 35.0995 47.3591 34.5393 47.5458 33.9375C47.7118 33.3357 47.7948 32.6717 47.7948 31.9455C47.7948 31.2192 47.6599 30.4722 47.3902 29.7044C47.0997 28.9574 46.6639 28.2623 46.0829 27.619C45.5019 26.9965 44.7653 26.4778 43.873 26.0627C42.9807 25.6685 41.9225 25.4714 40.6982 25.4714C39.8682 25.4714 39.0278 25.6166 38.177 25.9071C37.3263 26.1976 36.5689 26.6126 35.9049 27.1521C35.2409 27.6916 34.7014 28.3557 34.2864 29.1442C33.8506 29.9534 33.6327 30.8664 33.6327 31.8832C33.6327 32.8585 33.8298 33.7404 34.2241 34.5289C34.5976 35.3174 35.1164 35.9918 35.7804 36.552C36.4444 37.1123 37.2122 37.5481 38.0837 37.8593C38.9552 38.1706 39.8889 38.3262 40.885 38.3262Z" fill="#FFD778"/>
<path d="M22.9839 7.33069H33.8205L29.9958 14.3426H19.1592L22.9839 7.33069Z" fill="#FFD778"/>
</g>
<defs>
<filter id="filter0_d_1_41923" x="0.67334" y="0" width="58.3267" height="81" filterUnits="userSpaceOnUse" color-interpolation-filters="sRGB">
<feFlood flood-opacity="0" result="BackgroundImageFix"/>
<feColorMatrix in="SourceAlpha" type="matrix" values="0 0 0 0 0 0 0 0 0 0 0 0 0 0 0 0 0 0 127 0" result="hardAlpha"/>
<feOffset dy="1"/>
<feComposite in2="hardAlpha" operator="out"/>
<feColorMatrix type="matrix" values="0 0 0 0 0.780392 0 0 0 0 0.611765 0 0 0 0 0.282353 0 0 0 1 0"/>
<feBlend mode="normal" in2="BackgroundImageFix" result="effect1_dropShadow_1_41923"/>
<feBlend mode="normal" in="SourceGraphic" in2="effect1_dropShadow_1_41923" result="shape"/>
</filter>
</defs>
</svg>
