<svg width="94" height="94" viewBox="0 0 94 94" fill="none" xmlns="http://www.w3.org/2000/svg">
<path fill-rule="evenodd" clip-rule="evenodd" d="M75.058 44.1231C70.4777 48.7033 63.9903 50.2139 58.152 48.6549L57.2703 49.5365L49.923 50.6966L48.7629 58.0439L41.4156 59.204L40.2556 66.5513L32.9083 67.7114L31.7482 75.0587H19.3738V62.6843L45.7775 36.2806C44.2184 30.4422 45.7289 23.9547 50.3092 19.3744C57.1434 12.5402 68.2238 12.5402 75.058 19.3744C81.8921 26.2085 81.8921 37.2889 75.058 44.1231ZM62.6837 25.5625C64.3922 23.8539 67.1623 23.8539 68.8709 25.5625C70.5794 27.271 70.5794 30.0411 68.8709 31.7496C67.1623 33.4582 64.3922 33.4582 62.6837 31.7496C60.9751 30.0411 60.9751 27.271 62.6837 25.5625Z" fill="#FFD778"/>
</svg>
