<svg width="24" height="24" viewBox="0 0 24 24" fill="none" xmlns="http://www.w3.org/2000/svg">
<path fill-rule="evenodd" clip-rule="evenodd" d="M10.2071 4.20707C8.58831 4.58221 7.15723 5.44705 6.07834 6.63709C6.09888 6.64835 6.12014 6.65991 6.14211 6.67176C6.45725 6.84171 6.91783 7.06997 7.4923 7.2986C7.7065 7.38385 7.93599 7.46894 8.17919 7.55097C8.49778 6.78958 8.86806 6.11585 9.2368 5.53968C9.5731 5.01422 9.90951 4.56767 10.2071 4.20707ZM5.44605 7.42932C4.62424 8.60351 4.1087 10.0078 4.01537 11.5263H7.27433C7.3236 10.4206 7.53292 9.40364 7.83071 8.48875C7.57974 8.40351 7.34317 8.31554 7.12251 8.22772C6.5068 7.98267 6.01107 7.73724 5.66745 7.55193C5.58477 7.50734 5.51082 7.46619 5.44605 7.42932ZM4.01537 12.5263C4.1087 14.0448 4.62424 15.4491 5.44605 16.6233C5.51082 16.5864 5.58477 16.5453 5.66745 16.5007C6.01107 16.3154 6.5068 16.07 7.12251 15.8249C7.34317 15.7371 7.57974 15.6491 7.83071 15.5639C7.53292 14.649 7.3236 13.632 7.27433 12.5263H4.01537ZM6.07834 17.4155C7.15724 18.6056 8.58831 19.4704 10.2071 19.8456C9.90951 19.485 9.5731 19.0384 9.2368 18.5129C8.86806 17.9368 8.49778 17.263 8.17919 16.5017C7.93599 16.5837 7.7065 16.6688 7.4923 16.754C6.91783 16.9827 6.45725 17.2109 6.14211 17.3809C6.12014 17.3927 6.09888 17.4043 6.07834 17.4155ZM13.8457 19.8456C15.4644 19.4704 16.8955 18.6056 17.9744 17.4155C17.9538 17.4043 17.9326 17.3927 17.9106 17.3809C17.5955 17.2109 17.1349 16.9827 16.5604 16.754C16.3462 16.6688 16.1167 16.5837 15.8735 16.5017C15.5549 17.263 15.1847 17.9368 14.8159 18.5129C14.4796 19.0384 14.1432 19.485 13.8457 19.8456ZM18.6067 16.6233C19.4285 15.4491 19.944 14.0448 20.0374 12.5263H16.7784C16.7291 13.632 16.5198 14.649 16.222 15.5639C16.473 15.6491 16.7096 15.7371 16.9302 15.8249C17.5459 16.07 18.0417 16.3154 18.3853 16.5007C18.468 16.5453 18.5419 16.5864 18.6067 16.6233ZM20.0374 11.5263C19.944 10.0078 19.4285 8.60351 18.6067 7.42932C18.5419 7.46619 18.468 7.50734 18.3853 7.55193C18.0417 7.73724 17.5459 7.98267 16.9302 8.22772C16.7096 8.31554 16.473 8.40351 16.222 8.48875C16.5198 9.40364 16.7291 10.4206 16.7784 11.5263H20.0374ZM17.9744 6.63709C16.8955 5.44705 15.4644 4.5822 13.8457 4.20707C14.1432 4.56767 14.4796 5.01422 14.8159 5.53968C15.1847 6.11585 15.5549 6.78958 15.8735 7.55097C16.1167 7.46894 16.3462 7.38385 16.5604 7.2986C17.1349 7.06997 17.5955 6.84171 17.9106 6.67176C17.9326 6.65991 17.9538 6.64834 17.9744 6.63709ZM12.0264 3C7.04127 3 3.00005 7.04122 3.00005 12.0263C3.00005 17.0114 7.04127 21.0526 12.0264 21.0526C17.0115 21.0526 21.0527 17.0114 21.0527 12.0263C21.0527 7.04122 17.0115 3 12.0264 3ZM8.27544 11.5263C8.3243 10.5289 8.51609 9.60869 8.78842 8.77742C9.60801 8.99333 10.533 9.15748 11.5264 9.19983V11.5263H8.27544ZM9.14419 7.83659C9.86672 8.02073 10.6704 8.15899 11.5264 8.19883V4.22537C11.467 4.28737 11.4016 4.35737 11.3312 4.43515C10.9909 4.81084 10.5351 5.36617 10.0791 6.07874C9.75247 6.58905 9.42725 7.17757 9.14419 7.83659ZM12.5264 11.5263V9.19983C13.5198 9.15748 14.4447 8.99333 15.2643 8.77742C15.5366 9.60869 15.7284 10.5289 15.7773 11.5263H12.5264ZM12.5264 8.19883C13.3823 8.15899 14.186 8.02073 14.9085 7.83659C14.6255 7.17757 14.3003 6.58905 13.9736 6.07874C13.5176 5.36617 13.0618 4.81084 12.7215 4.43515C12.6511 4.35737 12.5857 4.28737 12.5264 4.22537V8.19883ZM12.5264 12.5263H15.7773C15.7284 13.5237 15.5366 14.4439 15.2643 15.2752C14.4447 15.0593 13.5198 14.8952 12.5264 14.8528V12.5263ZM12.5264 15.8538C13.3823 15.8936 14.186 16.0319 14.9085 16.216C14.6255 16.8751 14.3003 17.4636 13.9736 17.9739C13.5176 18.6865 13.0618 19.2418 12.7215 19.6175C12.6511 19.6953 12.5857 19.7653 12.5264 19.8273V15.8538ZM11.5264 12.5263V14.8528C10.533 14.8952 9.60801 15.0593 8.78842 15.2752C8.51609 14.4439 8.3243 13.5237 8.27544 12.5263H11.5264ZM11.5264 15.8538C10.6704 15.8936 9.86672 16.0319 9.14419 16.216C9.42725 16.8751 9.75247 17.4636 10.0791 17.9739C10.5351 18.6865 10.9909 19.2418 11.3312 19.6175C11.4016 19.6953 11.467 19.7653 11.5264 19.8273V15.8538Z" fill="white"/>
</svg>
