<svg width="30" height="31" viewBox="0 0 30 31" fill="none" xmlns="http://www.w3.org/2000/svg">
<ellipse cx="15" cy="26.8334" rx="15" ry="4.16667" fill="url(#paint0_radial_1073_178124)"/>
<g filter="url(#filter0_d_1073_178124)">
<path fill-rule="evenodd" clip-rule="evenodd" d="M15 26C15 26 22.5 12.6421 22.5 8.5C22.5 4.35786 19.1421 1 15 1C10.8579 1 7.5 4.35786 7.5 8.5C7.5 12.6421 15 26 15 26ZM15.0003 13.4999C17.7617 13.4999 20.0003 11.2613 20.0003 8.49986C20.0003 5.73844 17.7617 3.49986 15.0003 3.49986C12.2389 3.49986 10.0003 5.73844 10.0003 8.49986C10.0003 11.2613 12.2389 13.4999 15.0003 13.4999Z" fill="#FFD778"/>
</g>
<defs>
<filter id="filter0_d_1073_178124" x="7" y="0" width="15.5" height="26" filterUnits="userSpaceOnUse" color-interpolation-filters="sRGB">
<feFlood flood-opacity="0" result="BackgroundImageFix"/>
<feColorMatrix in="SourceAlpha" type="matrix" values="0 0 0 0 0 0 0 0 0 0 0 0 0 0 0 0 0 0 127 0" result="hardAlpha"/>
<feOffset dx="-0.5" dy="-1"/>
<feComposite in2="hardAlpha" operator="out"/>
<feColorMatrix type="matrix" values="0 0 0 0 0.843137 0 0 0 0 0.682353 0 0 0 0 0.278431 0 0 0 1 0"/>
<feBlend mode="normal" in2="BackgroundImageFix" result="effect1_dropShadow_1073_178124"/>
<feBlend mode="normal" in="SourceGraphic" in2="effect1_dropShadow_1073_178124" result="shape"/>
</filter>
<radialGradient id="paint0_radial_1073_178124" cx="0" cy="0" r="1" gradientUnits="userSpaceOnUse" gradientTransform="translate(15 26.8334) rotate(90) scale(4.16667 15)">
<stop stop-color="#C79C48"/>
<stop offset="1" stop-color="#FFD778"/>
</radialGradient>
</defs>
</svg>
