<svg width="209" height="48" viewBox="0 0 209 48" fill="none" xmlns="http://www.w3.org/2000/svg">
<mask id="path-1-inside-1_1565_5940" fill="white">
<path d="M8.06063 12.36C6.86063 12.36 5.87396 12.0133 5.10063 11.32C4.35396 10.6 3.98063 9.72 3.98063 8.68C3.98063 7.61333 4.35396 6.73333 5.10063 6.04C5.87396 5.32 6.86063 4.96 8.06063 4.96C9.23396 4.96 10.194 5.32 10.9406 6.04C11.714 6.73333 12.1006 7.61333 12.1006 8.68C12.1006 9.72 11.714 10.6 10.9406 11.32C10.194 12.0133 9.23396 12.36 8.06063 12.36ZM11.4606 14.68V37H4.62063V14.68H11.4606ZM26.5775 37.28C24.5242 37.28 22.6842 36.9467 21.0575 36.28C19.4308 35.6133 18.1242 34.6267 17.1375 33.32C16.1775 32.0133 15.6708 30.44 15.6175 28.6H22.8975C23.0042 29.64 23.3642 30.44 23.9775 31C24.5908 31.5333 25.3908 31.8 26.3775 31.8C27.3908 31.8 28.1908 31.5733 28.7775 31.12C29.3642 30.64 29.6575 29.9867 29.6575 29.16C29.6575 28.4667 29.4175 27.8933 28.9375 27.44C28.4842 26.9867 27.9108 26.6133 27.2175 26.32C26.5508 26.0267 25.5908 25.6933 24.3375 25.32C22.5242 24.76 21.0442 24.2 19.8975 23.64C18.7508 23.08 17.7642 22.2533 16.9375 21.16C16.1108 20.0667 15.6975 18.64 15.6975 16.88C15.6975 14.2667 16.6442 12.2267 18.5375 10.76C20.4308 9.26667 22.8975 8.52 25.9375 8.52C29.0308 8.52 31.5242 9.26667 33.4175 10.76C35.3108 12.2267 36.3242 14.28 36.4575 16.92H29.0575C29.0042 16.0133 28.6708 15.3067 28.0575 14.8C27.4442 14.2667 26.6575 14 25.6975 14C24.8708 14 24.2042 14.2267 23.6975 14.68C23.1908 15.1067 22.9375 15.7333 22.9375 16.56C22.9375 17.4667 23.3642 18.1733 24.2175 18.68C25.0708 19.1867 26.4042 19.7333 28.2175 20.32C30.0308 20.9333 31.4975 21.52 32.6175 22.08C33.7642 22.64 34.7508 23.4533 35.5775 24.52C36.4042 25.5867 36.8175 26.96 36.8175 28.64C36.8175 30.24 36.4042 31.6933 35.5775 33C34.7775 34.3067 33.6042 35.3467 32.0575 36.12C30.5108 36.8933 28.6842 37.28 26.5775 37.28ZM44.4669 12.36C43.2669 12.36 42.2802 12.0133 41.5069 11.32C40.7602 10.6 40.3869 9.72 40.3869 8.68C40.3869 7.61333 40.7602 6.73333 41.5069 6.04C42.2802 5.32 43.2669 4.96 44.4669 4.96C45.6402 4.96 46.6002 5.32 47.3469 6.04C48.1202 6.73333 48.5069 7.61333 48.5069 8.68C48.5069 9.72 48.1202 10.6 47.3469 11.32C46.6002 12.0133 45.6402 12.36 44.4669 12.36ZM47.8669 14.68V37H41.0269V14.68H47.8669ZM66.0238 37L61.7438 30.8L58.1438 37H50.7438L58.1038 25.6L50.5438 14.68H58.2238L62.5038 20.84L66.1038 14.68H73.5038L66.0238 25.92L73.7038 37H66.0238ZM88.7794 31.2V37H85.2994C82.8194 37 80.886 36.4 79.4994 35.2C78.1127 33.9733 77.4194 31.9867 77.4194 29.24V20.36H74.6994V14.68H77.4194V9.24H84.2594V14.68H88.7394V20.36H84.2594V29.32C84.2594 29.9867 84.4194 30.4667 84.7394 30.76C85.0594 31.0533 85.5927 31.2 86.3394 31.2H88.7794ZM115.389 14.68L101.389 47.6H94.0294L99.1494 36.24L90.0694 14.68H97.7094L102.869 28.64L107.989 14.68H115.389ZM142.983 37H136.143L124.703 19.68V37H117.863V8.92H124.703L136.143 26.32V8.92H142.983V37ZM151.381 12.36C150.181 12.36 149.194 12.0133 148.421 11.32C147.674 10.6 147.301 9.72 147.301 8.68C147.301 7.61333 147.674 6.73333 148.421 6.04C149.194 5.32 150.181 4.96 151.381 4.96C152.554 4.96 153.514 5.32 154.261 6.04C155.034 6.73333 155.421 7.61333 155.421 8.68C155.421 9.72 155.034 10.6 154.261 11.32C153.514 12.0133 152.554 12.36 151.381 12.36ZM154.781 14.68V37H147.941V14.68H154.781ZM173.338 14.44C175.951 14.44 178.031 15.2933 179.578 17C181.151 18.68 181.938 21 181.938 23.96V37H175.138V24.88C175.138 23.3867 174.751 22.2267 173.978 21.4C173.204 20.5733 172.164 20.16 170.858 20.16C169.551 20.16 168.511 20.5733 167.738 21.4C166.964 22.2267 166.578 23.3867 166.578 24.88V37H159.738V14.68H166.578V17.64C167.271 16.6533 168.204 15.88 169.378 15.32C170.551 14.7333 171.871 14.44 173.338 14.44ZM207.731 25.48C207.731 26.12 207.691 26.7867 207.611 27.48H192.131C192.238 28.8667 192.678 29.9333 193.451 30.68C194.251 31.4 195.224 31.76 196.371 31.76C198.078 31.76 199.264 31.04 199.931 29.6H207.211C206.838 31.0667 206.158 32.3867 205.171 33.56C204.211 34.7333 202.998 35.6533 201.531 36.32C200.064 36.9867 198.424 37.32 196.611 37.32C194.424 37.32 192.478 36.8533 190.771 35.92C189.064 34.9867 187.731 33.6533 186.771 31.92C185.811 30.1867 185.331 28.16 185.331 25.84C185.331 23.52 185.798 21.4933 186.731 19.76C187.691 18.0267 189.024 16.6933 190.731 15.76C192.438 14.8267 194.398 14.36 196.611 14.36C198.771 14.36 200.691 14.8133 202.371 15.72C204.051 16.6267 205.358 17.92 206.291 19.6C207.251 21.28 207.731 23.24 207.731 25.48ZM200.731 23.68C200.731 22.5067 200.331 21.5733 199.531 20.88C198.731 20.1867 197.731 19.84 196.531 19.84C195.384 19.84 194.411 20.1733 193.611 20.84C192.838 21.5067 192.358 22.4533 192.171 23.68H200.731Z"/>
</mask>
<path d="M5.10063 11.32L-5.31141 22.1177L-5.11534 22.3067L-4.91254 22.4885L5.10063 11.32ZM5.10063 6.04L15.3074 17.0319L15.3147 17.0252L15.3219 17.0184L5.10063 6.04ZM10.9406 6.04L0.528592 16.8377L0.724652 17.0267L0.927445 17.2085L10.9406 6.04ZM10.9406 11.32L21.1474 22.3119L21.1546 22.3052L21.1619 22.2984L10.9406 11.32ZM11.4606 14.68H26.4606V-0.320001H11.4606V14.68ZM11.4606 37V52H26.4606V37H11.4606ZM4.62063 37H-10.3794V52H4.62063V37ZM4.62063 14.68V-0.320001H-10.3794V14.68H4.62063ZM8.06063 -2.64C8.90829 -2.64 10.0721 -2.51597 11.3929 -2.05191C12.7464 -1.57635 14.0222 -0.82724 15.1138 0.151449L-4.91254 22.4885C-0.963689 26.0289 3.77657 27.36 8.06063 27.36V-2.64ZM15.5127 0.522337C16.4676 1.44317 17.4027 2.69031 18.0694 4.26175C18.7357 5.83235 18.9806 7.36561 18.9806 8.68H-11.0194C-11.0194 13.7806 -8.99863 18.5621 -5.31141 22.1177L15.5127 0.522337ZM18.9806 8.68C18.9806 9.92611 18.7551 11.4617 18.0694 13.0782C17.3769 14.7105 16.3792 16.0367 15.3074 17.0319L-5.10615 -4.9519C-9.06706 -1.2739 -11.0194 3.66255 -11.0194 8.68H18.9806ZM15.3219 17.0184C14.2496 18.0168 12.9648 18.8095 11.5621 19.3213C10.191 19.8216 8.96765 19.96 8.06063 19.96V-10.04C3.62179 -10.04 -1.19061 -8.59742 -5.12065 -4.93841L15.3219 17.0184ZM8.06063 19.96C7.10515 19.96 5.82249 19.8107 4.39377 19.2749C2.93195 18.7268 1.61274 17.8831 0.528592 16.8377L21.3527 -4.75767C17.4365 -8.53395 12.5657 -10.04 8.06063 -10.04V19.96ZM0.927445 17.2085C-0.147421 16.2449 -1.18805 14.9248 -1.92217 13.2541C-2.65197 11.5932 -2.89937 9.99509 -2.89937 8.68H27.1006C27.1006 3.48216 24.997 -1.50359 20.9538 -5.12854L0.927445 17.2085ZM-2.89937 8.68C-2.89937 7.29489 -2.63116 5.69947 -1.92217 4.08589C-1.21555 2.47774 -0.23959 1.23439 0.719345 0.341592L21.1619 22.2984C24.9276 18.7924 27.1006 13.9591 27.1006 8.68H-2.89937ZM0.733869 0.328088C1.84044 -0.699438 3.15317 -1.49814 4.56597 -2.00831C5.9442 -2.50601 7.1661 -2.64 8.06063 -2.64V27.36C12.4052 27.36 17.2063 25.9715 21.1474 22.3119L0.733869 0.328088ZM-3.53937 14.68V37H26.4606V14.68H-3.53937ZM11.4606 22H4.62063V52H11.4606V22ZM19.6206 37V14.68H-10.3794V37H19.6206ZM4.62063 29.68H11.4606V-0.320001H4.62063V29.68ZM21.0575 36.28L15.3691 50.1596H15.3691L21.0575 36.28ZM17.1375 33.32L5.04927 42.2011L5.10756 42.2805L5.16688 42.359L17.1375 33.32ZM15.6175 28.6V13.6H0.176418L0.623797 29.0346L15.6175 28.6ZM22.8975 28.6L37.8192 27.0696L36.4377 13.6H22.8975V28.6ZM23.9775 31L13.8635 42.0773L13.9977 42.1998L14.1348 42.3191L23.9775 31ZM28.7775 31.12L37.9492 42.9893L38.1144 42.8616L38.2761 42.7294L28.7775 31.12ZM28.9375 27.44L18.3309 38.0466L18.4824 38.1981L18.6381 38.3452L28.9375 27.44ZM27.2175 26.32L21.1764 40.0497L21.2744 40.0928L21.3729 40.1345L27.2175 26.32ZM24.3375 25.32L19.9114 39.6521L19.9833 39.6743L20.0554 39.6958L24.3375 25.32ZM19.8975 23.64L13.315 37.1185L19.8975 23.64ZM16.9375 21.16L28.9024 12.1134L28.9024 12.1134L16.9375 21.16ZM18.5375 10.76L27.7235 22.6182L27.7753 22.5781L27.8268 22.5375L18.5375 10.76ZM33.4175 10.76L24.1282 22.5375L24.1797 22.5781L24.2315 22.6182L33.4175 10.76ZM36.4575 16.92V31.92H52.2342L51.4384 16.1634L36.4575 16.92ZM29.0575 16.92L14.0834 17.8008L14.9139 31.92H29.0575V16.92ZM28.0575 14.8L18.2148 26.1191L18.358 26.2436L18.5043 26.3644L28.0575 14.8ZM23.6975 14.68L33.3595 26.1537L33.5317 26.0087L33.6994 25.8586L23.6975 14.68ZM24.2175 18.68L31.8756 5.78218L31.8756 5.78218L24.2175 18.68ZM28.2175 20.32L33.0236 6.11078L32.9294 6.07893L32.8348 6.04833L28.2175 20.32ZM32.6175 22.08L25.9093 35.4964L25.972 35.5278L26.035 35.5585L32.6175 22.08ZM35.5775 24.52L23.7213 33.7086L23.7213 33.7086L35.5775 24.52ZM35.5775 33L22.9013 24.9804L22.8423 25.0736L22.7847 25.1677L35.5775 33ZM32.0575 36.12L25.3493 22.7036L25.3493 22.7036L32.0575 36.12ZM26.5775 22.28C26.3612 22.28 26.288 22.2624 26.3314 22.2702C26.3789 22.2789 26.5284 22.3113 26.7459 22.4004L15.3691 50.1596C19.0777 51.6795 22.8964 52.28 26.5775 52.28V22.28ZM26.7459 22.4004C27.0394 22.5207 27.447 22.7299 27.8965 23.0694C28.3514 23.4128 28.7647 23.8261 29.1081 24.281L5.16688 42.359C7.89498 45.9719 11.4422 48.5502 15.3691 50.1596L26.7459 22.4004ZM29.2257 24.4389C29.7199 25.1115 30.0838 25.8427 30.3154 26.562C30.542 27.2655 30.6015 27.8294 30.6112 28.1654L0.623797 29.0346C0.753026 33.493 2.0482 38.1163 5.04927 42.2011L29.2257 24.4389ZM15.6175 43.6H22.8975V13.6H15.6175V43.6ZM7.97578 30.1304C8.35753 33.8525 9.8792 38.4395 13.8635 42.0773L34.0915 19.9227C36.8491 22.4405 37.6508 25.4275 37.8192 27.0696L7.97578 30.1304ZM14.1348 42.3191C18.0317 45.7076 22.5818 46.8 26.3775 46.8V16.8C28.1999 16.8 31.15 17.359 33.8202 19.6809L14.1348 42.3191ZM26.3775 46.8C29.5075 46.8 33.921 46.102 37.9492 42.9893L19.6058 19.2507C22.4607 17.0447 25.2741 16.8 26.3775 16.8V46.8ZM38.2761 42.7294C42.6888 39.119 44.6575 34.0215 44.6575 29.16H14.6575C14.6575 27.7804 14.9088 26.0075 15.7535 24.1261C16.6149 22.2075 17.8802 20.6551 19.2789 19.5106L38.2761 42.7294ZM44.6575 29.16C44.6575 24.5721 42.882 19.9775 39.2369 16.5348L18.6381 38.3452C17.4514 37.2244 16.3797 35.7669 15.6409 34.0021C14.9089 32.2535 14.6575 30.5722 14.6575 29.16H44.6575ZM39.5441 16.8334C37.5087 14.798 35.2295 13.4225 33.0621 12.5055L21.3729 40.1345C20.5921 39.8042 19.4597 39.1754 18.3309 38.0466L39.5441 16.8334ZM33.2586 12.5903C31.7395 11.9219 30.0816 11.3797 28.6196 10.9442L20.0554 39.6958C20.525 39.8357 20.8581 39.944 21.0773 40.0201C21.3136 40.1022 21.3221 40.1138 21.1764 40.0497L33.2586 12.5903ZM28.7636 10.9879C27.3704 10.5576 26.684 10.2611 26.48 10.1615L13.315 37.1185C15.4043 38.1389 17.6779 38.9624 19.9114 39.6521L28.7636 10.9879ZM26.48 10.1615C27.6056 10.7112 28.4157 11.4697 28.9024 12.1134L4.97261 30.2066C7.11262 33.037 9.89606 35.4488 13.315 37.1185L26.48 10.1615ZM28.9024 12.1134C30.5426 14.2827 30.6975 16.3085 30.6975 16.88H0.6975C0.6975 20.9715 1.67908 25.8507 4.97261 30.2066L28.9024 12.1134ZM30.6975 16.88C30.6975 17.4029 30.5958 18.45 30.0138 19.7041C29.4128 20.9994 28.5458 21.9813 27.7235 22.6182L9.35153 -1.09825C3.42256 3.49462 0.6975 10.114 0.6975 16.88H30.6975ZM27.8268 22.5375C27.2025 23.0299 26.59 23.3045 26.1533 23.4367C25.7512 23.5584 25.6331 23.52 25.9375 23.52V-6.48C20.4219 -6.48 14.4141 -5.09196 9.24822 -1.01749L27.8268 22.5375ZM25.9375 23.52C26.2928 23.52 26.2076 23.5643 25.8243 23.4495C25.4052 23.324 24.7796 23.0512 24.1282 22.5375L42.7068 -1.01749C37.4975 -5.12619 31.4362 -6.48 25.9375 -6.48V23.52ZM24.2315 22.6182C23.4638 22.0235 22.6935 21.1469 22.1463 20.0382C21.6179 18.9675 21.4974 18.0877 21.4766 17.6766L51.4384 16.1634C51.1102 9.66492 48.3389 3.34473 42.6035 -1.09825L24.2315 22.6182ZM36.4575 1.92H29.0575V31.92H36.4575V1.92ZM44.0316 16.0392C43.7717 11.6208 41.9048 6.78283 37.6107 3.23557L18.5043 26.3644C17.1415 25.2386 15.9934 23.7891 15.201 22.1093C14.4289 20.4724 14.1512 18.9536 14.0834 17.8008L44.0316 16.0392ZM37.9002 3.48093C34.0778 0.157062 29.5846 -1 25.6975 -1V29C23.7304 29 20.8106 28.3763 18.2148 26.1191L37.9002 3.48093ZM25.6975 -1C22.0156 -1 17.5173 0.0819652 13.6956 3.50139L33.6994 25.8586C30.8911 28.3714 27.7261 29 25.6975 29V-1ZM14.0355 3.20632C9.32711 7.17125 7.9375 12.5017 7.9375 16.56H37.9375C37.9375 17.6561 37.7711 19.2689 37.0341 21.0918C36.2637 22.9977 35.0164 24.7584 33.3595 26.1537L14.0355 3.20632ZM7.9375 16.56C7.9375 23.3382 11.6743 28.6773 16.5594 31.5778L31.8756 5.78218C33.1467 6.53692 34.8001 7.86654 36.0985 10.017C37.4344 12.2296 37.9375 14.5579 37.9375 16.56H7.9375ZM16.5594 31.5778C18.886 32.9592 21.5067 33.9143 23.6002 34.5917L32.8348 6.04833C32.1829 5.83741 31.7707 5.68261 31.5478 5.59122C31.4417 5.54772 31.4169 5.53424 31.4572 5.55367C31.4929 5.57084 31.644 5.64465 31.8756 5.78218L16.5594 31.5778ZM23.4114 34.5292C24.8752 35.0243 25.6355 35.3595 25.9093 35.4964L39.3257 8.66359C37.3595 7.68046 35.1864 6.84234 33.0236 6.11078L23.4114 34.5292ZM26.035 35.5585C25.0003 35.0532 24.2181 34.3496 23.7213 33.7086L47.4337 15.3314C45.2836 12.5571 42.5281 10.2268 39.2 8.60148L26.035 35.5585ZM23.7213 33.7086C22.0534 31.5565 21.8175 29.4553 21.8175 28.64H51.8175C51.8175 24.4647 50.7549 19.6168 47.4337 15.3314L23.7213 33.7086ZM21.8175 28.64C21.8175 28.1341 21.885 27.5111 22.0797 26.8267C22.2754 26.1385 22.5642 25.5132 22.9013 24.9804L48.2537 41.0196C50.653 37.2271 51.8175 32.9752 51.8175 28.64H21.8175ZM22.7847 25.1677C23.6328 23.7826 24.7169 23.0198 25.3493 22.7036L38.7657 49.5364C42.4914 47.6736 45.9222 44.8307 48.3703 40.8323L22.7847 25.1677ZM25.3493 22.7036C26.2913 22.2326 26.8562 22.28 26.5775 22.28V52.28C30.5122 52.28 34.7304 51.5541 38.7657 49.5364L25.3493 22.7036ZM41.5069 11.32L31.0948 22.1177L31.2909 22.3067L31.4937 22.4885L41.5069 11.32ZM41.5069 6.04L51.7136 17.0319L51.7209 17.0252L51.7282 17.0184L41.5069 6.04ZM47.3469 6.04L36.9348 16.8377L37.1309 17.0267L37.3337 17.2085L47.3469 6.04ZM47.3469 11.32L57.5536 22.3119L57.5609 22.3052L57.5682 22.2984L47.3469 11.32ZM47.8669 14.68H62.8669V-0.320001H47.8669V14.68ZM47.8669 37V52H62.8669V37H47.8669ZM41.0269 37H26.0269V52H41.0269V37ZM41.0269 14.68V-0.320001H26.0269V14.68H41.0269ZM44.4669 -2.64C45.3145 -2.64 46.4784 -2.51597 47.7992 -2.05191C49.1527 -1.57635 50.4284 -0.82724 51.52 0.151449L31.4937 22.4885C35.4426 26.0289 40.1828 27.36 44.4669 27.36V-2.64ZM51.9189 0.522337C52.8738 1.44317 53.8089 2.69031 54.4756 4.26175C55.1419 5.83235 55.3869 7.36561 55.3869 8.68H25.3869C25.3869 13.7806 27.4076 18.5621 31.0948 22.1177L51.9189 0.522337ZM55.3869 8.68C55.3869 9.92611 55.1614 11.4617 54.4756 13.0782C53.7831 14.7105 52.7854 16.0367 51.7136 17.0319L31.3001 -4.9519C27.3392 -1.2739 25.3869 3.66255 25.3869 8.68H55.3869ZM51.7282 17.0184C50.6558 18.0168 49.371 18.8095 47.9683 19.3213C46.5973 19.8216 45.3739 19.96 44.4669 19.96V-10.04C40.028 -10.04 35.2156 -8.59742 31.2856 -4.93841L51.7282 17.0184ZM44.4669 19.96C43.5114 19.96 42.2287 19.8107 40.8 19.2749C39.3382 18.7268 38.019 17.8831 36.9348 16.8377L57.7589 -4.75767C53.8428 -8.53395 48.9719 -10.04 44.4669 -10.04V19.96ZM37.3337 17.2085C36.2588 16.2449 35.2182 14.9248 34.4841 13.2541C33.7543 11.5932 33.5069 9.99509 33.5069 8.68H63.5069C63.5069 3.48216 61.4033 -1.50359 57.3601 -5.12854L37.3337 17.2085ZM33.5069 8.68C33.5069 7.29489 33.7751 5.69947 34.4841 4.08589C35.1907 2.47774 36.1667 1.23439 37.1256 0.341592L57.5682 22.2984C61.3339 18.7924 63.5069 13.9591 63.5069 8.68H33.5069ZM37.1401 0.328088C38.2467 -0.699438 39.5594 -1.49814 40.9722 -2.00831C42.3505 -2.50601 43.5723 -2.64 44.4669 -2.64V27.36C48.8114 27.36 53.6125 25.9715 57.5536 22.3119L37.1401 0.328088ZM32.8669 14.68V37H62.8669V14.68H32.8669ZM47.8669 22H41.0269V52H47.8669V22ZM56.0269 37V14.68H26.0269V37H56.0269ZM41.0269 29.68H47.8669V-0.320001H41.0269V29.68ZM66.0238 37L53.6794 45.5216L58.1516 52H66.0238V37ZM61.7438 30.8L74.0881 22.2784L60.6498 2.81168L48.7719 23.268L61.7438 30.8ZM58.1437 37V52H66.7793L71.1156 44.532L58.1437 37ZM50.7438 37L38.1419 28.8641L23.205 52H50.7438V37ZM58.1038 25.6L70.7056 33.7359L76.1462 25.309L70.4366 17.0618L58.1038 25.6ZM50.5438 14.68V-0.320001H21.9152L38.2109 23.2181L50.5438 14.68ZM58.2238 14.68L70.5422 6.12106L66.0669 -0.320001H58.2238V14.68ZM62.5037 20.84L50.1853 29.3989L63.5957 48.6999L75.4543 28.4085L62.5037 20.84ZM66.1038 14.68V-0.320001H57.4962L53.1532 7.11148L66.1038 14.68ZM73.5038 14.68L85.9913 22.9902L101.504 -0.320001H73.5038V14.68ZM66.0238 25.92L53.5362 17.6098L47.8917 26.0916L53.6957 34.4651L66.0238 25.92ZM73.7038 37V52H102.352L86.0318 28.4549L73.7038 37ZM78.3681 28.4784L74.0881 22.2784L49.3994 39.3216L53.6794 45.5216L78.3681 28.4784ZM48.7719 23.268L45.1719 29.468L71.1156 44.532L74.7156 38.332L48.7719 23.268ZM58.1437 22H50.7438V52H58.1437V22ZM63.3456 45.1359L70.7056 33.7359L45.5019 17.4641L38.1419 28.8641L63.3456 45.1359ZM70.4366 17.0618L62.8766 6.14185L38.2109 23.2181L45.7709 34.1381L70.4366 17.0618ZM50.5438 29.68H58.2238V-0.320001H50.5438V29.68ZM45.9053 23.2389L50.1853 29.3989L74.8222 12.2811L70.5422 6.12106L45.9053 23.2389ZM75.4543 28.4085L79.0543 22.2485L53.1532 7.11148L49.5532 13.2715L75.4543 28.4085ZM66.1038 29.68H73.5038V-0.320001H66.1038V29.68ZM61.0162 6.36975L53.5362 17.6098L78.5113 34.2302L85.9913 22.9902L61.0162 6.36975ZM53.6957 34.4651L61.3757 45.5451L86.0318 28.4549L78.3518 17.3749L53.6957 34.4651ZM73.7038 22H66.0238V52H73.7038V22ZM88.7794 31.2H103.779V16.2H88.7794V31.2ZM88.7794 37V52H103.779V37H88.7794ZM79.4994 35.2L69.5608 46.4349L69.622 46.4891L69.6837 46.5425L79.4994 35.2ZM77.4194 20.36H92.4194V5.36H77.4194V20.36ZM74.6994 20.36H59.6994V35.36H74.6994V20.36ZM74.6994 14.68V-0.320001H59.6994V14.68H74.6994ZM77.4194 14.68V29.68H92.4194V14.68H77.4194ZM77.4194 9.24V-5.76H62.4194V9.24H77.4194ZM84.2594 9.24H99.2594V-5.76H84.2594V9.24ZM84.2594 14.68H69.2594V29.68H84.2594V14.68ZM88.7394 14.68H103.739V-0.320001H88.7394V14.68ZM88.7394 20.36V35.36H103.739V20.36H88.7394ZM84.2594 20.36V5.36H69.2594V20.36H84.2594ZM84.7394 30.76L74.6035 41.8173L74.6035 41.8173L84.7394 30.76ZM73.7794 31.2V37H103.779V31.2H73.7794ZM88.7794 22H85.2994V52H88.7794V22ZM85.2994 22C85.146 22 87.1435 21.9783 89.315 23.8575L69.6837 46.5425C74.6286 50.8217 80.4928 52 85.2994 52V22ZM89.438 23.9651C92.566 26.7322 92.4194 29.7927 92.4194 29.24H62.4194C62.4194 34.1806 63.6594 41.2145 69.5608 46.4349L89.438 23.9651ZM92.4194 29.24V20.36H62.4194V29.24H92.4194ZM77.4194 5.36H74.6994V35.36H77.4194V5.36ZM89.6994 20.36V14.68H59.6994V20.36H89.6994ZM74.6994 29.68H77.4194V-0.320001H74.6994V29.68ZM92.4194 14.68V9.24H62.4194V14.68H92.4194ZM77.4194 24.24H84.2594V-5.76H77.4194V24.24ZM69.2594 9.24V14.68H99.2594V9.24H69.2594ZM84.2594 29.68H88.7394V-0.320001H84.2594V29.68ZM73.7394 14.68V20.36H103.739V14.68H73.7394ZM88.7394 5.36H84.2594V35.36H88.7394V5.36ZM69.2594 20.36V29.32H99.2594V20.36H69.2594ZM69.2594 29.32C69.2594 31.9561 69.8507 37.4605 74.6035 41.8173L94.8753 19.7027C98.9881 23.4728 99.2594 28.0172 99.2594 29.32H69.2594ZM74.6035 41.8173C79.0964 45.9358 84.3281 46.2 86.3394 46.2V16.2C86.8741 16.2 87.9657 16.2444 89.3567 16.6269C90.7722 17.0162 92.867 17.8618 94.8752 19.7027L74.6035 41.8173ZM86.3394 46.2H88.7794V16.2H86.3394V46.2ZM115.389 14.68L129.193 20.5503L138.069 -0.320001H115.389V14.68ZM101.389 47.6V62.6H111.31L115.193 53.4703L101.389 47.6ZM94.0294 47.6L80.3542 41.4365L70.8157 62.6H94.0294V47.6ZM99.1494 36.24L112.825 42.4035L115.511 36.4432L112.973 30.418L99.1494 36.24ZM90.0694 14.68V-0.320001H67.4761L76.2453 20.502L90.0694 14.68ZM97.7094 14.68L111.779 9.47948L108.157 -0.320001H97.7094V14.68ZM102.869 28.64L88.7997 33.8405L102.924 72.0531L116.952 33.805L102.869 28.64ZM107.989 14.68V-0.320001H97.5138L93.9067 9.51499L107.989 14.68ZM101.586 8.80969L87.5858 41.7297L115.193 53.4703L129.193 20.5503L101.586 8.80969ZM101.389 32.6H94.0294V62.6H101.389V32.6ZM107.705 53.7635L112.825 42.4035L85.4742 30.0765L80.3542 41.4365L107.705 53.7635ZM112.973 30.418L103.893 8.858L76.2453 20.502L85.3253 42.062L112.973 30.418ZM90.0694 29.68H97.7094V-0.320001H90.0694V29.68ZM83.6397 19.8805L88.7997 33.8405L116.939 23.4395L111.779 9.47948L83.6397 19.8805ZM116.952 33.805L122.072 19.845L93.9067 9.51499L88.7867 23.475L116.952 33.805ZM107.989 29.68H115.389V-0.320001H107.989V29.68ZM142.983 37V52H157.983V37H142.983ZM136.143 37L123.627 45.2671L128.074 52H136.143V37ZM124.703 19.68L137.219 11.4129L109.703 -30.2462V19.68H124.703ZM124.703 37V52H139.703V37H124.703ZM117.863 37H102.863V52H117.863V37ZM117.863 8.92V-6.08H102.863V8.92H117.863ZM124.703 8.92L137.237 0.679456L132.792 -6.08H124.703V8.92ZM136.143 26.32L123.609 34.5605L151.143 76.4387V26.32H136.143ZM136.143 8.92V-6.08H121.143V8.92H136.143ZM142.983 8.92H157.983V-6.08H142.983V8.92ZM142.983 22H136.143V52H142.983V22ZM148.659 28.7329L137.219 11.4129L112.187 27.9471L123.627 45.2671L148.659 28.7329ZM109.703 19.68V37H139.703V19.68H109.703ZM124.703 22H117.863V52H124.703V22ZM132.863 37V8.92H102.863V37H132.863ZM117.863 23.92H124.703V-6.08H117.863V23.92ZM112.169 17.1605L123.609 34.5605L148.677 18.0795L137.237 0.679456L112.169 17.1605ZM151.143 26.32V8.92H121.143V26.32H151.143ZM136.143 23.92H142.983V-6.08H136.143V23.92ZM127.983 8.92V37H157.983V8.92H127.983ZM148.421 11.32L138.009 22.1177L138.205 22.3067L138.408 22.4885L148.421 11.32ZM148.421 6.04L158.628 17.0319L158.635 17.0252L158.642 17.0184L148.421 6.04ZM154.261 6.04L143.849 16.8377L144.045 17.0267L144.248 17.2085L154.261 6.04ZM154.261 11.32L164.468 22.3119L164.475 22.3052L164.482 22.2984L154.261 11.32ZM154.781 14.68H169.781V-0.320001H154.781V14.68ZM154.781 37V52H169.781V37H154.781ZM147.941 37H132.941V52H147.941V37ZM147.941 14.68V-0.320001H132.941V14.68H147.941ZM151.381 -2.64C152.229 -2.64 153.392 -2.51597 154.713 -2.05191C156.067 -1.57635 157.342 -0.82724 158.434 0.151449L138.408 22.4885C142.357 26.0289 147.097 27.36 151.381 27.36V-2.64ZM158.833 0.522337C159.788 1.44317 160.723 2.69031 161.39 4.26175C162.056 5.83235 162.301 7.36561 162.301 8.68H132.301C132.301 13.7806 134.322 18.5621 138.009 22.1177L158.833 0.522337ZM162.301 8.68C162.301 9.92611 162.075 11.4617 161.39 13.0782C160.697 14.7105 159.699 16.0367 158.628 17.0319L138.214 -4.9519C134.253 -1.2739 132.301 3.66255 132.301 8.68H162.301ZM158.642 17.0184C157.57 18.0168 156.285 18.8095 154.882 19.3213C153.511 19.8216 152.288 19.96 151.381 19.96V-10.04C146.942 -10.04 142.13 -8.59742 138.2 -4.93841L158.642 17.0184ZM151.381 19.96C150.425 19.96 149.143 19.8107 147.714 19.2749C146.252 18.7268 144.933 17.8831 143.849 16.8377L164.673 -4.75767C160.757 -8.53395 155.886 -10.04 151.381 -10.04V19.96ZM144.248 17.2085C143.173 16.2449 142.132 14.9248 141.398 13.2541C140.668 11.5932 140.421 9.99509 140.421 8.68H170.421C170.421 3.48216 168.317 -1.50359 164.274 -5.12854L144.248 17.2085ZM140.421 8.68C140.421 7.29489 140.689 5.69947 141.398 4.08589C142.105 2.47774 143.081 1.23439 144.04 0.341592L164.482 22.2984C168.248 18.7924 170.421 13.9591 170.421 8.68H140.421ZM144.054 0.328088C145.161 -0.699438 146.473 -1.49814 147.886 -2.00831C149.265 -2.50601 150.486 -2.64 151.381 -2.64V27.36C155.725 27.36 160.527 25.9715 164.468 22.3119L144.054 0.328088ZM139.781 14.68V37H169.781V14.68H139.781ZM154.781 22H147.941V52H154.781V22ZM162.941 37V14.68H132.941V37H162.941ZM147.941 29.68H154.781V-0.320001H147.941V29.68ZM179.578 17L168.463 27.0728L168.545 27.1637L168.629 27.2533L179.578 17ZM181.938 37V52H196.938V37H181.938ZM175.138 37H160.138V52H175.138V37ZM173.978 21.4L163.024 31.6474V31.6474L173.978 21.4ZM167.738 21.4L178.692 31.6474L178.692 31.6474L167.738 21.4ZM166.578 37V52H181.578V37H166.578ZM159.738 37H144.738V52H159.738V37ZM159.738 14.68V-0.320001H144.738V14.68H159.738ZM166.578 14.68H181.578V-0.320001H166.578V14.68ZM166.578 17.64H151.578V65.0756L178.851 26.2642L166.578 17.64ZM169.378 15.32L175.839 28.8572L175.963 28.7979L176.086 28.7364L169.378 15.32ZM173.338 29.44C173.005 29.44 172.2 29.3823 171.164 28.9575C170.085 28.5146 169.153 27.834 168.463 27.0728L190.693 6.92721C185.905 1.64419 179.555 -0.56 173.338 -0.56V29.44ZM168.629 27.2533C167.863 26.4348 167.39 25.5478 167.142 24.8168C166.913 24.1409 166.938 23.7881 166.938 23.96H196.938C196.938 18.3201 195.383 11.9328 190.526 6.74666L168.629 27.2533ZM166.938 23.96V37H196.938V23.96H166.938ZM181.938 22H175.138V52H181.938V22ZM190.138 37V24.88H160.138V37H190.138ZM190.138 24.88C190.138 20.8283 189.047 15.5517 184.932 11.1526L163.024 31.6474C160.455 28.9016 160.138 25.945 160.138 24.88H190.138ZM184.932 11.1526C180.876 6.81728 175.615 5.16 170.858 5.16V35.16C169.927 35.16 168.59 35.0104 167.078 34.4094C165.519 33.7898 164.13 32.8295 163.024 31.6474L184.932 11.1526ZM170.858 5.16C166.101 5.16 160.839 6.81728 156.784 11.1526L178.692 31.6474C177.586 32.8295 176.197 33.7898 174.638 34.4094C173.126 35.0104 171.789 35.16 170.858 35.16V5.16ZM156.784 11.1526C152.669 15.5517 151.578 20.8283 151.578 24.88H181.578C181.578 25.945 181.26 28.9016 178.692 31.6474L156.784 11.1526ZM151.578 24.88V37H181.578V24.88H151.578ZM166.578 22H159.738V52H166.578V22ZM174.738 37V14.68H144.738V37H174.738ZM159.738 29.68H166.578V-0.320001H159.738V29.68ZM151.578 14.68V17.64H181.578V14.68H151.578ZM178.851 26.2642C177.946 27.5512 176.805 28.3958 175.839 28.8572L162.917 1.78279C159.604 3.36416 156.596 5.75544 154.305 9.01582L178.851 26.2642ZM176.086 28.7364C174.941 29.3087 173.922 29.44 173.338 29.44V-0.56C169.82 -0.56 166.161 0.157984 162.67 1.90358L176.086 28.7364ZM207.611 27.48V42.48H220.98L222.512 29.1993L207.611 27.48ZM192.131 27.48V12.48H175.933L177.175 28.6304L192.131 27.48ZM193.451 30.68L183.032 41.471L183.221 41.6536L183.416 41.8294L193.451 30.68ZM199.931 29.6V14.6H190.346L186.319 23.2982L199.931 29.6ZM207.211 29.6L221.747 33.3002L226.507 14.6L207.211 14.6V29.6ZM205.171 33.56L193.691 23.906L193.626 23.9833L193.562 24.0614L205.171 33.56ZM201.531 36.32L207.738 49.9755L201.531 36.32ZM190.771 35.92L183.574 49.0806L190.771 35.92ZM186.771 31.92L199.893 24.6525L186.771 31.92ZM186.731 19.76L173.609 12.4925L173.566 12.5702L173.524 12.6485L186.731 19.76ZM190.731 15.76L197.928 28.9206L197.928 28.9206L190.731 15.76ZM202.371 15.72L195.247 28.9203V28.9203L202.371 15.72ZM206.291 19.6L193.179 26.8846L193.222 26.9636L193.267 27.0421L206.291 19.6ZM200.731 23.68V38.68H215.731V23.68H200.731ZM199.531 20.88L209.355 9.54467L209.355 9.54466L199.531 20.88ZM193.611 20.84L184.008 9.31668L183.912 9.39697L183.817 9.47885L193.611 20.84ZM192.171 23.68L177.342 21.4234L174.716 38.68H192.171V23.68ZM192.731 25.48C192.731 25.4967 192.73 25.5875 192.71 25.7607L222.512 29.1993C222.652 27.9859 222.731 26.7433 222.731 25.48H192.731ZM207.611 12.48H192.131V42.48H207.611V12.48ZM177.175 28.6304C177.479 32.5745 178.917 37.4983 183.032 41.471L203.87 19.889C206.438 22.3684 206.997 25.1589 207.087 26.3296L177.175 28.6304ZM183.416 41.8294C187.161 45.1997 191.783 46.76 196.371 46.76V16.76C197.388 16.76 198.64 16.9241 199.984 17.4214C201.344 17.9244 202.528 18.6686 203.485 19.5306L183.416 41.8294ZM196.371 46.76C199.34 46.76 202.898 46.1215 206.322 44.0441C209.816 41.9242 212.142 38.9276 213.543 35.9018L186.319 23.2982C187.053 21.7124 188.453 19.7958 190.76 18.3959C192.997 17.0385 195.109 16.76 196.371 16.76V46.76ZM199.931 44.6H207.211V14.6H199.931V44.6ZM192.674 25.8998C192.866 25.1479 193.243 24.4386 193.691 23.906L216.651 43.214C219.073 40.3347 220.809 36.9855 221.747 33.3002L192.674 25.8998ZM193.562 24.0614C194.15 23.3419 194.829 22.8893 195.324 22.6645L207.738 49.9755C211.166 48.4173 214.272 46.1248 216.78 43.0586L193.562 24.0614ZM195.324 22.6645C196.038 22.34 196.553 22.32 196.611 22.32V52.32C200.296 52.32 204.091 51.6334 207.738 49.9755L195.324 22.6645ZM196.611 22.32C196.588 22.32 196.736 22.3181 197.008 22.3833C197.288 22.4504 197.623 22.5707 197.968 22.7594L183.574 49.0806C187.75 51.3644 192.226 52.32 196.611 52.32V22.32ZM197.968 22.7594C198.327 22.9558 198.723 23.2393 199.098 23.6134C199.47 23.9861 199.729 24.3565 199.893 24.6525L173.649 39.1875C175.959 43.3578 179.325 46.7571 183.574 49.0806L197.968 22.7594ZM199.893 24.6525C200.109 25.0426 200.228 25.393 200.287 25.643C200.344 25.8824 200.331 25.9661 200.331 25.84H170.331C170.331 30.2659 171.262 34.8769 173.649 39.1875L199.893 24.6525ZM200.331 25.84C200.331 25.6845 200.347 25.7369 200.298 25.9459C200.248 26.1649 200.142 26.4935 199.938 26.8715L173.524 12.6485C171.22 16.9271 170.331 21.4811 170.331 25.84H200.331ZM199.853 27.0275C199.689 27.3235 199.43 27.6939 199.058 28.0666C198.683 28.4408 198.287 28.7242 197.928 28.9206L183.534 2.59943C179.285 4.92286 175.919 8.32222 173.609 12.4925L199.853 27.0275ZM197.928 28.9206C197.568 29.1173 197.228 29.2372 196.955 29.3021C196.692 29.3649 196.561 29.36 196.611 29.36V-0.640002C192.233 -0.640002 187.736 0.301273 183.534 2.59943L197.928 28.9206ZM196.611 29.36C196.639 29.36 196.495 29.3625 196.224 29.2986C195.945 29.2328 195.604 29.1131 195.247 28.9203L209.495 2.51967C205.352 0.28386 200.927 -0.640002 196.611 -0.640002V29.36ZM195.247 28.9203C194.878 28.721 194.46 28.4278 194.059 28.0309C193.658 27.6345 193.37 27.2291 193.179 26.8846L219.403 12.3153C217.089 8.15014 213.713 4.7959 209.495 2.51967L195.247 28.9203ZM193.267 27.0421C193.025 26.6179 192.88 26.2166 192.801 25.898C192.726 25.5903 192.731 25.4322 192.731 25.48H222.731C222.731 21.0457 221.762 16.4402 219.315 12.1579L193.267 27.0421ZM215.731 23.68C215.731 18.6854 213.822 13.4162 209.355 9.54467L189.707 32.2153C188.468 31.1411 187.376 29.7168 186.644 28.0088C185.929 26.3405 185.731 24.8115 185.731 23.68H215.731ZM209.355 9.54466C205.463 6.17166 200.826 4.84 196.531 4.84V34.84C195.679 34.84 194.544 34.7149 193.268 34.2725C191.965 33.8209 190.748 33.1178 189.707 32.2153L209.355 9.54466ZM196.531 4.84C192.255 4.84 187.782 6.17206 184.008 9.31668L203.214 32.3633C202.226 33.1863 201.066 33.8476 199.801 34.2809C198.555 34.7076 197.423 34.84 196.531 34.84V4.84ZM183.817 9.47885C179.781 12.958 177.946 17.452 177.342 21.4234L207 25.9366C206.769 27.4547 205.894 30.0553 203.405 32.2011L183.817 9.47885ZM192.171 38.68H200.731V8.68H192.171V38.68Z" fill="#3D2009" mask="url(#path-1-inside-1_1565_5940)"/>
<mask id="path-3-inside-2_1565_5940" fill="white">
<path d="M6.06063 9.36C4.86063 9.36 3.87396 9.01333 3.10063 8.32C2.35396 7.6 1.98063 6.72 1.98063 5.68C1.98063 4.61333 2.35396 3.73333 3.10063 3.04C3.87396 2.32 4.86063 1.96 6.06063 1.96C7.23396 1.96 8.19396 2.32 8.94063 3.04C9.71396 3.73333 10.1006 4.61333 10.1006 5.68C10.1006 6.72 9.71396 7.6 8.94063 8.32C8.19396 9.01333 7.23396 9.36 6.06063 9.36ZM9.46063 11.68V34H2.62063V11.68H9.46063ZM24.5775 34.28C22.5242 34.28 20.6842 33.9467 19.0575 33.28C17.4308 32.6133 16.1242 31.6267 15.1375 30.32C14.1775 29.0133 13.6708 27.44 13.6175 25.6H20.8975C21.0042 26.64 21.3642 27.44 21.9775 28C22.5908 28.5333 23.3908 28.8 24.3775 28.8C25.3908 28.8 26.1908 28.5733 26.7775 28.12C27.3642 27.64 27.6575 26.9867 27.6575 26.16C27.6575 25.4667 27.4175 24.8933 26.9375 24.44C26.4842 23.9867 25.9108 23.6133 25.2175 23.32C24.5508 23.0267 23.5908 22.6933 22.3375 22.32C20.5242 21.76 19.0442 21.2 17.8975 20.64C16.7508 20.08 15.7642 19.2533 14.9375 18.16C14.1108 17.0667 13.6975 15.64 13.6975 13.88C13.6975 11.2667 14.6442 9.22667 16.5375 7.76C18.4308 6.26667 20.8975 5.52 23.9375 5.52C27.0308 5.52 29.5242 6.26667 31.4175 7.76C33.3108 9.22667 34.3242 11.28 34.4575 13.92H27.0575C27.0042 13.0133 26.6708 12.3067 26.0575 11.8C25.4442 11.2667 24.6575 11 23.6975 11C22.8708 11 22.2042 11.2267 21.6975 11.68C21.1908 12.1067 20.9375 12.7333 20.9375 13.56C20.9375 14.4667 21.3642 15.1733 22.2175 15.68C23.0708 16.1867 24.4042 16.7333 26.2175 17.32C28.0308 17.9333 29.4975 18.52 30.6175 19.08C31.7642 19.64 32.7508 20.4533 33.5775 21.52C34.4042 22.5867 34.8175 23.96 34.8175 25.64C34.8175 27.24 34.4042 28.6933 33.5775 30C32.7775 31.3067 31.6042 32.3467 30.0575 33.12C28.5108 33.8933 26.6842 34.28 24.5775 34.28ZM42.4669 9.36C41.2669 9.36 40.2802 9.01333 39.5069 8.32C38.7602 7.6 38.3869 6.72 38.3869 5.68C38.3869 4.61333 38.7602 3.73333 39.5069 3.04C40.2802 2.32 41.2669 1.96 42.4669 1.96C43.6402 1.96 44.6002 2.32 45.3469 3.04C46.1202 3.73333 46.5069 4.61333 46.5069 5.68C46.5069 6.72 46.1202 7.6 45.3469 8.32C44.6002 9.01333 43.6402 9.36 42.4669 9.36ZM45.8669 11.68V34H39.0269V11.68H45.8669ZM64.0238 34L59.7438 27.8L56.1438 34H48.7438L56.1038 22.6L48.5438 11.68H56.2238L60.5038 17.84L64.1038 11.68H71.5038L64.0238 22.92L71.7038 34H64.0238ZM86.7794 28.2V34H83.2994C80.8194 34 78.886 33.4 77.4994 32.2C76.1127 30.9733 75.4194 28.9867 75.4194 26.24V17.36H72.6994V11.68H75.4194V6.24H82.2594V11.68H86.7394V17.36H82.2594V26.32C82.2594 26.9867 82.4194 27.4667 82.7394 27.76C83.0594 28.0533 83.5927 28.2 84.3394 28.2H86.7794ZM113.389 11.68L99.3894 44.6H92.0294L97.1494 33.24L88.0694 11.68H95.7094L100.869 25.64L105.989 11.68H113.389ZM140.983 34H134.143L122.703 16.68V34H115.863V5.92H122.703L134.143 23.32V5.92H140.983V34ZM149.381 9.36C148.181 9.36 147.194 9.01333 146.421 8.32C145.674 7.6 145.301 6.72 145.301 5.68C145.301 4.61333 145.674 3.73333 146.421 3.04C147.194 2.32 148.181 1.96 149.381 1.96C150.554 1.96 151.514 2.32 152.261 3.04C153.034 3.73333 153.421 4.61333 153.421 5.68C153.421 6.72 153.034 7.6 152.261 8.32C151.514 9.01333 150.554 9.36 149.381 9.36ZM152.781 11.68V34H145.941V11.68H152.781ZM171.338 11.44C173.951 11.44 176.031 12.2933 177.578 14C179.151 15.68 179.938 18 179.938 20.96V34H173.138V21.88C173.138 20.3867 172.751 19.2267 171.978 18.4C171.204 17.5733 170.164 17.16 168.858 17.16C167.551 17.16 166.511 17.5733 165.738 18.4C164.964 19.2267 164.578 20.3867 164.578 21.88V34H157.738V11.68H164.578V14.64C165.271 13.6533 166.204 12.88 167.378 12.32C168.551 11.7333 169.871 11.44 171.338 11.44ZM205.731 22.48C205.731 23.12 205.691 23.7867 205.611 24.48H190.131C190.238 25.8667 190.678 26.9333 191.451 27.68C192.251 28.4 193.224 28.76 194.371 28.76C196.078 28.76 197.264 28.04 197.931 26.6H205.211C204.838 28.0667 204.158 29.3867 203.171 30.56C202.211 31.7333 200.998 32.6533 199.531 33.32C198.064 33.9867 196.424 34.32 194.611 34.32C192.424 34.32 190.478 33.8533 188.771 32.92C187.064 31.9867 185.731 30.6533 184.771 28.92C183.811 27.1867 183.331 25.16 183.331 22.84C183.331 20.52 183.798 18.4933 184.731 16.76C185.691 15.0267 187.024 13.6933 188.731 12.76C190.438 11.8267 192.398 11.36 194.611 11.36C196.771 11.36 198.691 11.8133 200.371 12.72C202.051 13.6267 203.358 14.92 204.291 16.6C205.251 18.28 205.731 20.24 205.731 22.48ZM198.731 20.68C198.731 19.5067 198.331 18.5733 197.531 17.88C196.731 17.1867 195.731 16.84 194.531 16.84C193.384 16.84 192.411 17.1733 191.611 17.84C190.838 18.5067 190.358 19.4533 190.171 20.68H198.731Z"/>
</mask>
<path d="M3.10063 8.32L-7.31141 19.1177L-7.11534 19.3067L-6.91254 19.4885L3.10063 8.32ZM3.10063 3.04L13.3074 14.0319L13.3147 14.0252L13.3219 14.0184L3.10063 3.04ZM8.94063 3.04L-1.47141 13.8377L-1.27535 14.0267L-1.07255 14.2085L8.94063 3.04ZM8.94063 8.32L19.1474 19.3119L19.1546 19.3052L19.1619 19.2984L8.94063 8.32ZM9.46063 11.68H24.4606V-3.32H9.46063V11.68ZM9.46063 34V49H24.4606V34H9.46063ZM2.62063 34H-12.3794V49H2.62063V34ZM2.62063 11.68V-3.32H-12.3794V11.68H2.62063ZM6.06063 -5.64C6.90829 -5.64 8.0721 -5.51597 9.39291 -5.05191C10.7464 -4.57635 12.0222 -3.82724 13.1138 -2.84855L-6.91254 19.4885C-2.96369 23.0289 1.77657 24.36 6.06063 24.36V-5.64ZM13.5127 -2.47766C14.4676 -1.55683 15.4027 -0.30969 16.0694 1.26175C16.7357 2.83235 16.9806 4.36561 16.9806 5.68H-13.0194C-13.0194 10.7806 -10.9986 15.5621 -7.31141 19.1177L13.5127 -2.47766ZM16.9806 5.68C16.9806 6.92611 16.7551 8.46174 16.0694 10.0782C15.3769 11.7105 14.3792 13.0367 13.3074 14.0319L-7.10615 -7.9519C-11.0671 -4.2739 -13.0194 0.662552 -13.0194 5.68H16.9806ZM13.3219 14.0184C12.2496 15.0168 10.9648 15.8095 9.56206 16.3213C8.19102 16.8216 6.96765 16.96 6.06063 16.96V-13.04C1.62179 -13.04 -3.19061 -11.5974 -7.12065 -7.93841L13.3219 14.0184ZM6.06063 16.96C5.10515 16.96 3.82249 16.8107 2.39377 16.2749C0.931951 15.7268 -0.387257 14.8831 -1.47141 13.8377L19.3527 -7.75767C15.4365 -11.5339 10.5657 -13.04 6.06063 -13.04V16.96ZM-1.07255 14.2085C-2.14742 13.2449 -3.18805 11.9248 -3.92217 10.2541C-4.65197 8.59316 -4.89937 6.99509 -4.89937 5.68H25.1006C25.1006 0.482162 22.997 -4.50359 18.9538 -8.12854L-1.07255 14.2085ZM-4.89937 5.68C-4.89937 4.29489 -4.63116 2.69947 -3.92217 1.08589C-3.21555 -0.52226 -2.23959 -1.76561 -1.28065 -2.65841L19.1619 19.2984C22.9276 15.7924 25.1006 10.9591 25.1006 5.68H-4.89937ZM-1.26613 -2.67191C-0.159563 -3.69944 1.15317 -4.49814 2.56597 -5.00831C3.9442 -5.50601 5.1661 -5.64 6.06063 -5.64V24.36C10.4052 24.36 15.2063 22.9715 19.1474 19.3119L-1.26613 -2.67191ZM-5.53937 11.68V34H24.4606V11.68H-5.53937ZM9.46063 19H2.62063V49H9.46063V19ZM17.6206 34V11.68H-12.3794V34H17.6206ZM2.62063 26.68H9.46063V-3.32H2.62063V26.68ZM19.0575 33.28L13.3691 47.1596H13.3691L19.0575 33.28ZM15.1375 30.32L3.04927 39.2011L3.10756 39.2805L3.16688 39.359L15.1375 30.32ZM13.6175 25.6V10.6H-1.82358L-1.3762 26.0346L13.6175 25.6ZM20.8975 25.6L35.8192 24.0696L34.4377 10.6H20.8975V25.6ZM21.9775 28L11.8635 39.0773L11.9977 39.1998L12.1348 39.3191L21.9775 28ZM26.7775 28.12L35.9492 39.9893L36.1144 39.8616L36.2761 39.7294L26.7775 28.12ZM26.9375 24.44L16.3309 35.0466L16.4824 35.1981L16.6381 35.3452L26.9375 24.44ZM25.2175 23.32L19.1764 37.0497L19.2744 37.0928L19.3729 37.1345L25.2175 23.32ZM22.3375 22.32L17.9114 36.6521L17.9833 36.6743L18.0554 36.6958L22.3375 22.32ZM17.8975 20.64L11.315 34.1185L17.8975 20.64ZM14.9375 18.16L26.9024 9.11338L26.9024 9.11337L14.9375 18.16ZM16.5375 7.76L25.7235 19.6182L25.7753 19.5781L25.8268 19.5375L16.5375 7.76ZM31.4175 7.76L22.1282 19.5375L22.1797 19.5781L22.2315 19.6182L31.4175 7.76ZM34.4575 13.92V28.92H50.2342L49.4384 13.1634L34.4575 13.92ZM27.0575 13.92L12.0834 14.8008L12.9139 28.92H27.0575V13.92ZM26.0575 11.8L16.2148 23.1191L16.358 23.2436L16.5043 23.3644L26.0575 11.8ZM21.6975 11.68L31.3595 23.1537L31.5317 23.0087L31.6994 22.8586L21.6975 11.68ZM22.2175 15.68L29.8756 2.78218L29.8756 2.78218L22.2175 15.68ZM26.2175 17.32L31.0236 3.11078L30.9294 3.07893L30.8348 3.04833L26.2175 17.32ZM30.6175 19.08L23.9093 32.4964L23.972 32.5278L24.035 32.5585L30.6175 19.08ZM33.5775 21.52L21.7213 30.7086L21.7213 30.7086L33.5775 21.52ZM33.5775 30L20.9013 21.9804L20.8423 22.0736L20.7847 22.1677L33.5775 30ZM30.0575 33.12L23.3493 19.7036L23.3493 19.7036L30.0575 33.12ZM24.5775 19.28C24.3612 19.28 24.288 19.2624 24.3314 19.2702C24.3789 19.2789 24.5284 19.3113 24.7459 19.4004L13.3691 47.1596C17.0777 48.6795 20.8964 49.28 24.5775 49.28V19.28ZM24.7459 19.4004C25.0394 19.5207 25.447 19.7299 25.8965 20.0694C26.3514 20.4128 26.7647 20.8261 27.1081 21.281L3.16688 39.359C5.89498 42.9719 9.44224 45.5502 13.3691 47.1596L24.7459 19.4004ZM27.2257 21.4389C27.7199 22.1115 28.0838 22.8427 28.3154 23.562C28.542 24.2655 28.6015 24.8294 28.6112 25.1654L-1.3762 26.0346C-1.24697 30.493 0.0481951 35.1163 3.04927 39.2011L27.2257 21.4389ZM13.6175 40.6H20.8975V10.6H13.6175V40.6ZM5.97578 27.1304C6.35753 30.8525 7.8792 35.4395 11.8635 39.0773L32.0915 16.9227C34.8491 19.4405 35.6508 22.4275 35.8192 24.0696L5.97578 27.1304ZM12.1348 39.3191C16.0317 42.7076 20.5818 43.8 24.3775 43.8V13.8C26.1999 13.8 29.15 14.359 31.8202 16.6809L12.1348 39.3191ZM24.3775 43.8C27.5075 43.8 31.921 43.102 35.9492 39.9893L17.6058 16.2507C20.4607 14.0447 23.2741 13.8 24.3775 13.8V43.8ZM36.2761 39.7294C40.6888 36.119 42.6575 31.0215 42.6575 26.16H12.6575C12.6575 24.7804 12.9088 23.0075 13.7535 21.1261C14.6149 19.2075 15.8802 17.6551 17.2789 16.5106L36.2761 39.7294ZM42.6575 26.16C42.6575 21.5721 40.882 16.9775 37.2369 13.5348L16.6381 35.3452C15.4514 34.2244 14.3797 32.7669 13.6409 31.0021C12.9089 29.2535 12.6575 27.5722 12.6575 26.16H42.6575ZM37.5441 13.8334C35.5087 11.798 33.2295 10.4225 31.0621 9.50549L19.3729 37.1345C18.5921 36.8042 17.4597 36.1754 16.3309 35.0466L37.5441 13.8334ZM31.2586 9.59027C29.7395 8.92188 28.0816 8.37968 26.6196 7.94421L18.0554 36.6958C18.525 36.8357 18.8581 36.944 19.0773 37.0201C19.3136 37.1022 19.3221 37.1138 19.1764 37.0497L31.2586 9.59027ZM26.7636 7.98788C25.3704 7.55763 24.684 7.26112 24.48 7.16149L11.315 34.1185C13.4043 35.1389 15.6779 35.9624 17.9114 36.6521L26.7636 7.98788ZM24.48 7.16149C25.6056 7.71119 26.4157 8.4697 26.9024 9.11338L2.97261 27.2066C5.11262 30.037 7.89606 32.4488 11.315 34.1185L24.48 7.16149ZM26.9024 9.11337C28.5426 11.2827 28.6975 13.3085 28.6975 13.88H-1.3025C-1.3025 17.9715 -0.320916 22.8507 2.97261 27.2066L26.9024 9.11337ZM28.6975 13.88C28.6975 14.4029 28.5958 15.45 28.0138 16.7041C27.4128 17.9994 26.5458 18.9813 25.7235 19.6182L7.35153 -4.09825C1.42256 0.494618 -1.3025 7.11398 -1.3025 13.88H28.6975ZM25.8268 19.5375C25.2025 20.0299 24.59 20.3045 24.1533 20.4367C23.7512 20.5584 23.6331 20.52 23.9375 20.52V-9.48C18.4219 -9.48 12.4141 -8.09196 7.24822 -4.01749L25.8268 19.5375ZM23.9375 20.52C24.2928 20.52 24.2076 20.5643 23.8243 20.4495C23.4052 20.324 22.7796 20.0512 22.1282 19.5375L40.7068 -4.01749C35.4975 -8.12619 29.4362 -9.48 23.9375 -9.48V20.52ZM22.2315 19.6182C21.4638 19.0235 20.6935 18.1469 20.1463 17.0382C19.6179 15.9675 19.4974 15.0877 19.4766 14.6766L49.4384 13.1634C49.1102 6.66492 46.3389 0.344729 40.6035 -4.09825L22.2315 19.6182ZM34.4575 -1.08H27.0575V28.92H34.4575V-1.08ZM42.0316 13.0392C41.7717 8.62083 39.9048 3.78283 35.6107 0.235572L16.5043 23.3644C15.1415 22.2386 13.9934 20.7891 13.201 19.1093C12.4289 17.4724 12.1512 15.9536 12.0834 14.8008L42.0316 13.0392ZM35.9002 0.480926C32.0778 -2.84294 27.5846 -4 23.6975 -4V26C21.7304 26 18.8106 25.3763 16.2148 23.1191L35.9002 0.480926ZM23.6975 -4C20.0156 -4 15.5173 -2.91803 11.6956 0.501387L31.6994 22.8586C28.8911 25.3714 25.7261 26 23.6975 26V-4ZM12.0355 0.206321C7.32711 4.17125 5.9375 9.50173 5.9375 13.56H35.9375C35.9375 14.6561 35.7711 16.2689 35.0341 18.0918C34.2637 19.9977 33.0164 21.7584 31.3595 23.1537L12.0355 0.206321ZM5.9375 13.56C5.9375 20.3382 9.67428 25.6773 14.5594 28.5778L29.8756 2.78218C31.1467 3.53692 32.8001 4.86654 34.0985 7.01696C35.4344 9.22957 35.9375 11.5579 35.9375 13.56H5.9375ZM14.5594 28.5778C16.886 29.9592 19.5067 30.9143 21.6002 31.5917L30.8348 3.04833C30.1829 2.83741 29.7707 2.68261 29.5478 2.59122C29.4417 2.54772 29.4169 2.53424 29.4572 2.55367C29.4929 2.57084 29.644 2.64465 29.8756 2.78218L14.5594 28.5778ZM21.4114 31.5292C22.8752 32.0243 23.6355 32.3595 23.9093 32.4964L37.3257 5.66359C35.3595 4.68046 33.1864 3.84234 31.0236 3.11078L21.4114 31.5292ZM24.035 32.5585C23.0003 32.0532 22.2181 31.3496 21.7213 30.7086L45.4337 12.3314C43.2836 9.55706 40.5281 7.2268 37.2 5.60148L24.035 32.5585ZM21.7213 30.7086C20.0534 28.5565 19.8175 26.4553 19.8175 25.64H49.8175C49.8175 21.4647 48.7549 16.6168 45.4337 12.3314L21.7213 30.7086ZM19.8175 25.64C19.8175 25.1341 19.885 24.5111 20.0797 23.8267C20.2754 23.1385 20.5642 22.5132 20.9013 21.9804L46.2537 38.0196C48.653 34.2271 49.8175 29.9752 49.8175 25.64H19.8175ZM20.7847 22.1677C21.6328 20.7826 22.7169 20.0198 23.3493 19.7036L36.7657 46.5364C40.4914 44.6736 43.9222 41.8307 46.3703 37.8323L20.7847 22.1677ZM23.3493 19.7036C24.2913 19.2326 24.8562 19.28 24.5775 19.28V49.28C28.5122 49.28 32.7304 48.5541 36.7657 46.5364L23.3493 19.7036ZM39.5069 8.32L29.0948 19.1177L29.2909 19.3067L29.4937 19.4885L39.5069 8.32ZM39.5069 3.04L49.7136 14.0319L49.7209 14.0252L49.7282 14.0184L39.5069 3.04ZM45.3469 3.04L34.9348 13.8377L35.1309 14.0267L35.3337 14.2085L45.3469 3.04ZM45.3469 8.32L55.5536 19.3119L55.5609 19.3052L55.5682 19.2984L45.3469 8.32ZM45.8669 11.68H60.8669V-3.32H45.8669V11.68ZM45.8669 34V49H60.8669V34H45.8669ZM39.0269 34H24.0269V49H39.0269V34ZM39.0269 11.68V-3.32H24.0269V11.68H39.0269ZM42.4669 -5.64C43.3145 -5.64 44.4784 -5.51597 45.7992 -5.05191C47.1527 -4.57635 48.4284 -3.82724 49.52 -2.84855L29.4937 19.4885C33.4426 23.0289 38.1828 24.36 42.4669 24.36V-5.64ZM49.9189 -2.47766C50.8738 -1.55683 51.8089 -0.30969 52.4756 1.26175C53.1419 2.83235 53.3869 4.36561 53.3869 5.68H23.3869C23.3869 10.7806 25.4076 15.5621 29.0948 19.1177L49.9189 -2.47766ZM53.3869 5.68C53.3869 6.92611 53.1614 8.46174 52.4756 10.0782C51.7831 11.7105 50.7854 13.0367 49.7136 14.0319L29.3001 -7.9519C25.3392 -4.2739 23.3869 0.662552 23.3869 5.68H53.3869ZM49.7282 14.0184C48.6558 15.0168 47.371 15.8095 45.9683 16.3213C44.5973 16.8216 43.3739 16.96 42.4669 16.96V-13.04C38.028 -13.04 33.2156 -11.5974 29.2856 -7.93841L49.7282 14.0184ZM42.4669 16.96C41.5114 16.96 40.2287 16.8107 38.8 16.2749C37.3382 15.7268 36.019 14.8831 34.9348 13.8377L55.7589 -7.75767C51.8428 -11.5339 46.9719 -13.04 42.4669 -13.04V16.96ZM35.3337 14.2085C34.2588 13.2449 33.2182 11.9248 32.4841 10.2541C31.7543 8.59316 31.5069 6.99509 31.5069 5.68H61.5069C61.5069 0.482162 59.4033 -4.50359 55.3601 -8.12854L35.3337 14.2085ZM31.5069 5.68C31.5069 4.29489 31.7751 2.69947 32.4841 1.08589C33.1907 -0.52226 34.1667 -1.76561 35.1256 -2.65841L55.5682 19.2984C59.3339 15.7924 61.5069 10.9591 61.5069 5.68H31.5069ZM35.1401 -2.67191C36.2467 -3.69944 37.5594 -4.49814 38.9722 -5.00831C40.3505 -5.50601 41.5723 -5.64 42.4669 -5.64V24.36C46.8114 24.36 51.6125 22.9715 55.5536 19.3119L35.1401 -2.67191ZM30.8669 11.68V34H60.8669V11.68H30.8669ZM45.8669 19H39.0269V49H45.8669V19ZM54.0269 34V11.68H24.0269V34H54.0269ZM39.0269 26.68H45.8669V-3.32H39.0269V26.68ZM64.0238 34L51.6794 42.5216L56.1516 49H64.0238V34ZM59.7438 27.8L72.0881 19.2784L58.6498 -0.188317L46.7719 20.268L59.7438 27.8ZM56.1437 34V49H64.7793L69.1156 41.532L56.1437 34ZM48.7438 34L36.1419 25.8641L21.205 49H48.7438V34ZM56.1038 22.6L68.7056 30.7359L74.1462 22.309L68.4366 14.0618L56.1038 22.6ZM48.5438 11.68V-3.32H19.9152L36.2109 20.2181L48.5438 11.68ZM56.2238 11.68L68.5422 3.12106L64.0669 -3.32H56.2238V11.68ZM60.5037 17.84L48.1853 26.3989L61.5957 45.6999L73.4543 25.4085L60.5037 17.84ZM64.1038 11.68V-3.32H55.4962L51.1532 4.11148L64.1038 11.68ZM71.5038 11.68L83.9913 19.9902L99.5039 -3.32H71.5038V11.68ZM64.0238 22.92L51.5362 14.6098L45.8917 23.0916L51.6957 31.4651L64.0238 22.92ZM71.7038 34V49H100.352L84.0318 25.4549L71.7038 34ZM76.3681 25.4784L72.0881 19.2784L47.3994 36.3216L51.6794 42.5216L76.3681 25.4784ZM46.7719 20.268L43.1719 26.468L69.1156 41.532L72.7156 35.332L46.7719 20.268ZM56.1437 19H48.7438V49H56.1437V19ZM61.3456 42.1359L68.7056 30.7359L43.5019 14.4641L36.1419 25.8641L61.3456 42.1359ZM68.4366 14.0618L60.8766 3.14185L36.2109 20.2181L43.7709 31.1381L68.4366 14.0618ZM48.5438 26.68H56.2238V-3.32H48.5438V26.68ZM43.9053 20.2389L48.1853 26.3989L72.8222 9.28106L68.5422 3.12106L43.9053 20.2389ZM73.4543 25.4085L77.0543 19.2485L51.1532 4.11148L47.5532 10.2715L73.4543 25.4085ZM64.1038 26.68H71.5038V-3.32H64.1038V26.68ZM59.0162 3.36975L51.5362 14.6098L76.5113 31.2302L83.9913 19.9902L59.0162 3.36975ZM51.6957 31.4651L59.3757 42.5451L84.0318 25.4549L76.3518 14.3749L51.6957 31.4651ZM71.7038 19H64.0238V49H71.7038V19ZM86.7794 28.2H101.779V13.2H86.7794V28.2ZM86.7794 34V49H101.779V34H86.7794ZM77.4994 32.2L67.5608 43.4349L67.622 43.4891L67.6837 43.5425L77.4994 32.2ZM75.4194 17.36H90.4194V2.36H75.4194V17.36ZM72.6994 17.36H57.6994V32.36H72.6994V17.36ZM72.6994 11.68V-3.32H57.6994V11.68H72.6994ZM75.4194 11.68V26.68H90.4194V11.68H75.4194ZM75.4194 6.24V-8.76H60.4194V6.24H75.4194ZM82.2594 6.24H97.2594V-8.76H82.2594V6.24ZM82.2594 11.68H67.2594V26.68H82.2594V11.68ZM86.7394 11.68H101.739V-3.32H86.7394V11.68ZM86.7394 17.36V32.36H101.739V17.36H86.7394ZM82.2594 17.36V2.36H67.2594V17.36H82.2594ZM82.7394 27.76L72.6035 38.8173L72.6035 38.8173L82.7394 27.76ZM71.7794 28.2V34H101.779V28.2H71.7794ZM86.7794 19H83.2994V49H86.7794V19ZM83.2994 19C83.146 19 85.1435 18.9783 87.315 20.8575L67.6837 43.5425C72.6286 47.8217 78.4928 49 83.2994 49V19ZM87.438 20.9651C90.566 23.7322 90.4194 26.7927 90.4194 26.24H60.4194C60.4194 31.1806 61.6594 38.2145 67.5608 43.4349L87.438 20.9651ZM90.4194 26.24V17.36H60.4194V26.24H90.4194ZM75.4194 2.36H72.6994V32.36H75.4194V2.36ZM87.6994 17.36V11.68H57.6994V17.36H87.6994ZM72.6994 26.68H75.4194V-3.32H72.6994V26.68ZM90.4194 11.68V6.24H60.4194V11.68H90.4194ZM75.4194 21.24H82.2594V-8.76H75.4194V21.24ZM67.2594 6.24V11.68H97.2594V6.24H67.2594ZM82.2594 26.68H86.7394V-3.32H82.2594V26.68ZM71.7394 11.68V17.36H101.739V11.68H71.7394ZM86.7394 2.36H82.2594V32.36H86.7394V2.36ZM67.2594 17.36V26.32H97.2594V17.36H67.2594ZM67.2594 26.32C67.2594 28.9561 67.8507 34.4605 72.6035 38.8173L92.8753 16.7027C96.9881 20.4728 97.2594 25.0172 97.2594 26.32H67.2594ZM72.6035 38.8173C77.0964 42.9358 82.3281 43.2 84.3394 43.2V13.2C84.8741 13.2 85.9657 13.2444 87.3567 13.6269C88.7722 14.0162 90.867 14.8618 92.8752 16.7027L72.6035 38.8173ZM84.3394 43.2H86.7794V13.2H84.3394V43.2ZM113.389 11.68L127.193 17.5503L136.069 -3.32H113.389V11.68ZM99.3894 44.6V59.6H109.31L113.193 50.4703L99.3894 44.6ZM92.0294 44.6L78.3542 38.4365L68.8157 59.6H92.0294V44.6ZM97.1494 33.24L110.825 39.4035L113.511 33.4432L110.973 27.418L97.1494 33.24ZM88.0694 11.68V-3.32H65.4761L74.2453 17.502L88.0694 11.68ZM95.7094 11.68L109.779 6.47948L106.157 -3.32H95.7094V11.68ZM100.869 25.64L86.7997 30.8405L100.924 69.0531L114.952 30.805L100.869 25.64ZM105.989 11.68V-3.32H95.5138L91.9067 6.51499L105.989 11.68ZM99.5858 5.80969L85.5858 38.7297L113.193 50.4703L127.193 17.5503L99.5858 5.80969ZM99.3894 29.6H92.0294V59.6H99.3894V29.6ZM105.705 50.7635L110.825 39.4035L83.4742 27.0765L78.3542 38.4365L105.705 50.7635ZM110.973 27.418L101.893 5.858L74.2453 17.502L83.3253 39.062L110.973 27.418ZM88.0694 26.68H95.7094V-3.32H88.0694V26.68ZM81.6397 16.8805L86.7997 30.8405L114.939 20.4395L109.779 6.47948L81.6397 16.8805ZM114.952 30.805L120.072 16.845L91.9067 6.51499L86.7867 20.475L114.952 30.805ZM105.989 26.68H113.389V-3.32H105.989V26.68ZM140.983 34V49H155.983V34H140.983ZM134.143 34L121.627 42.2671L126.074 49H134.143V34ZM122.703 16.68L135.219 8.41294L107.703 -33.2462V16.68H122.703ZM122.703 34V49H137.703V34H122.703ZM115.863 34H100.863V49H115.863V34ZM115.863 5.92V-9.08H100.863V5.92H115.863ZM122.703 5.92L135.237 -2.32054L130.792 -9.08H122.703V5.92ZM134.143 23.32L121.609 31.5605L149.143 73.4387V23.32H134.143ZM134.143 5.92V-9.08H119.143V5.92H134.143ZM140.983 5.92H155.983V-9.08H140.983V5.92ZM140.983 19H134.143V49H140.983V19ZM146.659 25.7329L135.219 8.41294L110.187 24.9471L121.627 42.2671L146.659 25.7329ZM107.703 16.68V34H137.703V16.68H107.703ZM122.703 19H115.863V49H122.703V19ZM130.863 34V5.92H100.863V34H130.863ZM115.863 20.92H122.703V-9.08H115.863V20.92ZM110.169 14.1605L121.609 31.5605L146.677 15.0795L135.237 -2.32054L110.169 14.1605ZM149.143 23.32V5.92H119.143V23.32H149.143ZM134.143 20.92H140.983V-9.08H134.143V20.92ZM125.983 5.92V34H155.983V5.92H125.983ZM146.421 8.32L136.009 19.1177L136.205 19.3067L136.408 19.4885L146.421 8.32ZM146.421 3.04L156.628 14.0319L156.635 14.0252L156.642 14.0184L146.421 3.04ZM152.261 3.04L141.849 13.8377L142.045 14.0267L142.248 14.2085L152.261 3.04ZM152.261 8.32L162.468 19.3119L162.475 19.3052L162.482 19.2984L152.261 8.32ZM152.781 11.68H167.781V-3.32H152.781V11.68ZM152.781 34V49H167.781V34H152.781ZM145.941 34H130.941V49H145.941V34ZM145.941 11.68V-3.32H130.941V11.68H145.941ZM149.381 -5.64C150.229 -5.64 151.392 -5.51597 152.713 -5.05191C154.067 -4.57635 155.342 -3.82724 156.434 -2.84855L136.408 19.4885C140.357 23.0289 145.097 24.36 149.381 24.36V-5.64ZM156.833 -2.47766C157.788 -1.55683 158.723 -0.30969 159.39 1.26175C160.056 2.83235 160.301 4.36561 160.301 5.68H130.301C130.301 10.7806 132.322 15.5621 136.009 19.1177L156.833 -2.47766ZM160.301 5.68C160.301 6.92611 160.075 8.46174 159.39 10.0782C158.697 11.7105 157.699 13.0367 156.628 14.0319L136.214 -7.9519C132.253 -4.2739 130.301 0.662552 130.301 5.68H160.301ZM156.642 14.0184C155.57 15.0168 154.285 15.8095 152.882 16.3213C151.511 16.8216 150.288 16.96 149.381 16.96V-13.04C144.942 -13.04 140.13 -11.5974 136.2 -7.93841L156.642 14.0184ZM149.381 16.96C148.425 16.96 147.143 16.8107 145.714 16.2749C144.252 15.7268 142.933 14.8831 141.849 13.8377L162.673 -7.75767C158.757 -11.5339 153.886 -13.04 149.381 -13.04V16.96ZM142.248 14.2085C141.173 13.2449 140.132 11.9248 139.398 10.2541C138.668 8.59316 138.421 6.99509 138.421 5.68H168.421C168.421 0.482162 166.317 -4.50359 162.274 -8.12854L142.248 14.2085ZM138.421 5.68C138.421 4.29489 138.689 2.69947 139.398 1.08589C140.105 -0.52226 141.081 -1.76561 142.04 -2.65841L162.482 19.2984C166.248 15.7924 168.421 10.9591 168.421 5.68H138.421ZM142.054 -2.67191C143.161 -3.69944 144.473 -4.49814 145.886 -5.00831C147.265 -5.50601 148.486 -5.64 149.381 -5.64V24.36C153.725 24.36 158.527 22.9715 162.468 19.3119L142.054 -2.67191ZM137.781 11.68V34H167.781V11.68H137.781ZM152.781 19H145.941V49H152.781V19ZM160.941 34V11.68H130.941V34H160.941ZM145.941 26.68H152.781V-3.32H145.941V26.68ZM177.578 14L166.463 24.0728L166.545 24.1637L166.629 24.2533L177.578 14ZM179.938 34V49H194.938V34H179.938ZM173.138 34H158.138V49H173.138V34ZM171.978 18.4L161.024 28.6474V28.6474L171.978 18.4ZM165.738 18.4L176.692 28.6474L176.692 28.6474L165.738 18.4ZM164.578 34V49H179.578V34H164.578ZM157.738 34H142.738V49H157.738V34ZM157.738 11.68V-3.32H142.738V11.68H157.738ZM164.578 11.68H179.578V-3.32H164.578V11.68ZM164.578 14.64H149.578V62.0756L176.851 23.2642L164.578 14.64ZM167.378 12.32L173.839 25.8572L173.963 25.7979L174.086 25.7364L167.378 12.32ZM171.338 26.44C171.005 26.44 170.2 26.3823 169.164 25.9575C168.085 25.5146 167.153 24.834 166.463 24.0728L188.693 3.92721C183.905 -1.35581 177.555 -3.56 171.338 -3.56V26.44ZM166.629 24.2533C165.863 23.4348 165.39 22.5478 165.142 21.8168C164.913 21.1409 164.938 20.7881 164.938 20.96H194.938C194.938 15.3201 193.383 8.93282 188.526 3.74666L166.629 24.2533ZM164.938 20.96V34H194.938V20.96H164.938ZM179.938 19H173.138V49H179.938V19ZM188.138 34V21.88H158.138V34H188.138ZM188.138 21.88C188.138 17.8283 187.047 12.5517 182.932 8.15264L161.024 28.6474C158.455 25.9016 158.138 22.945 158.138 21.88H188.138ZM182.932 8.15265C178.876 3.81728 173.615 2.16 168.858 2.16V32.16C167.927 32.16 166.59 32.0104 165.078 31.4094C163.519 30.7898 162.13 29.8295 161.024 28.6474L182.932 8.15265ZM168.858 2.16C164.101 2.16 158.839 3.81728 154.784 8.15265L176.692 28.6474C175.586 29.8295 174.197 30.7898 172.638 31.4094C171.126 32.0104 169.789 32.16 168.858 32.16V2.16ZM154.784 8.15264C150.669 12.5517 149.578 17.8283 149.578 21.88H179.578C179.578 22.945 179.26 25.9016 176.692 28.6474L154.784 8.15264ZM149.578 21.88V34H179.578V21.88H149.578ZM164.578 19H157.738V49H164.578V19ZM172.738 34V11.68H142.738V34H172.738ZM157.738 26.68H164.578V-3.32H157.738V26.68ZM149.578 11.68V14.64H179.578V11.68H149.578ZM176.851 23.2642C175.946 24.5512 174.805 25.3958 173.839 25.8572L160.917 -1.21721C157.604 0.364165 154.596 2.75544 152.305 6.01582L176.851 23.2642ZM174.086 25.7364C172.941 26.3087 171.922 26.44 171.338 26.44V-3.56C167.82 -3.56 164.161 -2.84202 160.67 -1.09642L174.086 25.7364ZM205.611 24.48V39.48H218.98L220.512 26.1993L205.611 24.48ZM190.131 24.48V9.48H173.933L175.175 25.6304L190.131 24.48ZM191.451 27.68L181.032 38.471L181.221 38.6536L181.416 38.8294L191.451 27.68ZM197.931 26.6V11.6H188.346L184.319 20.2982L197.931 26.6ZM205.211 26.6L219.747 30.3002L224.507 11.6L205.211 11.6V26.6ZM203.171 30.56L191.691 20.906L191.626 20.9833L191.562 21.0614L203.171 30.56ZM199.531 33.32L205.738 46.9755L199.531 33.32ZM188.771 32.92L181.574 46.0806L188.771 32.92ZM184.771 28.92L197.893 21.6525L184.771 28.92ZM184.731 16.76L171.609 9.4925L171.566 9.57025L171.524 9.6485L184.731 16.76ZM188.731 12.76L195.928 25.9206L195.928 25.9206L188.731 12.76ZM200.371 12.72L193.247 25.9203V25.9203L200.371 12.72ZM204.291 16.6L191.179 23.8846L191.222 23.9636L191.267 24.0421L204.291 16.6ZM198.731 20.68V35.68H213.731V20.68H198.731ZM197.531 17.88L207.355 6.54467L207.355 6.54466L197.531 17.88ZM191.611 17.84L182.008 6.31668L181.912 6.39697L181.817 6.47885L191.611 17.84ZM190.171 20.68L175.342 18.4234L172.716 35.68H190.171V20.68ZM190.731 22.48C190.731 22.4967 190.73 22.5875 190.71 22.7607L220.512 26.1993C220.652 24.9859 220.731 23.7433 220.731 22.48H190.731ZM205.611 9.48H190.131V39.48H205.611V9.48ZM175.175 25.6304C175.479 29.5745 176.917 34.4983 181.032 38.471L201.87 16.889C204.438 19.3684 204.997 22.1589 205.087 23.3296L175.175 25.6304ZM181.416 38.8294C185.161 42.1997 189.783 43.76 194.371 43.76V13.76C195.388 13.76 196.64 13.9241 197.984 14.4214C199.344 14.9244 200.528 15.6686 201.485 16.5306L181.416 38.8294ZM194.371 43.76C197.34 43.76 200.898 43.1215 204.322 41.0441C207.816 38.9242 210.142 35.9276 211.543 32.9018L184.319 20.2982C185.053 18.7124 186.453 16.7958 188.76 15.3959C190.997 14.0385 193.109 13.76 194.371 13.76V43.76ZM197.931 41.6H205.211V11.6H197.931V41.6ZM190.674 22.8998C190.866 22.1479 191.243 21.4386 191.691 20.906L214.651 40.214C217.073 37.3347 218.809 33.9855 219.747 30.3002L190.674 22.8998ZM191.562 21.0614C192.15 20.3419 192.829 19.8893 193.324 19.6645L205.738 46.9755C209.166 45.4173 212.272 43.1248 214.78 40.0586L191.562 21.0614ZM193.324 19.6645C194.038 19.34 194.553 19.32 194.611 19.32V49.32C198.296 49.32 202.091 48.6334 205.738 46.9755L193.324 19.6645ZM194.611 19.32C194.588 19.32 194.736 19.3181 195.008 19.3833C195.288 19.4504 195.623 19.5707 195.968 19.7594L181.574 46.0806C185.75 48.3644 190.226 49.32 194.611 49.32V19.32ZM195.968 19.7594C196.327 19.9558 196.723 20.2393 197.098 20.6134C197.47 20.9861 197.729 21.3565 197.893 21.6525L171.649 36.1875C173.959 40.3578 177.325 43.7571 181.574 46.0806L195.968 19.7594ZM197.893 21.6525C198.109 22.0426 198.228 22.393 198.287 22.643C198.344 22.8824 198.331 22.9661 198.331 22.84H168.331C168.331 27.2659 169.262 31.8769 171.649 36.1875L197.893 21.6525ZM198.331 22.84C198.331 22.6845 198.347 22.7369 198.298 22.9459C198.248 23.1649 198.142 23.4935 197.938 23.8715L171.524 9.6485C169.22 13.9271 168.331 18.4811 168.331 22.84H198.331ZM197.853 24.0275C197.689 24.3235 197.43 24.6939 197.058 25.0666C196.683 25.4408 196.287 25.7242 195.928 25.9206L181.534 -0.400568C177.285 1.92286 173.919 5.32222 171.609 9.4925L197.853 24.0275ZM195.928 25.9206C195.568 26.1173 195.228 26.2372 194.955 26.3021C194.692 26.3649 194.561 26.36 194.611 26.36V-3.64C190.233 -3.64 185.736 -2.69873 181.534 -0.400566L195.928 25.9206ZM194.611 26.36C194.639 26.36 194.495 26.3625 194.224 26.2986C193.945 26.2328 193.604 26.1131 193.247 25.9203L207.495 -0.480329C203.352 -2.71614 198.927 -3.64 194.611 -3.64V26.36ZM193.247 25.9203C192.878 25.721 192.46 25.4278 192.059 25.0309C191.658 24.6345 191.37 24.2291 191.179 23.8846L217.403 9.31535C215.089 5.15014 211.713 1.7959 207.495 -0.480334L193.247 25.9203ZM191.267 24.0421C191.025 23.6179 190.88 23.2166 190.801 22.898C190.726 22.5903 190.731 22.4322 190.731 22.48H220.731C220.731 18.0457 219.762 13.4402 217.315 9.15792L191.267 24.0421ZM213.731 20.68C213.731 15.6854 211.822 10.4162 207.355 6.54467L187.707 29.2153C186.468 28.1411 185.376 26.7168 184.644 25.0088C183.929 23.3405 183.731 21.8115 183.731 20.68H213.731ZM207.355 6.54466C203.463 3.17166 198.826 1.84 194.531 1.84V31.84C193.679 31.84 192.544 31.7149 191.268 31.2725C189.965 30.8209 188.748 30.1178 187.707 29.2153L207.355 6.54466ZM194.531 1.84C190.255 1.84 185.782 3.17206 182.008 6.31668L201.214 29.3633C200.226 30.1863 199.066 30.8476 197.801 31.2809C196.555 31.7076 195.423 31.84 194.531 31.84V1.84ZM181.817 6.47885C177.781 9.95805 175.946 14.452 175.342 18.4234L205 22.9366C204.769 24.4547 203.894 27.0553 201.405 29.2011L181.817 6.47885ZM190.171 35.68H198.731V5.68H190.171V35.68Z" fill="url(#paint0_linear_1565_5940)" mask="url(#path-3-inside-2_1565_5940)"/>
<defs>
<linearGradient id="paint0_linear_1565_5940" x1="31.2393" y1="7.65244" x2="43.4879" y2="64.2803" gradientUnits="userSpaceOnUse">
<stop stop-color="#A26B22"/>
<stop offset="0.523958" stop-color="#EDBC4F"/>
<stop offset="1" stop-color="#C17C2E"/>
</linearGradient>
</defs>
</svg>
