<svg width="85" height="40" viewBox="0 0 85 40" fill="none" xmlns="http://www.w3.org/2000/svg">
<rect x="-0.00292969" width="85" height="40" rx="20" fill="url(#paint0_linear_1544_307934)"/>
<g filter="url(#filter0_i_1544_307934)">
<path fill-rule="evenodd" clip-rule="evenodd" d="M26.8454 12.5768C24.8213 10.4744 21.5394 10.4744 19.5152 12.5768C17.491 14.6792 17.491 18.0879 19.5152 20.1903L26.5563 27.5036C27.343 28.3207 28.6511 28.3207 29.4378 27.5036L36.4789 20.1903C38.5031 18.0879 38.5031 14.6792 36.4789 12.5768C34.4547 10.4744 31.1423 10.5701 29.1487 12.5768C27.9971 13.6849 27.3609 13.1122 26.8454 12.5768Z" fill="#3A3A3A"/>
</g>
<path fill-rule="evenodd" clip-rule="evenodd" d="M26.8454 12.5768C24.8213 10.4744 21.5394 10.4744 19.5152 12.5768C17.491 14.6792 17.491 18.0879 19.5152 20.1903L26.5563 27.5036C27.343 28.3207 28.6511 28.3207 29.4378 27.5036L36.4789 20.1903C38.5031 18.0879 38.5031 14.6792 36.4789 12.5768C34.4547 10.4744 31.1423 10.5701 29.1487 12.5768C27.9971 13.6849 27.3609 13.1122 26.8454 12.5768Z" stroke="#3A3A3A" stroke-width="2"/>
<path d="M56.4893 13.5938V25H54.4189V16.0078L51.6768 16.9141V15.2422L56.2549 13.5938H56.4893ZM68.0205 23.375V25H60.3174V23.6094L64.0127 19.6172C64.3981 19.1797 64.7028 18.7995 64.9268 18.4766C65.1507 18.1536 65.3096 17.862 65.4033 17.6016C65.5023 17.3359 65.5518 17.0833 65.5518 16.8438C65.5518 16.4948 65.4893 16.1901 65.3643 15.9297C65.2393 15.6641 65.057 15.4583 64.8174 15.3125C64.583 15.1667 64.2939 15.0938 63.9502 15.0938C63.57 15.0938 63.2445 15.1823 62.9736 15.3594C62.708 15.5312 62.5049 15.7708 62.3643 16.0781C62.2288 16.3854 62.1611 16.737 62.1611 17.1328H60.0908C60.0908 16.4609 60.2471 15.849 60.5596 15.2969C60.8721 14.7396 61.32 14.2943 61.9033 13.9609C62.4867 13.6276 63.1794 13.4609 63.9814 13.4609C64.7627 13.4609 65.4242 13.5911 65.9658 13.8516C66.5075 14.1068 66.9189 14.4714 67.2002 14.9453C67.4814 15.4193 67.6221 15.9844 67.6221 16.6406C67.6221 17.0052 67.5622 17.3646 67.4424 17.7188C67.3226 18.0729 67.1533 18.4245 66.9346 18.7734C66.721 19.1172 66.4658 19.4661 66.1689 19.8203C65.8721 20.1745 65.5413 20.5365 65.1768 20.9062L62.958 23.375H68.0205Z" fill="#3A3A3A"/>
<defs>
<filter id="filter0_i_1544_307934" x="15.4971" y="10" width="23.5" height="20.6165" filterUnits="userSpaceOnUse" color-interpolation-filters="sRGB">
<feFlood flood-opacity="0" result="BackgroundImageFix"/>
<feBlend mode="normal" in="SourceGraphic" in2="BackgroundImageFix" result="shape"/>
<feColorMatrix in="SourceAlpha" type="matrix" values="0 0 0 0 0 0 0 0 0 0 0 0 0 0 0 0 0 0 127 0" result="hardAlpha"/>
<feOffset dx="-1.5" dy="1.5"/>
<feGaussianBlur stdDeviation="0.75"/>
<feComposite in2="hardAlpha" operator="arithmetic" k2="-1" k3="1"/>
<feColorMatrix type="matrix" values="0 0 0 0 0.376471 0 0 0 0 0.364706 0 0 0 0 0.368627 0 0 0 1 0"/>
<feBlend mode="normal" in2="shape" result="effect1_innerShadow_1544_307934"/>
</filter>
<linearGradient id="paint0_linear_1544_307934" x1="-0.00293" y1="20" x2="84.9971" y2="20" gradientUnits="userSpaceOnUse">
<stop stop-color="#FBDB84"/>
<stop offset="1" stop-color="#B48E39"/>
</linearGradient>
</defs>
</svg>
