<svg width="35" height="35" viewBox="0 0 40 40" fill="none" xmlns="http://www.w3.org/2000/svg">
<path d="M7.5 15.5C7.5 10.5294 11.5294 6.5 16.5 6.5H19.5C24.4706 6.5 28.5 10.5294 28.5 15.5V18.75V22.4849C28.5 24.0512 28.9087 25.5903 29.6858 26.9502L30.25 27.9375L32 31H18H4L5.75 27.9375L6.31419 26.9502C7.09126 25.5903 7.5 24.0512 7.5 22.4849V18.75V15.5Z" stroke="#C7BBBB" stroke-width="1.5" stroke-linejoin="round"/>
<path d="M14.5 31H18H21.5V31C21.5 32.933 19.933 34.5 18 34.5V34.5C16.067 34.5 14.5 32.933 14.5 31V31Z" stroke="#C7BBBB"/>
<path d="M16.25 4.75C16.25 3.7835 17.0335 3 18 3C18.9665 3 19.75 3.7835 19.75 4.75V6.5H18H16.25V4.75Z" fill="#C7BBBB"/>
</svg>
