<svg width="46" height="50" viewBox="0 0 46 50" fill="none" xmlns="http://www.w3.org/2000/svg">
<path fill-rule="evenodd" clip-rule="evenodd" d="M20.334 2.66667C20.334 1.19391 21.5279 0 23.0006 0C24.4734 0 25.6673 1.19391 25.6673 2.66667V4.05476C33.88 4.7323 40.334 11.6124 40.334 20H37.6673C37.6673 12.6362 31.6978 6.66667 24.334 6.66667H23.0006C14.9005 6.66667 8.33398 13.2332 8.33398 21.3333V24V27.9585C8.33398 31.7127 7.35426 35.4019 5.49164 38.6615L3.96489 41.3333L17.6673 41.3333L23.0006 41.3333L28.334 41.3333L42.0364 41.3333L40.5097 38.6615L37.843 33.9949L40.1583 32.6718L42.825 37.3385L45.4916 42.0051C45.7275 42.4178 45.7258 42.9248 45.4872 43.3359C45.2486 43.747 44.8093 44 44.334 44H29.534C28.9163 47.043 26.2259 49.3333 23.0006 49.3333C19.7754 49.3333 17.085 47.043 16.4673 44H1.66732C1.19202 44 0.752667 43.747 0.514104 43.3359C0.275542 42.9248 0.273848 42.4178 0.50966 42.0051L3.17633 37.3385C4.8087 34.4818 5.66732 31.2486 5.66732 27.9585V24V21.3333C5.66732 12.6672 12.0271 5.48654 20.334 4.20386V2.66667ZM26.773 44H23.0006H19.2283C19.7774 45.5536 21.259 46.6667 23.0006 46.6667C24.7423 46.6667 26.2239 45.5536 26.773 44ZM40.334 22.6667C40.334 21.9303 39.737 21.3333 39.0006 21.3333C38.2643 21.3333 37.6673 21.9303 37.6673 22.6667V25.3333H35.0006C34.2643 25.3333 33.6673 25.9303 33.6673 26.6667C33.6673 27.403 34.2643 28 35.0006 28H37.6673V30.6667C37.6673 31.403 38.2643 32 39.0006 32C39.737 32 40.334 31.403 40.334 30.6667V28H43.0006C43.737 28 44.334 27.403 44.334 26.6667C44.334 25.9303 43.737 25.3333 43.0006 25.3333H40.334V22.6667Z" fill="#3A3A3A"/>
</svg>
