<svg width="236" height="80" viewBox="0 0 236 80" fill="none" xmlns="http://www.w3.org/2000/svg">
<path fill-rule="evenodd" clip-rule="evenodd" d="M9.6 0C4.29807 0 0 4.29807 0 9.6V70.4C0 75.7019 4.29807 80 9.6 80H226.4C231.702 80 236 75.7019 236 70.4V9.6C236 4.29807 231.702 0 226.4 0H9.6Z" fill="white"/>
<path fill-rule="evenodd" clip-rule="evenodd" d="M28.7896 38.4035C28.7896 38.4035 12.5068 29.3699 11.5505 28.8391C10.5926 28.3084 9.63947 28.6303 9.63947 29.7396C9.63947 31.5884 9.63947 49.0246 9.63947 49.0246C9.63947 49.0246 9.63947 67.8697 9.63947 68.7016C9.63947 69.532 10.3205 69.8922 11.1527 69.4316C11.9833 68.971 28.7896 59.6457 28.7896 59.6457C28.7896 59.6457 31.0727 58.3797 32.2143 57.7467C34.0514 56.728 37.7258 54.6905 37.7258 54.6905C37.7258 54.6905 45.3079 50.4829 46.3167 49.9251C47.3239 49.3657 47.2269 48.599 46.3772 48.1576C45.5259 47.7177 37.7258 43.3602 37.7258 43.3602L28.7896 38.4035Z" fill="url(#paint0_linear_1_6599)"/>
<path fill-rule="evenodd" clip-rule="evenodd" d="M31.7969 48.9599L10.3859 28.6399C9.88637 28.7561 9.58698 29.1302 9.58698 29.7599C9.58698 31.5995 9.58698 49.0336 9.58698 48.9599C9.58698 49.0336 9.58698 67.8764 9.58698 68.6399C9.58698 69.1741 9.80204 69.492 10.0663 69.5999L31.7969 48.9599Z" fill="url(#paint1_linear_1_6599)"/>
<mask id="mask0_1_6599" style="mask-type:luminance" maskUnits="userSpaceOnUse" x="9" y="28" width="23" height="42">
<path fill-rule="evenodd" clip-rule="evenodd" d="M31.7969 48.9599L10.3859 28.6399C9.88637 28.7561 9.58698 29.1302 9.58698 29.7599C9.58698 31.5995 9.58698 49.0336 9.58698 48.9599C9.58698 49.0336 9.58698 67.8764 9.58698 68.6399C9.58698 69.1741 9.80204 69.492 10.0663 69.5999L31.7969 48.9599Z" fill="white"/>
</mask>
<g mask="url(#mask0_1_6599)">
</g>
<mask id="mask1_1_6599" style="mask-type:luminance" maskUnits="userSpaceOnUse" x="10" y="48" width="28" height="22">
<path fill-rule="evenodd" clip-rule="evenodd" d="M10.948 69.4862L23.3235 62.6787C26.3711 60.9877 28.7896 59.6457 28.7896 59.6457L37.7893 54.7917L31.7977 48.9619L10.0675 69.6044C10.3097 69.6824 10.7366 69.6398 11.0696 69.4752" fill="white"/>
</mask>
<g mask="url(#mask1_1_6599)">
<path fill-rule="evenodd" clip-rule="evenodd" d="M28.761 38.3999C28.7296 38.4721 12.4532 29.4218 11.5044 28.9599C10.5397 28.3584 9.58698 28.6809 9.58698 29.7599C9.58698 31.6445 9.58698 49.1126 9.58698 49.1199C9.58698 49.1126 9.58698 67.9923 9.58698 68.7999C9.58698 69.6577 10.2677 70.0186 11.025 69.5999C11.9299 69.0957 28.7296 59.7532 28.761 59.6799L37.7088 54.7199C37.6624 54.789 45.2415 50.5737 46.1774 50.0799C47.2567 49.4543 47.1597 48.6863 46.3371 48.3199C45.4594 47.8033 37.6624 43.4379 37.7088 43.3599L28.761 38.3999Z" fill="url(#paint2_linear_1_6599)"/>
</g>
<path fill-rule="evenodd" clip-rule="evenodd" d="M11.5216 28.8234C11.1095 28.6023 10.6999 28.5391 10.3687 28.6285L31.7974 48.978L37.7258 43.3602L28.7896 38.4035C28.7896 38.4035 20.3669 33.7306 15.2813 30.9091L11.5216 28.8234Z" fill="url(#paint3_linear_1_6599)"/>
<mask id="mask2_1_6599" style="mask-type:luminance" maskUnits="userSpaceOnUse" x="10" y="28" width="28" height="21">
<path fill-rule="evenodd" clip-rule="evenodd" d="M11.5216 28.8234C11.1095 28.6023 10.6999 28.5391 10.3687 28.6285L31.7974 48.978L37.7258 43.3602L28.7896 38.4035C28.7896 38.4035 20.3669 33.7306 15.2813 30.9091L11.5216 28.8234Z" fill="white"/>
</mask>
<g mask="url(#mask2_1_6599)">
</g>
<path fill-rule="evenodd" clip-rule="evenodd" d="M161.639 55.8191L159.87 57.5008C159.461 57.7272 159.054 57.99 158.649 58.1766C157.42 58.7386 156.17 58.88 155.059 58.88C153.878 58.88 152.025 58.8027 150.135 57.4257C147.509 55.563 146.362 52.3608 146.362 49.5705C146.362 43.7933 151.031 40.96 154.839 40.96C156.17 40.96 157.537 41.2956 158.649 42.0034C160.497 43.2346 160.975 44.8346 161.24 45.6914L152.543 49.2304L149.695 49.4534C150.617 54.1904 153.799 56.9454 157.314 56.9454C159.071 56.9454 160.374 56.3679 161.57 55.7728C161.57 55.7728 161.81 55.6469 161.639 55.8191ZM156.326 46.3164C157.024 46.0562 157.387 45.8317 157.387 45.3092C157.387 43.8108 155.734 42.08 153.761 42.08C152.3 42.08 149.557 43.2472 149.557 47.3002C149.557 47.9327 149.631 48.6063 149.668 49.28L156.326 46.3164Z" fill="#1F2430"/>
<path fill-rule="evenodd" clip-rule="evenodd" d="M143.49 55.6164C143.49 57.0605 143.745 57.2852 144.957 57.3986C145.589 57.4735 146.218 57.5066 146.841 57.5815L145.477 58.3999H138.979C139.831 57.2852 139.978 57.1739 139.978 56.4315V55.6021L139.964 33.5015H137.094L139.856 32.1599H145.13C143.987 32.8274 143.645 33.2339 143.498 34.5348L143.49 55.6164Z" fill="#1F2430"/>
<path fill-rule="evenodd" clip-rule="evenodd" d="M133.408 42.7836C134.253 43.4851 136.017 44.9742 136.017 47.798C136.017 50.5503 134.48 51.8477 132.93 53.0757C132.454 53.5591 131.898 54.0834 131.898 54.894C131.898 55.7167 132.454 56.1627 132.855 56.4953L134.184 57.5317C135.801 58.9095 137.275 60.1727 137.275 62.7389C137.275 66.2345 133.924 69.7599 127.591 69.7599C122.257 69.7599 119.678 67.1949 119.678 64.4448C119.678 63.1067 120.338 61.2113 122.515 59.9128C124.797 58.5042 127.889 58.3159 129.545 58.2057C129.028 57.5317 128.438 56.8257 128.438 55.6737C128.438 55.0438 128.625 54.6682 128.806 54.2255C128.404 54.264 127.998 54.3037 127.629 54.3037C123.725 54.3037 121.518 51.3631 121.518 48.4654C121.518 46.7561 122.29 44.8596 123.877 43.4851C125.975 41.7406 128.478 41.4399 130.467 41.4399H138.053L135.694 42.7836H133.408ZM130.818 59.2403C130.513 59.1999 130.331 59.1999 129.963 59.1999C129.627 59.1999 127.622 59.2739 126.069 59.8054C125.248 60.1115 122.873 61.0163 122.873 63.7039C122.873 66.3858 125.437 68.3199 129.402 68.3199C132.966 68.3199 134.857 66.5787 134.857 64.2342C134.857 62.3046 133.633 61.2865 130.818 59.2403ZM131.859 52.0824C132.706 51.2271 132.78 50.0457 132.78 49.3749C132.78 46.7102 131.208 42.5599 128.161 42.5599C127.211 42.5599 126.181 43.0419 125.597 43.7874C124.977 44.5593 124.791 45.5606 124.791 46.5235C124.791 49.0049 126.222 53.1199 129.371 53.1199C130.29 53.1199 131.279 52.6687 131.859 52.0824Z" fill="#1F2430"/>
<path fill-rule="evenodd" clip-rule="evenodd" d="M110.464 58.88C104.6 58.88 101.462 54.2478 101.462 50.0536C101.462 45.153 105.407 40.96 111.017 40.96C116.441 40.96 119.838 45.2672 119.838 49.7897C119.838 54.2067 116.48 58.88 110.464 58.88ZM115.05 55.8504C115.945 54.6493 116.163 53.1502 116.163 51.6888C116.163 48.3835 114.609 42.08 110.018 42.08C108.797 42.08 107.568 42.5637 106.681 43.3534C105.235 44.6668 104.978 46.3172 104.978 47.9365C104.978 51.6443 106.785 57.76 111.272 57.76C112.72 57.76 114.198 57.0493 115.05 55.8504Z" fill="#1F2430"/>
<path fill-rule="evenodd" clip-rule="evenodd" d="M90.8102 58.88C84.9425 58.88 81.8091 54.2478 81.8091 50.0536C81.8091 45.153 85.7562 40.96 91.3668 40.96C96.7894 40.96 100.184 45.2672 100.184 49.7897C100.184 54.2067 96.8298 58.88 90.8102 58.88ZM95.3985 55.8504C96.2875 54.6493 96.5091 53.1502 96.5091 51.6888C96.5091 48.3835 94.9507 42.08 90.3619 42.08C89.136 42.08 87.9189 42.5637 87.0299 43.3534C85.5811 44.6668 85.3243 46.3172 85.3243 47.9365C85.3243 51.6443 87.1407 57.76 91.6219 57.76C93.0673 57.76 94.5435 57.0493 95.3985 55.8504Z" fill="#1F2430"/>
<path fill-rule="evenodd" clip-rule="evenodd" d="M79.3764 57.7729L74.4093 58.9192C72.3968 59.239 70.5897 59.52 68.676 59.52C59.0954 59.52 55.4448 52.4131 55.4448 46.8508C55.4448 40.0581 60.6172 33.76 69.4753 33.76C71.3494 33.76 73.1522 34.0377 74.7947 34.4892C77.3979 35.2261 78.6155 36.1345 79.3764 36.6667L76.491 39.4285L75.2745 39.7029L76.1419 38.3099C74.9671 37.1536 72.8075 35.0192 68.7089 35.0192C63.2291 35.0192 59.0954 39.2172 59.0954 45.346C59.0954 51.9284 63.8154 58.1203 71.3856 58.1203C73.6101 58.1203 74.7552 57.67 75.7949 57.2495V51.6065L70.5501 51.8908L73.3301 50.386H80.6906L79.7903 51.259C79.5476 51.467 79.5147 51.5379 79.4466 51.8167C79.4104 52.1354 79.3764 53.1489 79.3764 53.5052V57.7729Z" fill="#1F2430"/>
<path fill-rule="evenodd" clip-rule="evenodd" d="M172.359 55.9903V65.44H170.489V41.3942H172.359V44.1329C173.577 42.3628 175.803 40.96 178.388 40.96C183.025 40.96 186.148 44.4902 186.148 50.0787C186.148 55.6297 183.025 59.2337 178.388 59.2337C175.947 59.2337 173.761 57.9704 172.359 55.9903ZM184.23 50.2227C184.23 45.9664 182.035 42.72 178.141 42.72C175.723 42.72 173.411 44.6398 172.406 46.3141V54.0925C173.411 55.7701 175.723 57.76 178.141 57.76C182.035 57.76 184.23 54.4858 184.23 50.2227Z" fill="#1F2430"/>
<path fill-rule="evenodd" clip-rule="evenodd" d="M188.704 34.72H190.622V58.88H188.704V34.72Z" fill="#1F2430"/>
<path fill-rule="evenodd" clip-rule="evenodd" d="M211.467 63.7762C211.867 63.9555 212.55 64.0654 212.982 64.0654C214.126 64.0654 214.923 63.5959 215.638 61.9375L217.002 58.8353L209.636 41.28H211.722L218.04 56.493L224.298 41.28H226.413L217.429 62.5193C216.497 64.7076 215.03 65.76 213.015 65.76C212.411 65.76 211.613 65.6523 211.146 65.5082L211.467 63.7762Z" fill="#1F2430"/>
<path fill-rule="evenodd" clip-rule="evenodd" d="M206.19 58.8561C206.065 58.2492 205.97 57.714 205.901 57.2674C205.843 56.8218 205.81 56.3663 205.81 55.9031C205.166 56.8528 204.253 57.6433 203.086 58.2657C201.918 58.8926 200.809 59.2 199.287 59.2C197.455 59.2 196.033 58.7478 195.018 57.8301C194.007 56.9136 193.498 55.672 193.498 54.101C193.498 52.5322 194.235 51.2585 195.704 50.2845C197.174 49.306 199.073 48.8196 201.424 48.8196H205.81V46.6449C205.81 45.3923 205.385 44.4072 204.536 43.693C203.683 42.9777 202.486 42.6161 200.935 42.6161C199.517 42.6161 198.367 42.9467 197.491 43.5902C196.623 44.2469 196.186 45.0606 196.186 46.0412H194.261L194.221 45.9473C194.152 44.625 194.755 43.4652 196.036 42.4636C197.312 41.463 198.983 40.96 201.04 40.96C203.09 40.96 204.749 41.4553 206 42.4437C207.249 43.4221 207.876 44.8362 207.876 46.6847V55.3193C207.876 55.9396 207.906 56.5388 207.983 57.1226C208.062 57.7074 208.189 58.2912 208.357 58.8561H206.19ZM199.513 57.6C201.109 57.6 202.256 57.2399 203.429 56.5276C204.593 55.8197 205.386 54.8962 205.801 53.7783V50.4H201.398C199.716 50.4 198.323 50.7756 197.228 51.5335C196.131 52.2891 195.575 53.2037 195.575 54.2672C195.575 55.2707 195.927 56.0731 196.627 56.6809C197.329 57.2955 198.289 57.6 199.513 57.6Z" fill="#1F2430"/>
<path fill-rule="evenodd" clip-rule="evenodd" d="M54.8125 18.4497C54.8125 15.0033 57.5609 12.7864 60.9785 12.7864C63.269 12.7864 64.767 13.8046 65.7004 15.0515L64.0274 15.9549C63.3934 15.1335 62.2828 14.4947 60.9785 14.4947C58.6538 14.4947 56.9269 16.1354 56.9269 18.4497C56.9269 20.7302 58.6538 22.4047 60.9785 22.4047C62.1771 22.4047 63.2338 21.8961 63.7621 21.4203V19.7294H60.2388V18.0385H65.8061V22.1258C64.6614 23.3245 63.0048 24.1285 60.9785 24.1285C57.5609 24.1285 54.8125 21.8808 54.8125 18.4497Z" fill="#1F2430"/>
<path fill-rule="evenodd" clip-rule="evenodd" d="M68.4712 23.9616V12.9531H76.6331V14.6544H70.561V17.4918H76.5081V19.192H70.561V22.2614H76.6331V23.9616H68.4712Z" fill="#1F2430"/>
<path fill-rule="evenodd" clip-rule="evenodd" d="M82.1837 23.9616V14.6544H78.6319V12.9531H87.7932V14.6544H84.2414V23.9616H82.1837Z" fill="#1F2430"/>
<path fill-rule="evenodd" clip-rule="evenodd" d="M95.1223 12.9531H97.1211V23.9616H95.1223V12.9531Z" fill="#1F2430"/>
<path fill-rule="evenodd" clip-rule="evenodd" d="M102.839 23.9616V14.6544H99.2865V12.9531H108.448V14.6544H104.897V23.9616H102.839Z" fill="#1F2430"/>
<path fill-rule="evenodd" clip-rule="evenodd" d="M115.277 18.4579C115.277 15.1862 117.791 12.7864 121.358 12.7864C124.904 12.7864 127.437 15.1862 127.437 18.4579C127.437 21.7286 124.904 24.1285 121.358 24.1285C117.791 24.1285 115.277 21.7286 115.277 18.4579ZM125.271 18.374C125.271 16.1291 123.731 14.4543 121.358 14.4543C118.966 14.4543 117.443 16.1291 117.443 18.374C117.443 20.6017 118.966 22.2937 121.358 22.2937C123.731 22.2937 125.271 20.6017 125.271 18.374Z" fill="#1F2430"/>
<path fill-rule="evenodd" clip-rule="evenodd" d="M137.943 23.9616L131.825 16.0896V23.9616H129.769V12.9531H131.878L137.873 20.5788V12.9531H139.929V23.9616H137.943Z" fill="#1F2430"/>
<defs>
<linearGradient id="paint0_linear_1_6599" x1="22.0864" y1="39.0901" x2="35.7122" y2="59.0057" gradientUnits="userSpaceOnUse">
<stop stop-color="#FF177B"/>
<stop offset="1" stop-color="#FFEC73"/>
</linearGradient>
<linearGradient id="paint1_linear_1_6599" x1="1.71475" y1="3.00437" x2="-22.7126" y2="54.8018" gradientUnits="userSpaceOnUse">
<stop stop-color="#064AA2"/>
<stop offset="1" stop-color="#63FFD4"/>
</linearGradient>
<linearGradient id="paint2_linear_1_6599" x1="29.6446" y1="33.5434" x2="-0.394971" y2="51.4778" gradientUnits="userSpaceOnUse">
<stop stop-color="#FF4521"/>
<stop offset="1" stop-color="#8A33DB"/>
</linearGradient>
<linearGradient id="paint3_linear_1_6599" x1="-6.59703" y1="30.1999" x2="4.11912" y2="58.0622" gradientUnits="userSpaceOnUse">
<stop stop-color="#00A3B5"/>
<stop offset="1" stop-color="#D6FFA1"/>
</linearGradient>
</defs>
</svg>
