<svg width="22" height="20" viewBox="0 0 22 20" fill="none" xmlns="http://www.w3.org/2000/svg">
<g filter="url(#filter0_i_5123_480)">
<path fill-rule="evenodd" clip-rule="evenodd" d="M9.84544 2.57681C7.82125 0.474396 4.5394 0.474396 2.51521 2.57681C0.491023 4.67923 0.491023 8.08792 2.51521 10.1903L9.55631 17.5036C10.343 18.3207 11.6511 18.3207 12.4378 17.5036L19.4789 10.1903C21.5031 8.08792 21.5031 4.67923 19.4789 2.57681C17.4547 0.474396 14.1423 0.570142 12.1487 2.57681C10.9971 3.68491 10.3609 3.11218 9.84544 2.57681Z" fill="#3A3A3A"/>
</g>
<path fill-rule="evenodd" clip-rule="evenodd" d="M9.84544 2.57681C7.82125 0.474396 4.5394 0.474396 2.51521 2.57681C0.491023 4.67923 0.491023 8.08792 2.51521 10.1903L9.55631 17.5036C10.343 18.3207 11.6511 18.3207 12.4378 17.5036L19.4789 10.1903C21.5031 8.08792 21.5031 4.67923 19.4789 2.57681C17.4547 0.474396 14.1423 0.570142 12.1487 2.57681C10.9971 3.68491 10.3609 3.11218 9.84544 2.57681Z" stroke="#3A3A3A" stroke-width="2"/>
<defs>
<filter id="filter0_i_5123_480" x="-1.50293" y="0" width="23.5" height="20.6165" filterUnits="userSpaceOnUse" color-interpolation-filters="sRGB">
<feFlood flood-opacity="0" result="BackgroundImageFix"/>
<feBlend mode="normal" in="SourceGraphic" in2="BackgroundImageFix" result="shape"/>
<feColorMatrix in="SourceAlpha" type="matrix" values="0 0 0 0 0 0 0 0 0 0 0 0 0 0 0 0 0 0 127 0" result="hardAlpha"/>
<feOffset dx="-1.5" dy="1.5"/>
<feGaussianBlur stdDeviation="0.75"/>
<feComposite in2="hardAlpha" operator="arithmetic" k2="-1" k3="1"/>
<feColorMatrix type="matrix" values="0 0 0 0 0.376471 0 0 0 0 0.364706 0 0 0 0 0.368627 0 0 0 1 0"/>
<feBlend mode="normal" in2="shape" result="effect1_innerShadow_5123_480"/>
</filter>
</defs>
</svg>
