<svg width="25" height="24" viewBox="0 0 25 24" fill="none" xmlns="http://www.w3.org/2000/svg">
<path fill-rule="evenodd" clip-rule="evenodd" d="M8.31863 4.27934C8.42036 4.07589 8.62831 3.94737 8.85578 3.94737H9.78684C10.4597 3.94737 11.1051 4.21468 11.5809 4.69048L12.5938 5.70337L12.6701 5.77973C12.5743 5.77224 12.4787 5.76056 12.3836 5.74471L8.75705 5.14029C8.3585 5.07387 8.13793 4.64074 8.31863 4.27934ZM13.4738 5.74471C13.3788 5.76056 13.2831 5.77224 13.1873 5.77973L13.2637 5.70337L14.2765 4.69048C14.7523 4.21467 15.3977 3.94737 16.0706 3.94737H17.0016C17.2291 3.94737 17.4371 4.07589 17.5388 4.27934C17.7195 4.64074 17.4989 5.07387 17.1004 5.14029L13.4738 5.74471ZM8.85578 3C8.26947 3 7.73349 3.33126 7.47128 3.85567C7.10637 4.58548 7.37633 5.42879 8.0044 5.8421H5.34976C4.56494 5.8421 3.92871 6.47833 3.92871 7.26316V9.15789C3.92871 9.77663 4.32415 10.303 4.87609 10.4981V18.6316C4.87609 19.9396 5.93647 21 7.24451 21H18.6129C19.921 21 20.9814 19.9396 20.9814 18.6316V10.4981C21.5333 10.303 21.9287 9.77662 21.9287 9.15789V7.26316C21.9287 6.47833 21.2925 5.8421 20.5077 5.8421H17.853C18.4811 5.42879 18.751 4.58548 18.3861 3.85567C18.1239 3.33126 17.5879 3 17.0016 3H16.0706C15.1464 3 14.2601 3.36712 13.6066 4.02059L12.9287 4.69853L12.2508 4.02059C11.5973 3.36712 10.711 3 9.78684 3H8.85578ZM17.6656 10.5789H20.034V18.6316C20.034 19.4164 19.3978 20.0526 18.6129 20.0526H17.1919V11.0526C17.1919 10.791 17.4039 10.5789 17.6656 10.5789ZM16.2445 11.0526V20.0526H9.61292V11.0526C9.61292 10.2678 8.97669 9.63158 8.19187 9.63158H5.34976C5.08815 9.63158 4.87608 9.4195 4.87608 9.15789V7.26316C4.87608 7.00155 5.08815 6.78947 5.34976 6.78947H20.5077C20.7693 6.78947 20.9813 7.00155 20.9813 7.26316V9.15789C20.9813 9.4195 20.7693 9.63158 20.5077 9.63158H17.6656C16.8807 9.63158 16.2445 10.2678 16.2445 11.0526ZM8.66555 11.0526V20.0526H7.24451C6.45968 20.0526 5.82346 19.4164 5.82346 18.6316V10.5789H8.19187C8.45348 10.5789 8.66555 10.791 8.66555 11.0526Z" fill="#3A3A3A"/>
</svg>
