<svg width="34" height="34" viewBox="0 0 34 34" fill="none" xmlns="http://www.w3.org/2000/svg">
<g clip-path="url(#clip0_178_122422)">
<g filter="url(#filter0_dii_178_122422)">
<path fill-rule="evenodd" clip-rule="evenodd" d="M22.7034 27.1059L29.0009 8.21352C29.7845 5.86252 27.5479 3.62586 25.1969 4.40953L6.30647 10.7063C3.70882 11.5722 3.52568 15.1765 6.02219 16.3012L12.6231 19.2751C13.2922 19.5765 13.828 20.1122 14.1295 20.7812L17.1087 27.3907C18.2338 29.8868 21.8376 29.7033 22.7034 27.1059ZM24.7667 8.64405C24.1795 8.05683 23.2274 8.05683 22.6402 8.64405L16.2607 15.0235C15.6735 15.6108 15.6735 16.5628 16.2607 17.15C16.8479 17.7373 17.8 17.7373 18.3872 17.15L24.7667 10.7706C25.3539 10.1833 25.3539 9.23127 24.7667 8.64405Z" fill="#C79C48"/>
</g>
</g>
<defs>
<filter id="filter0_dii_178_122422" x="1.15246" y="1.91932" width="31.1052" height="33.4381" filterUnits="userSpaceOnUse" color-interpolation-filters="sRGB">
<feFlood flood-opacity="0" result="BackgroundImageFix"/>
<feColorMatrix in="SourceAlpha" type="matrix" values="0 0 0 0 0 0 0 0 0 0 0 0 0 0 0 0 0 0 127 0" result="hardAlpha"/>
<feOffset dy="3.09754"/>
<feGaussianBlur stdDeviation="1.54877"/>
<feComposite in2="hardAlpha" operator="out"/>
<feColorMatrix type="matrix" values="0 0 0 0 0 0 0 0 0 0 0 0 0 0 0 0 0 0 0.2 0"/>
<feBlend mode="normal" in2="BackgroundImageFix" result="effect1_dropShadow_178_122422"/>
<feBlend mode="normal" in="SourceGraphic" in2="effect1_dropShadow_178_122422" result="shape"/>
<feColorMatrix in="SourceAlpha" type="matrix" values="0 0 0 0 0 0 0 0 0 0 0 0 0 0 0 0 0 0 127 0" result="hardAlpha"/>
<feOffset dx="-1.54877" dy="2.33068"/>
<feGaussianBlur stdDeviation="0.774386"/>
<feComposite in2="hardAlpha" operator="arithmetic" k2="-1" k3="1"/>
<feColorMatrix type="matrix" values="0 0 0 0 1 0 0 0 0 0.843137 0 0 0 0 0.470588 0 0 0 1 0"/>
<feBlend mode="normal" in2="shape" result="effect2_innerShadow_178_122422"/>
<feColorMatrix in="SourceAlpha" type="matrix" values="0 0 0 0 0 0 0 0 0 0 0 0 0 0 0 0 0 0 127 0" result="hardAlpha"/>
<feOffset dx="0.781904" dy="-2.33068"/>
<feGaussianBlur stdDeviation="1.54877"/>
<feComposite in2="hardAlpha" operator="arithmetic" k2="-1" k3="1"/>
<feColorMatrix type="matrix" values="0 0 0 0 0 0 0 0 0 0 0 0 0 0 0 0 0 0 0.5 0"/>
<feBlend mode="normal" in2="effect2_innerShadow_178_122422" result="effect3_innerShadow_178_122422"/>
</filter>
<clipPath id="clip0_178_122422">
<rect width="34" height="34" fill="white"/>
</clipPath>
</defs>
</svg>
