<svg width="22" height="25" viewBox="0 0 22 25" fill="none" xmlns="http://www.w3.org/2000/svg">
<path fill-rule="evenodd" clip-rule="evenodd" d="M9.64352 1.30622C9.64352 0.584814 10.2283 0 10.9497 0C11.6711 0 12.256 0.584814 12.256 1.30622V2.13888C16.1941 2.47033 19.2871 5.77183 19.2871 9.79572H18.2871C18.2871 6.10414 15.2944 3.11151 11.6029 3.11151H10.9498C6.89747 3.11151 3.61244 6.39654 3.61244 10.4488V11.755V13.9367C3.61244 15.59 3.18099 17.2146 2.36075 18.6501L2.24034 18.8608L1.36159 20.3986H10.9498H20.5379L19.6592 18.8608L18.3529 16.5749L19.2212 16.0787L20.5274 18.3646L21.8336 20.6505C21.9221 20.8053 21.9214 20.9954 21.832 21.1495C21.7425 21.3037 21.5777 21.3986 21.3995 21.3986H14.0223C13.7836 22.8803 12.4988 24.0121 10.9497 24.0121C9.40055 24.0121 8.11576 22.8803 7.87701 21.3986H0.5C0.321765 21.3986 0.157006 21.3037 0.0675449 21.1495C-0.021916 20.9954 -0.022551 20.8053 0.0658785 20.6505L1.3721 18.3646L1.49251 18.1539C2.22641 16.8696 2.61244 15.416 2.61244 13.9367V11.755V10.4488C2.61244 6.28864 5.65945 2.84013 9.64352 2.21324V1.30622ZM10.9497 23.0121C9.95526 23.0121 9.12133 22.325 8.89675 21.3996H10.9497H13.0026C12.778 22.325 11.9441 23.0121 10.9497 23.0121ZM19.2872 11.1027C19.2872 10.8266 19.0633 10.6027 18.7872 10.6027C18.5111 10.6027 18.2872 10.8266 18.2872 11.1027V12.562H16.8279C16.5517 12.562 16.3279 12.7859 16.3279 13.062C16.3279 13.3382 16.5517 13.562 16.8279 13.562H18.2872V15.0214C18.2872 15.2975 18.5111 15.5214 18.7872 15.5214C19.0633 15.5214 19.2872 15.2975 19.2872 15.0214V13.562H20.7465C21.0227 13.562 21.2465 13.3382 21.2465 13.062C21.2465 12.7859 21.0227 12.562 20.7465 12.562H19.2872V11.1027Z" fill="#3A3A3A"/>
</svg>
