<svg width="44" height="44" viewBox="0 0 44 44" fill="none" xmlns="http://www.w3.org/2000/svg">
<path d="M9.19513 5.90427C9.07531 5.7692 8.92987 5.65926 8.76724 5.58082C8.60462 5.50237 8.42804 5.45698 8.24774 5.44728C8.06745 5.43758 7.88702 5.46376 7.71692 5.52431C7.54681 5.58486 7.39042 5.67856 7.2568 5.79999C7.12317 5.92143 7.01498 6.06817 6.93849 6.23173C6.862 6.39528 6.81874 6.57239 6.8112 6.75279C6.80366 6.93319 6.832 7.11329 6.89458 7.28266C6.95717 7.45202 7.05274 7.60728 7.17577 7.73944L10.4572 11.3501C4.26269 15.1517 1.59863 21.012 1.48095 21.2781C1.40337 21.4526 1.36328 21.6414 1.36328 21.8324C1.36328 22.0233 1.40337 22.2122 1.48095 22.3867C1.54064 22.5214 2.98524 25.7244 6.19678 28.936C10.476 33.2135 15.8809 35.475 21.8298 35.475C24.8872 35.4924 27.9137 34.863 30.7106 33.6279L34.4628 37.757C34.5826 37.8921 34.7281 38.0021 34.8907 38.0805C35.0533 38.1589 35.2299 38.2043 35.4102 38.214C35.5905 38.2237 35.7709 38.1976 35.941 38.137C36.1111 38.0765 36.2675 37.9828 36.4011 37.8613C36.5347 37.7399 36.6429 37.5931 36.7194 37.4296C36.7959 37.266 36.8392 37.0889 36.8467 36.9085C36.8543 36.7281 36.8259 36.548 36.7633 36.3787C36.7008 36.2093 36.6052 36.054 36.4822 35.9219L9.19513 5.90427ZM17.2675 18.8391L24.3745 26.6591C23.3042 27.2221 22.0773 27.4137 20.8864 27.2039C19.6954 26.994 18.6079 26.3946 17.7945 25.4996C16.9812 24.6047 16.4881 23.465 16.3927 22.2595C16.2973 21.0539 16.605 19.8508 17.2675 18.8391ZM21.8298 32.7462C16.5801 32.7462 11.9939 30.8376 8.19739 27.0752C6.63906 25.5265 5.31368 23.76 4.26269 21.8307C5.06259 20.3315 7.61579 16.1358 12.3385 13.4087L15.4084 16.7771C14.2199 18.2993 13.6078 20.1927 13.6803 22.1226C13.7527 24.0525 14.5052 25.8946 15.8045 27.3234C17.1039 28.7522 18.8665 29.6756 20.7809 29.9304C22.6952 30.1852 24.6381 29.7551 26.2659 28.7159L28.7782 31.4789C26.561 32.3296 24.2046 32.7593 21.8298 32.7462ZM22.8531 16.4701C22.4976 16.4023 22.1836 16.196 21.9802 15.8966C21.7767 15.5972 21.7006 15.2293 21.7684 14.8737C21.8363 14.5182 22.0426 14.2042 22.342 14.0008C22.6413 13.7973 23.0093 13.7212 23.3648 13.789C25.1038 14.1261 26.6872 15.0164 27.8789 16.327C29.0705 17.6376 29.8066 19.2983 29.9772 21.0615C30.0109 21.4217 29.9001 21.7807 29.6692 22.0592C29.4382 22.3378 29.1061 22.5133 28.7458 22.547C28.7032 22.5495 28.6605 22.5495 28.6179 22.547C28.2769 22.5484 27.9476 22.4221 27.6951 22.193C27.4426 21.9638 27.285 21.6483 27.2535 21.3088C27.1386 20.136 26.6483 19.0317 25.8555 18.1599C25.0627 17.2881 24.0097 16.6955 22.8531 16.4701ZM42.1736 22.3867C42.1019 22.547 40.3742 26.3725 36.4839 29.857C36.3509 29.9798 36.1949 30.075 36.0248 30.1369C35.8547 30.1989 35.674 30.2264 35.4932 30.2178C35.3124 30.2093 35.1351 30.1648 34.9717 30.0871C34.8082 30.0093 34.6619 29.8998 34.5412 29.7649C34.4204 29.6301 34.3278 29.4725 34.2685 29.3015C34.2093 29.1305 34.1846 28.9494 34.1961 28.7687C34.2075 28.5881 34.2548 28.4115 34.3351 28.2493C34.4155 28.0871 34.5273 27.9425 34.664 27.8239C36.5726 26.1092 38.1759 24.0826 39.4055 21.8307C38.3522 19.8996 37.0239 18.1318 35.4622 16.5827C31.6657 12.8237 27.0795 10.9152 21.8298 10.9152C20.7237 10.9138 19.6193 11.0034 18.5279 11.1829C18.3504 11.2143 18.1684 11.2102 17.9925 11.1709C17.8166 11.1316 17.6503 11.0578 17.503 10.9538C17.3558 10.8498 17.2307 10.7177 17.1348 10.565C17.0389 10.4124 16.9743 10.2423 16.9445 10.0645C16.9148 9.88672 16.9206 9.70481 16.9615 9.52928C17.0025 9.35375 17.0778 9.18808 17.1832 9.04183C17.2885 8.89558 17.4218 8.77166 17.5753 8.67721C17.7289 8.58277 17.8996 8.51968 18.0776 8.49159C19.3178 8.28681 20.5728 8.1847 21.8298 8.18629C27.7788 8.18629 33.1836 10.4478 37.4628 14.7271C40.6744 17.9386 42.119 21.1433 42.1787 21.2781C42.2563 21.4526 42.2963 21.6414 42.2963 21.8324C42.2963 22.0233 42.2563 22.2122 42.1787 22.3867H42.1736Z" fill="#4D4552"/>
</svg>
