<svg width="100" height="76" viewBox="0 0 100 76" fill="none" xmlns="http://www.w3.org/2000/svg">
<path d="M28.34 31.3399C28.3799 32.224 28.0891 33.0912 27.5243 33.7725C26.9595 34.4538 26.1611 34.9003 25.285 35.0249C18.875 35.7999 14.28 37.7849 11.385 40.8749C8.505 43.9349 7.015 47.9249 6.89 52.6249C7.34 57.6599 9 61.4349 11.875 64.1349C14.735 66.8199 19.03 68.2449 24.89 68.2849L78.24 68.2899C83.22 67.9549 86.89 66.0699 89.495 62.5949C92.79 58.2149 93.48 54.2699 92.905 49.8599C92.475 46.5499 90.43 42.3499 87.12 39.4949C84.595 37.3149 80.62 35.9899 75.115 35.6449C73.245 35.5299 71.81 33.8799 71.865 31.9299C72.0918 26.5047 70.4856 21.161 67.305 16.7599C62.945 10.6099 56.19 7.47493 49.55 7.72993C43.055 7.97993 37.04 11.0449 32.695 16.8399C29.635 20.9199 28.195 25.6999 28.34 31.3399ZM72.855 12.4649C76.2898 17.2392 78.3166 22.8813 78.705 28.7499C84.05 29.4799 88.33 31.1799 91.52 33.9299C96.24 38.0049 99.1 43.8649 99.75 48.8849C100.555 55.0699 99.525 60.9349 94.93 67.0499C91.06 72.1999 85.555 75.0299 78.455 75.4999H24.865C17.42 75.4499 11.505 73.4899 7.255 69.4999C3.025 65.5299 0.61 60.0599 0 52.8749C0.15 45.9949 2.3 40.2499 6.45 35.8249C10.035 31.9999 15.075 29.5249 21.495 28.3199C21.875 22.3449 23.795 17.0049 27.26 12.3949C32.885 4.88493 40.815 0.849932 49.295 0.524932C58.135 0.184932 67.09 4.33493 72.855 12.4649ZM50.78 23.1099C48.87 23.1099 47.325 24.7249 47.325 26.7149L47.32 47.4299L43.385 43.3799C42.815 42.7782 42.0453 42.4046 41.2198 42.3292C40.3944 42.2537 39.5697 42.4815 38.9 42.9699L38.47 43.3449C37.8213 44.0317 37.4628 44.9423 37.4694 45.887C37.4759 46.8316 37.8469 47.7372 38.505 48.4149L48.405 58.6199C48.72 58.9534 49.0992 59.2197 49.5198 59.4028C49.9405 59.5859 50.3938 59.682 50.8525 59.6852C51.3113 59.6885 51.7659 59.5989 52.1891 59.4219C52.6123 59.2448 52.9953 58.9839 53.315 58.6549L63.085 48.5849C63.7344 47.8989 64.0937 46.9885 64.0881 46.0439C64.0826 45.0993 63.7124 44.1933 63.055 43.5149C62.7399 43.1799 62.36 42.9122 61.9385 42.7282C61.5169 42.5442 61.0624 42.4477 60.6025 42.4444C60.1425 42.4411 59.6867 42.5312 59.2626 42.7092C58.8385 42.8872 58.4549 43.1494 58.135 43.4799L54.23 47.5049V26.7099C54.2448 25.8549 53.9513 25.023 53.4032 24.3666C52.8551 23.7101 52.089 23.2729 51.245 23.1349L50.78 23.1099Z" fill="white"/>
</svg>
