<svg width="40" height="27" viewBox="0 0 40 27" fill="none" xmlns="http://www.w3.org/2000/svg">
<path d="M19.7083 8.0625C18.2828 8.0625 16.9156 8.62879 15.9076 9.6368C14.8996 10.6448 14.3333 12.012 14.3333 13.4375C14.3333 14.863 14.8996 16.2302 15.9076 17.2382C16.9156 18.2462 18.2828 18.8125 19.7083 18.8125C21.1339 18.8125 22.501 18.2462 23.509 17.2382C24.517 16.2302 25.0833 14.863 25.0833 13.4375C25.0833 12.012 24.517 10.6448 23.509 9.6368C22.501 8.62879 21.1339 8.0625 19.7083 8.0625ZM19.7083 22.3958C17.3324 22.3958 15.0538 21.452 13.3738 19.772C11.6938 18.092 10.75 15.8134 10.75 13.4375C10.75 11.0616 11.6938 8.78302 13.3738 7.103C15.0538 5.42299 17.3324 4.47917 19.7083 4.47917C22.0842 4.47917 24.3628 5.42299 26.0428 7.103C27.7228 8.78302 28.6667 11.0616 28.6667 13.4375C28.6667 15.8134 27.7228 18.092 26.0428 19.772C24.3628 21.452 22.0842 22.3958 19.7083 22.3958ZM19.7083 0C10.75 0 3.09958 5.57208 0 13.4375C3.09958 21.3029 10.75 26.875 19.7083 26.875C28.6667 26.875 36.3171 21.3029 39.4167 13.4375C36.3171 5.57208 28.6667 0 19.7083 0Z" fill="#4D4552"/>
</svg>
