<svg width="96" height="80" viewBox="0 0 96 80" fill="none" xmlns="http://www.w3.org/2000/svg">
<g filter="url(#filter0_dii_3031_210386)">
<path d="M18.3523 0.289062C14.7779 0.289062 11.3499 1.70009 8.8224 4.21174C6.29492 6.72339 4.875 10.1299 4.875 13.6819V58.3248C4.875 61.8768 6.29492 65.2833 8.8224 67.795C11.3499 70.3066 14.7779 71.7176 18.3523 71.7176H77.6522C81.2266 71.7176 84.6546 70.3066 87.1821 67.795C89.7096 65.2833 91.1295 61.8768 91.1295 58.3248V13.6819C91.1295 10.1299 89.7096 6.72339 87.1821 4.21174C84.6546 1.70009 81.2266 0.289063 77.6522 0.289062H18.3523ZM33.6265 22.6141C33.6269 21.997 33.7881 21.3906 34.0945 20.8539C34.4009 20.3172 34.842 19.8686 35.3748 19.5517C35.9075 19.2348 36.5139 19.0605 37.1346 19.0458C37.7554 19.0311 38.3694 19.1764 38.9168 19.4676L64.0743 32.8605C64.6475 33.1656 65.1267 33.6196 65.4608 34.174C65.7948 34.7284 65.9713 35.3625 65.9713 36.0087C65.9713 36.6549 65.7948 37.289 65.4608 37.8434C65.1267 38.3978 64.6475 38.8518 64.0743 39.1569L38.9168 52.5498C38.3688 52.8413 37.7542 52.9866 37.1328 52.9716C36.5115 52.9565 35.9047 52.7816 35.3717 52.4639C34.8387 52.1461 34.3977 51.6965 34.0918 51.1588C33.786 50.6212 33.6256 50.0139 33.6265 49.3962V22.6141Z" fill="#003A4D"/>
</g>
<defs>
<filter id="filter0_dii_3031_210386" x="0.875" y="-1.71094" width="94.2578" height="81.4297" filterUnits="userSpaceOnUse" color-interpolation-filters="sRGB">
<feFlood flood-opacity="0" result="BackgroundImageFix"/>
<feColorMatrix in="SourceAlpha" type="matrix" values="0 0 0 0 0 0 0 0 0 0 0 0 0 0 0 0 0 0 127 0" result="hardAlpha"/>
<feOffset dy="4"/>
<feGaussianBlur stdDeviation="2"/>
<feComposite in2="hardAlpha" operator="out"/>
<feColorMatrix type="matrix" values="0 0 0 0 0 0 0 0 0 0 0 0 0 0 0 0 0 0 0.25 0"/>
<feBlend mode="normal" in2="BackgroundImageFix" result="effect1_dropShadow_3031_210386"/>
<feBlend mode="normal" in="SourceGraphic" in2="effect1_dropShadow_3031_210386" result="shape"/>
<feColorMatrix in="SourceAlpha" type="matrix" values="0 0 0 0 0 0 0 0 0 0 0 0 0 0 0 0 0 0 127 0" result="hardAlpha"/>
<feOffset dx="1" dy="-2"/>
<feGaussianBlur stdDeviation="3"/>
<feComposite in2="hardAlpha" operator="arithmetic" k2="-1" k3="1"/>
<feColorMatrix type="matrix" values="0 0 0 0 0 0 0 0 0 0 0 0 0 0 0 0 0 0 0.8 0"/>
<feBlend mode="normal" in2="shape" result="effect2_innerShadow_3031_210386"/>
<feColorMatrix in="SourceAlpha" type="matrix" values="0 0 0 0 0 0 0 0 0 0 0 0 0 0 0 0 0 0 127 0" result="hardAlpha"/>
<feOffset dy="4"/>
<feGaussianBlur stdDeviation="2"/>
<feComposite in2="hardAlpha" operator="arithmetic" k2="-1" k3="1"/>
<feColorMatrix type="matrix" values="0 0 0 0 0 0 0 0 0 0 0 0 0 0 0 0 0 0 0.25 0"/>
<feBlend mode="normal" in2="effect2_innerShadow_3031_210386" result="effect3_innerShadow_3031_210386"/>
</filter>
</defs>
</svg>
