<svg width="60" height="60" viewBox="0 0 60 60" fill="none" xmlns="http://www.w3.org/2000/svg">
<g clip-path="url(#clip0_1233_189436)">
<path d="M30.0004 38.5716C34.8311 38.5716 39.464 36.6526 42.8799 33.2368C46.2957 29.821 48.2147 25.1881 48.2147 20.3574C48.2147 15.5266 46.2957 10.8937 42.8799 7.47791C39.464 4.06207 34.8311 2.14307 30.0004 2.14307C25.1697 2.14307 20.5368 4.06207 17.121 7.47791C13.7051 10.8937 11.7861 15.5266 11.7861 20.3574C11.7861 25.1881 13.7051 29.821 17.121 33.2368C20.5368 36.6526 25.1697 38.5716 30.0004 38.5716ZM30.0004 38.5716V57.8574M21.429 49.2859H38.5718" stroke="#FFD778" stroke-width="5" stroke-linecap="round" stroke-linejoin="round"/>
</g>
<defs>
<clipPath id="clip0_1233_189436">
<rect width="60" height="60" fill="white"/>
</clipPath>
</defs>
</svg>
